<?xml version="1.0" encoding="utf-8"?>
<!-- Generator: Adobe Illustrator 25.3.1, SVG Export Plug-In . SVG Version: 6.00 Build 0)  -->
<svg version="1.1" id="Layer_1" xmlns="http://www.w3.org/2000/svg" xmlns:xlink="http://www.w3.org/1999/xlink" x="0px" y="0px"
	 viewBox="0 0 360 360" style="enable-background:new 0 0 360 360;" xml:space="preserve">
<style type="text/css">
	.st0{clip-path:url(#SVGID_8_);}
	.st1{fill:#62A0D1;}
	.st2{fill:none;}
	.st3{clip-path:url(#SVGID_10_);fill:url(#SVGID_11_);}
	.st4{clip-path:url(#SVGID_8_);fill:none;}
	.st5{clip-path:url(#SVGID_13_);}
	.st6{opacity:0.1;fill:#FFFFFF;enable-background:new    ;}
	.st7{clip-path:url(#SVGID_15_);}
	.st8{opacity:3.000000e-02;fill:#FFFFFF;enable-background:new    ;}
	.st9{clip-path:url(#SVGID_17_);}
	.st10{fill:#FFFFFF;}
	.st11{clip-path:url(#SVGID_19_);}
	.st12{clip-path:url(#SVGID_22_);}
	.st13{clip-path:url(#SVGID_23_);fill:url(#SVGID_24_);}
	.st14{opacity:0.29;fill:url(#SVGID_25_);enable-background:new    ;}
	.st15{fill:#F7C22B;}
	.st16{clip-path:url(#SVGID_27_);}
	.st17{clip-path:url(#SVGID_30_);}
	.st18{clip-path:url(#SVGID_31_);fill:url(#SVGID_32_);}
	.st19{opacity:0.29;fill:url(#SVGID_33_);enable-background:new    ;}
	.st20{fill:#FF6343;}
	.st21{clip-path:url(#SVGID_35_);}
	.st22{clip-path:url(#SVGID_38_);}
	.st23{clip-path:url(#SVGID_39_);fill:url(#SVGID_40_);}
	.st24{opacity:0.29;fill:url(#SVGID_41_);enable-background:new    ;}
	.st25{fill:#FF40A1;}
	.st26{clip-path:url(#SVGID_43_);}
	.st27{clip-path:url(#SVGID_46_);}
	.st28{clip-path:url(#SVGID_47_);fill:url(#SVGID_48_);}
	.st29{opacity:0.29;fill:url(#SVGID_49_);enable-background:new    ;}
	.st30{clip-path:url(#SVGID_51_);}
	.st31{clip-path:url(#SVGID_54_);}
	.st32{clip-path:url(#SVGID_55_);fill:url(#SVGID_56_);}
	.st33{opacity:0.29;fill:url(#SVGID_57_);enable-background:new    ;}
	.st34{fill:#00FF67;}
	.st35{clip-path:url(#SVGID_59_);}
	.st36{clip-path:url(#SVGID_62_);}
	.st37{clip-path:url(#SVGID_63_);fill:url(#SVGID_64_);}
	.st38{opacity:0.29;fill:url(#SVGID_65_);enable-background:new    ;}
	.st39{clip-path:url(#SVGID_67_);}
	.st40{fill:url(#SVGID_68_);}
	.st41{opacity:0.68;fill:#FFFFFF;enable-background:new    ;}
	.st42{opacity:0.25;fill:#000092;enable-background:new    ;}
	.st43{fill:#FFAE50;}
	.st44{clip-path:url(#SVGID_8_);fill:#2E4AFF;}
	.st45{clip-path:url(#SVGID_8_);fill:#1A37AD;}
	.st46{opacity:0.4;clip-path:url(#SVGID_8_);enable-background:new    ;}
	.st47{opacity:0.25;clip-path:url(#SVGID_8_);enable-background:new    ;}
	.st48{clip-path:url(#SVGID_8_);fill:#4D96FF;}
	.st49{clip-path:url(#SVGID_8_);fill:#8FC2FF;}
	.st50{clip-path:url(#SVGID_8_);fill:#4FC14F;}
	.st51{opacity:0.55;clip-path:url(#SVGID_8_);enable-background:new    ;}
	.st52{opacity:0.35;clip-path:url(#SVGID_8_);fill:#000042;enable-background:new    ;}
	.st53{opacity:0.8;clip-path:url(#SVGID_8_);fill:#FFFFFF;enable-background:new    ;}
	.st54{clip-path:url(#SVGID_70_);}
	.st55{fill:#718ABC;}
	.st56{fill:#172B49;}
	.st57{clip-path:url(#SVGID_72_);}
	.st58{fill:#E7157C;}
	.st59{fill:#F958AD;}
	.st60{opacity:0.25;fill:#FFFFFF;enable-background:new    ;}
	.st61{fill:#C60269;}
	.st62{clip-path:url(#SVGID_74_);}
	.st63{fill:#CE56E0;}
	.st64{fill:#E385F9;}
	.st65{fill:#BB30D8;}
	.st66{fill:#EAB5E5;}
	.st67{fill:#E8C5E3;}
	.st68{opacity:0.85;fill:#62A0D1;}
</style>
<g>
	<g>
		<defs>
			<rect id="SVGID_6_" width="360" height="360"/>
		</defs>
		<clipPath id="SVGID_8_">
			<use xlink:href="#SVGID_6_"  style="overflow:visible;"/>
		</clipPath>
		<g id="Layer_2_2_" class="st0">
			<g id="Layer_1-2_1_">
				<rect class="st1" width="360" height="360"/>
			</g>
		</g>
		<g id="Layer_2_1_" class="st0">
			<g id="Layer_1-2">
				<rect class="st2" width="360" height="360"/>
			</g>
		</g>
		<g class="st0">
			<defs>
				<rect id="SVGID_9_" width="360" height="360"/>
			</defs>
			<clipPath id="SVGID_10_">
				<use xlink:href="#SVGID_9_"  style="overflow:visible;"/>
			</clipPath>
			
				<radialGradient id="SVGID_11_" cx="485.8057" cy="-12.0204" r="354.8087" gradientTransform="matrix(1 0 0 -1 0 362)" gradientUnits="userSpaceOnUse">
				<stop  offset="0" style="stop-color:#CAF1D2"/>
				<stop  offset="1.113306e-02" style="stop-color:#C3EED4"/>
				<stop  offset="0.1499" style="stop-color:#71C9EB"/>
				<stop  offset="0.2482" style="stop-color:#3DB2F9"/>
				<stop  offset="0.2961" style="stop-color:#29A9FF"/>
				<stop  offset="0.3138" style="stop-color:#2CA8FC"/>
				<stop  offset="0.4968" style="stop-color:#4AA4E5"/>
				<stop  offset="0.6546" style="stop-color:#5CA1D6"/>
				<stop  offset="0.7682" style="stop-color:#62A0D1"/>
				<stop  offset="0.8953" style="stop-color:#6288D1"/>
				<stop  offset="1" style="stop-color:#6279D1"/>
			</radialGradient>
			<rect x="-15.3" y="-15.6" class="st3" width="611.3" height="391.2"/>
		</g>
		<rect class="st4" width="360" height="360"/>
		<g class="st0">
			<defs>
				<rect id="SVGID_12_" x="-15.3" y="-15.6" width="611.3" height="391.2"/>
			</defs>
			<clipPath id="SVGID_13_">
				<use xlink:href="#SVGID_12_"  style="overflow:visible;"/>
			</clipPath>
			<g class="st5">
				<path class="st6" d="M-59.1,111.3c3.9,23.3,28.4,37.7,51.7,41.8s47.5,1.4,70.5,7C108,171,141.7,211.7,187,219.9
					c38.8,7,77.9-11.2,117.3-10.3c71.1,1.6,102.7,99,158.4,77.2c7.1,3.5-6.6,20.2-14.5,20.4c-42.8,0.9-83.8-63.2-140.8-64.4
					c-25.5-0.6-51.9,3.8-77.6,14.4c-25.3,10.4-56.9,10.3-80.3-4c-16.2-9.9-45.5-32.8-61.7-42.9c-23.5-14.6-53.5-8.7-80.8-4.6
					s-59.7,4-77-17.5c-14.3-17.7-12.5-43.1-9.6-65.7C-71.9,116.3-66.8,117.5-59.1,111.3z"/>
				<path class="st6" d="M-86.3,241.3c1.2,26.4,27.2,45.8,53.2,50.3s52.5-1.7,78.7-4.8c26.2-3.1,55-2.3,76,13.7
					c13.5,10.3,22.2,26,36.1,35.7c19.7,13.9,46.3,13.6,69.5,7.2c23.2-6.3,44.7-17.9,67.7-25.2c19.5-6.2,41.8-8.9,59.5,1.3
					c17.4,10,26.1,29.8,37.2,46.4c26.8,40.2,73.4,66.3,121.7,68.2c8.1,12.1,9.9,24.9,1.4,36.8c-10.9,15.2-31.2,19.6-49.6,22.8
					c-32.2,5.7-64.5,11.3-96.7,17c-21.1,3.7-43.8,7.2-63.1-2.2c-42.8-20.8-94.9-12.2-142.3-7.7s-95.1,10.9-142.3,5
					s-94.9-26.1-122.7-64.7c-17-23.6-25.4-52.5-28.2-81.4c-2.8-28.9-0.1-58.1,3.5-86.9c1.3-10.2,2.9-20.9,9.5-28.8
					C-110.5,236.1-93.2,233.7-86.3,241.3z"/>
				<path class="st6" d="M-53.8-16.1c31.3-23.3,71-35,110-32.6s76.9,19,105.1,46c17.4,16.6,30.9,36.7,47.1,54.5
					c16.1,17.8,36,33.8,59.6,38.2c27.5,5.1,61.2-10.6,89.1-8.1c30.9,2.9,44.2,49,69,66.5c33.6,23.7,94.6,29.2,115.3,24.9
					C606,160,696.8,139,693.5,148.6s0.2,58.3-8.8,53.7c-51.7-26.7-113.9,2.8-189-0.5c-36.8-1.6-79.6-16.2-110.1-36.9
					c-14.7-10-26.4-24.8-43-31c-23.6-8.8-49.5,2.1-72.9,11.3c-32.8,12.9-72.5,22.2-101.3,1.9c-17.3-12.2-26.6-32.6-39.8-49.2
					c-24.7-31.3-65-49.6-104.8-47.5c-17.9,1-35.6,5.8-53.5,5.1s-37.4-8.6-44.4-25.1C-83.2,9.1-72.4-2.3-53.8-16.1z"/>
				<path class="st6" d="M244.4-44.5C248.3-28,262-15.3,277.3-8.1C292.7-1,371.7,0.4,386.6,8.5c30.4,16.6,27,49.9,60.9,57.1
					c18.5,4,65-8.6,83.9-9.4c33.2-1.3,48.2,32.3,80.8,38.6c39.3,7.6,80.8,2.9,117.4-13.2c8.3-3.6,17.1-8.8,19.5-17.5
					c3.1-11-5.5-21.6-13.9-29.3c-60.4-55.5-144.2-77.6-225.6-88c-53.2-6.8-106.8-9.4-159.9-16.4c-25.8-3.4-119.1-38.9-144.8-40.3
					C185.1-110.9,240.1-62.8,244.4-44.5z"/>
			</g>
		</g>
		<g class="st0">
			<defs>
				<rect id="SVGID_14_" x="-15.3" y="-15.6" width="611.3" height="391.2"/>
			</defs>
			<clipPath id="SVGID_15_">
				<use xlink:href="#SVGID_14_"  style="overflow:visible;"/>
			</clipPath>
			<g class="st7">
				<circle class="st8" cx="522.8" cy="414.4" r="485.3"/>
				<circle class="st8" cx="522.8" cy="414.4" r="357.1"/>
			</g>
		</g>
		<g class="st0">
			<defs>
				<rect id="SVGID_16_" x="-15.3" y="-15.6" width="611.3" height="391.2"/>
			</defs>
			<clipPath id="SVGID_17_">
				<use xlink:href="#SVGID_16_"  style="overflow:visible;"/>
			</clipPath>
			<g class="st9">
				<path class="st10" d="M220.4,165c-1.7,0-1.7,2.7,0,2.7C222.1,167.7,222.1,165,220.4,165z"/>
				<path class="st10" d="M4.2,128.8c-2.8,0-2.8,4.4,0,4.4S7,128.8,4.2,128.8z"/>
				<path class="st10" d="M464.8,53.4c-2.2,0-2.2,3.4,0,3.4C467,56.8,467,53.4,464.8,53.4z"/>
				<path class="st10" d="M455.7,130.8c-2.2,0-2.2,3.4,0,3.4C457.9,134.2,457.9,130.8,455.7,130.8z"/>
				<path class="st10" d="M149.5,8.8c-2.2,0-2.2,3.4,0,3.4C151.7,12.2,151.7,8.8,149.5,8.8z"/>
				<path class="st10" d="M543.1,165.4c-2.4,0-2.4,3.7,0,3.7C545.5,169.1,545.5,165.4,543.1,165.4z"/>
				<path class="st10" d="M504,139.5c-1.1,0-1.1,1.7,0,1.7S505.1,139.5,504,139.5z"/>
				<path class="st10" d="M568.7,33.3c-1.1,0-1.1,1.7,0,1.7S569.8,33.3,568.7,33.3z"/>
				<path class="st10" d="M370.7,120c-1.1,0-1.1,1.7,0,1.7C371.9,121.7,371.9,120,370.7,120z"/>
				<path class="st10" d="M196.6,216.3c-0.8,0-0.8,1.3,0,1.3C197.5,217.6,197.5,216.3,196.6,216.3z"/>
				<path class="st10" d="M410.5,0.9c-1.6,0-1.6,2.4,0,2.4C412.1,3.3,412.1,0.9,410.5,0.9z"/>
				<path class="st10" d="M477.7,83.7c-1.6,0-1.6,2.4,0,2.4C479.3,86.2,479.3,83.7,477.7,83.7z"/>
				<path class="st10" d="M336.1,134.6c-1.6,0-1.6,2.4,0,2.4C337.6,137.1,337.6,134.6,336.1,134.6z"/>
				<path class="st10" d="M409.6,85.5c-1.6,0-1.6,2.4,0,2.4C411.2,88,411.2,85.5,409.6,85.5z"/>
				<path class="st10" d="M333.6,17.5c-1.6,0-1.6,2.4,0,2.4S335.2,17.5,333.6,17.5z"/>
				<path class="st10" d="M300.1,91.7c-1.6,0-1.6,2.4,0,2.4S301.7,91.7,300.1,91.7z"/>
				<path class="st10" d="M270.8,39.4c-1.6,0-1.6,2.4,0,2.4C272.4,41.9,272.4,39.4,270.8,39.4z"/>
				<path class="st10" d="M215.2,242.2c-1.1,0-1.1,1.7,0,1.7S216.3,242.2,215.2,242.2z"/>
				<path class="st10" d="M332.4,179.1c-1.1,0-1.1,1.7,0,1.7C333.5,180.9,333.6,179.1,332.4,179.1z"/>
				<path class="st10" d="M301.3,187.1c-1.1,0-1.1,1.7,0,1.7S302.4,187.1,301.3,187.1z"/>
				<path class="st10" d="M148.6,94.1c-1.9,0-1.9,2.9,0,2.9S150.5,94.1,148.6,94.1z"/>
				<path class="st10" d="M98.3,17.2c-1.3,0-1.3,2,0,2C99.6,19.1,99.6,17.2,98.3,17.2z"/>
				<path class="st10" d="M285.1,0.2c-0.4-0.4-1-0.4-1.4,0c-0.2,0.2-0.4,0.4-0.6,0.6c-0.4,0.4-0.4,1,0,1.4s1,0.4,1.4,0
					c0.2-0.2,0.4-0.4,0.6-0.6C285.4,1.2,285.4,0.5,285.1,0.2z"/>
				<path class="st10" d="M183.6,59c-0.4-0.4-1-0.4-1.4,0c-0.2,0.2-0.4,0.4-0.6,0.6c-0.4,0.4-0.4,1,0,1.4s1,0.4,1.4,0
					c0.2-0.2,0.4-0.4,0.6-0.6C183.9,60,183.9,59.3,183.6,59z"/>
				<path class="st10" d="M121.3,169.8c-2.2,0-2.2,3.4,0,3.4S123.5,169.8,121.3,169.8z"/>
				<path class="st10" d="M250,208.6c-2.2,0-2.2,3.4,0,3.4S252.2,208.6,250,208.6z"/>
				<path class="st10" d="M183.1,281c-2.2,0-2.2,3.4,0,3.4C185.3,284.5,185.3,281,183.1,281z"/>
				<path class="st10" d="M322.5,164.7c-2.2,0-2.2,3.4,0,3.4C324.7,168.1,324.7,164.7,322.5,164.7z"/>
				<path class="st10" d="M400.1,102.2c-2.2,0-2.2,3.4,0,3.4C402.3,105.7,402.3,102.2,400.1,102.2z"/>
				<path class="st10" d="M318.2,28.9c-2.2,0-2.2,3.4,0,3.4C320.4,32.4,320.4,28.9,318.2,28.9z"/>
				<path class="st10" d="M43.9,44.6c-2.2,0-2.2,3.4,0,3.4C46.1,48,46.1,44.6,43.9,44.6z"/>
				<path class="st10" d="M128.9,67.2h-0.7c-0.3,0-0.6,0.1-0.9,0.4c-0.2,0.2-0.4,0.6-0.4,0.9c0,0.7,0.5,1.2,1.2,1.2h0.7
					c0.3,0,0.6-0.1,0.9-0.4c0.2-0.2,0.4-0.6,0.4-0.9C130.1,67.8,129.6,67.2,128.9,67.2z"/>
				<path class="st10" d="M19.1,18.1h-0.7c-0.3,0-0.6,0.1-0.9,0.4c-0.2,0.2-0.4,0.6-0.4,0.9c0,0.7,0.5,1.2,1.2,1.2H19
					c0.3,0,0.6-0.1,0.9-0.4c0.2-0.2,0.4-0.6,0.4-0.9C20.3,18.7,19.8,18.1,19.1,18.1z"/>
				<path class="st10" d="M46.6,141.5h-0.7c-0.3,0-0.6,0.1-0.9,0.4c-0.2,0.2-0.4,0.6-0.4,0.9c0,0.7,0.5,1.2,1.2,1.2h0.7
					c0.3,0,0.6-0.1,0.9-0.4c0.2-0.2,0.4-0.6,0.4-0.9C47.8,142,47.3,141.5,46.6,141.5z"/>
				<path class="st10" d="M570.7,108.2H570c-0.3,0-0.6,0.1-0.9,0.4c-0.2,0.2-0.4,0.6-0.4,0.9c0,0.7,0.5,1.2,1.2,1.2h0.7
					c0.3,0,0.6-0.1,0.9-0.4c0.2-0.2,0.4-0.6,0.4-0.9C571.9,108.8,571.3,108.2,570.7,108.2z"/>
				<path class="st10" d="M524.4-2.4h-0.7c-0.3,0-0.6,0.1-0.9,0.4c-0.2,0.2-0.4,0.6-0.4,0.9c0,0.7,0.5,1.2,1.2,1.2h0.7
					c0.3,0,0.6-0.1,0.9-0.4c0.2-0.2,0.4-0.6,0.4-0.9C525.6-1.9,525.1-2.4,524.4-2.4z"/>
				<path class="st10" d="M524.4,60h-0.7c-0.3,0-0.6,0.1-0.9,0.4c-0.2,0.2-0.4,0.6-0.4,0.9c0,0.7,0.5,1.2,1.2,1.2h0.7
					c0.3,0,0.6-0.1,0.9-0.4c0.2-0.2,0.4-0.6,0.4-0.9C525.6,60.6,525.1,60,524.4,60z"/>
				<path class="st10" d="M493.6,206.2h-0.7c-0.3,0-0.6,0.1-0.9,0.4c-0.2,0.2-0.4,0.6-0.4,0.9c0,0.7,0.5,1.2,1.2,1.2h0.7
					c0.3,0,0.6-0.1,0.9-0.4c0.2-0.2,0.4-0.6,0.4-0.9C494.7,206.7,494.2,206.2,493.6,206.2z"/>
				<path class="st10" d="M229.5,114.1c-0.3-0.3-0.6-0.4-1-0.4H228c-0.4,0-0.8,0.2-1,0.4c-0.3,0.3-0.4,0.7-0.4,1
					c0,0.4,0.1,0.8,0.4,1c0.3,0.3,0.6,0.4,1,0.4h0.5c0.4,0,0.8-0.2,1-0.4c0.3-0.3,0.4-0.7,0.4-1
					C229.9,114.8,229.8,114.4,229.5,114.1z"/>
				<path class="st10" d="M285.4,127.8c-0.3-0.3-0.6-0.4-1-0.4h-0.5c-0.4,0-0.8,0.2-1,0.4c-0.3,0.3-0.4,0.7-0.4,1
					c0,0.4,0.1,0.8,0.4,1c0.3,0.3,0.6,0.4,1,0.4h0.5c0.4,0,0.8-0.2,1-0.4c0.3-0.3,0.4-0.7,0.4-1C285.8,128.4,285.6,128,285.4,127.8z
					"/>
				<path class="st10" d="M285.4,81.2c-0.3-0.3-0.6-0.4-1-0.4h-0.5c-0.4,0-0.8,0.2-1,0.4c-0.3,0.3-0.4,0.7-0.4,1
					c0,0.4,0.1,0.8,0.4,1c0.3,0.3,0.6,0.4,1,0.4h0.5c0.4,0,0.8-0.2,1-0.4c0.3-0.3,0.4-0.7,0.4-1C285.8,81.9,285.6,81.5,285.4,81.2z"
					/>
				<path class="st10" d="M21.7,203.2c-0.3-0.3-0.6-0.4-1-0.4h-0.5c-0.4,0-0.8,0.2-1,0.4c-0.3,0.3-0.4,0.7-0.4,1
					c0,0.4,0.1,0.8,0.4,1c0.3,0.3,0.6,0.4,1,0.4h0.5c0.4,0,0.8-0.2,1-0.4c0.3-0.3,0.4-0.7,0.4-1S22,203.5,21.7,203.2z"/>
				<path class="st10" d="M217.7,15c-1.4,0-1.4,2.2,0,2.2C219.2,17.2,219.2,15,217.7,15z"/>
				<path class="st10" d="M147.7,32.1c-1.4,0-1.4,2.2,0,2.2C149.1,34.3,149.1,32.1,147.7,32.1z"/>
				<path class="st10" d="M173.1-7c-1.4,0-1.4,2.2,0,2.2S174.5-7,173.1-7z"/>
				<path class="st10" d="M106.8,115.9c-0.9,0-0.9,1.5,0,1.5C107.7,117.4,107.7,115.9,106.8,115.9z"/>
				<path class="st10" d="M197.5,92.9c-0.9,0-0.9,1.5,0,1.5S198.4,92.9,197.5,92.9z"/>
				<path class="st10" d="M234.1,47.6c-0.9,0-0.9,1.5,0,1.5C235.1,49.1,235.1,47.6,234.1,47.6z"/>
				<path class="st10" d="M2.8,99.4c-0.9,0-0.9,1.5,0,1.5C3.7,100.8,3.7,99.4,2.8,99.4z"/>
				<path class="st10" d="M167.1,131.8c-0.9,0-0.9,1.5,0,1.5C168.1,133.3,168.1,131.8,167.1,131.8z"/>
				<path class="st10" d="M165.2,179.3c-0.9,0-0.9,1.5,0,1.5C166.1,180.7,166.1,179.3,165.2,179.3z"/>
				<path class="st10" d="M152.2,163.3c-0.9,0-0.9,1.5,0,1.5C153.2,164.8,153.2,163.3,152.2,163.3z"/>
				<path class="st10" d="M156.5,243.2c-0.9,0-0.9,1.5,0,1.5C157.5,244.7,157.5,243.2,156.5,243.2z"/>
				<path class="st10" d="M56.8,84.6c-0.9,0-0.9,1.5,0,1.5C57.8,86.1,57.8,84.6,56.8,84.6z"/>
				<path class="st10" d="M67.4,7.8c-0.9,0-0.9,1.5,0,1.5C68.4,9.3,68.4,7.8,67.4,7.8z"/>
				<path class="st10" d="M396.2,43.9c-0.9,0-0.9,1.5,0,1.5C397.2,45.3,397.2,43.9,396.2,43.9z"/>
				<path class="st10" d="M461.2,34.7c-0.9,0-0.9,1.5,0,1.5C462.2,36.1,462.2,34.7,461.2,34.7z"/>
				<path class="st10" d="M454.8,12.4c-0.9,0-0.9,1.5,0,1.5C455.7,13.9,455.7,12.4,454.8,12.4z"/>
				<path class="st10" d="M367.8,52.9c-0.9,0-0.9,1.5,0,1.5C368.7,54.3,368.7,52.9,367.8,52.9z"/>
				<path class="st10" d="M335.5,31.1c-0.9,0-0.9,1.5,0,1.5C336.4,32.5,336.4,31.1,335.5,31.1z"/>
				<path class="st10" d="M360.3,4.8c-0.9,0-0.9,1.5,0,1.5C361.2,6.2,361.2,4.8,360.3,4.8z"/>
				<path class="st10" d="M276.5,8.6c-0.9,0-0.9,1.5,0,1.5C277.5,10,277.5,8.6,276.5,8.6z"/>
				<path class="st10" d="M20,243.1c-0.9,0-0.9,1.5,0,1.5C20.9,244.5,20.9,243.1,20,243.1z"/>
				<path class="st10" d="M338,74.2c-0.9,0-0.9,1.5,0,1.5S338.9,74.2,338,74.2z"/>
				<path class="st10" d="M465.2,181.3c-0.9,0-0.9,1.5,0,1.5C466.2,182.8,466.2,181.3,465.2,181.3z"/>
				<path class="st10" d="M543.1,343.7c-0.9,0-0.9,1.5,0,1.5C544.1,345.1,544.1,343.7,543.1,343.7z"/>
				<path class="st10" d="M492.1,270.4c-0.9,0-0.9,1.5,0,1.5C493.1,271.8,493.1,270.4,492.1,270.4z"/>
				<path class="st10" d="M360.3,181.2c-0.9,0-0.9,1.5,0,1.5C361.2,182.7,361.2,181.2,360.3,181.2z"/>
				<path class="st10" d="M428.2,179.3c-0.9,0-0.9,1.5,0,1.5C429.1,180.7,429.1,179.3,428.2,179.3z"/>
				<path class="st10" d="M548.9,215c-0.9,0-0.9,1.5,0,1.5C549.8,216.5,549.8,215,548.9,215z"/>
				<path class="st10" d="M390.8,148.2c-0.9,0-0.9,1.5,0,1.5C391.7,149.7,391.7,148.2,390.8,148.2z"/>
				<path class="st10" d="M338.3,103.7c-0.9,0-0.9,1.5,0,1.5C339.3,105.1,339.3,103.7,338.3,103.7z"/>
				<g>
					<path class="st10" d="M572.6,176.5c1.1,0,1.1-1.7,0-1.7S571.5,176.5,572.6,176.5L572.6,176.5z"/>
				</g>
				<g>
					<path class="st10" d="M576.9,246.7c1.1,0,1.1-1.7,0-1.7C575.8,245,575.8,246.7,576.9,246.7L576.9,246.7z"/>
				</g>
				<g>
					<path class="st10" d="M465.5,253.4c1.1,0,1.1-1.7,0-1.7S464.4,253.4,465.5,253.4L465.5,253.4z"/>
				</g>
				<g>
					<path class="st10" d="M540.5,111.5c1.1,0,1.1-1.7,0-1.7S539.4,111.5,540.5,111.5L540.5,111.5z"/>
				</g>
				<g>
					<path class="st10" d="M551.9,121.7c1.1,0,1.1-1.7,0-1.7C550.8,120,550.8,121.7,551.9,121.7L551.9,121.7z"/>
				</g>
				<g>
					<path class="st10" d="M581.2,15.8c1.1,0,1.1-1.7,0-1.7C580.1,14.1,580.1,15.8,581.2,15.8L581.2,15.8z"/>
				</g>
				<g>
					<path class="st10" d="M551,19c1.1,0,1.1-1.7,0-1.7S549.9,19,551,19L551,19z"/>
				</g>
				<path class="st10" d="M85.4,228.2c-1.6,0-1.6,2.4,0,2.4C87,230.6,87,228.2,85.4,228.2z"/>
				<path class="st10" d="M363.7,295c1.7,0,1.7-2.7,0-2.7S362,295,363.7,295z"/>
				<path class="st10" d="M579.9,331.3c2.8,0,2.8-4.4,0-4.4C577.1,326.9,577.1,331.3,579.9,331.3z"/>
				<path class="st10" d="M428.3,256c2.2,0,2.2-3.4,0-3.4C426.1,252.6,426.1,256,428.3,256z"/>
				<path class="st10" d="M41,294.7c2.4,0,2.4-3.7,0-3.7S38.6,294.7,41,294.7z"/>
				<path class="st10" d="M80.1,320.6c1.1,0,1.1-1.7,0-1.7S79,320.6,80.1,320.6z"/>
				<path class="st10" d="M213.4,340.1c1.1,0,1.1-1.7,0-1.7C212.3,338.3,212.3,340.1,213.4,340.1z"/>
				<path class="st10" d="M380,254.9c1.1,0,1.1-1.7,0-1.7S378.9,254.9,380,254.9z"/>
				<path class="st10" d="M398.7,318.8c1.1,0,1.1-1.7,0-1.7C397.6,317.1,397.6,318.8,398.7,318.8z"/>
				<path class="st10" d="M106.4,376.3c1.6,0,1.6-2.4,0-2.4S104.8,376.3,106.4,376.3z"/>
				<path class="st10" d="M140.1,324.2c1.6,0,1.6-2.4,0-2.4C138.5,321.8,138.5,324.2,140.1,324.2z"/>
				<path class="st10" d="M174.5,374.5c1.6,0,1.6-2.4,0-2.4S172.9,374.5,174.5,374.5z"/>
				<path class="st10" d="M284,368.4c1.6,0,1.6-2.4,0-2.4C282.4,365.9,282.4,368.4,284,368.4z"/>
				<path class="st10" d="M368.9,217.8c1.1,0,1.1-1.7,0-1.7S367.8,217.8,368.9,217.8z"/>
				<path class="st10" d="M251.7,280.9c1.1,0,1.1-1.7,0-1.7C250.6,279.2,250.6,280.9,251.7,280.9z"/>
				<path class="st10" d="M177.6,230.6c1.1,0,1.1-1.7,0-1.7C176.5,228.9,176.5,230.6,177.6,230.6z"/>
				<path class="st10" d="M510.8,345.1c1.1,0,1.1-1.7,0-1.7C509.7,343.4,509.7,345.1,510.8,345.1z"/>
				<path class="st10" d="M282.8,272.9c1.1,0,1.1-1.7,0-1.7C281.7,271.2,281.7,272.9,282.8,272.9z"/>
				<path class="st10" d="M355.9,279c1.1,0,1.1-1.7,0-1.7S354.8,279,355.9,279z"/>
				<path class="st10" d="M340.9,300.1c1.1,0,1.1-1.7,0-1.7S339.8,300.1,340.9,300.1z"/>
				<path class="st10" d="M435.5,365.9c1.9,0,1.9-2.9,0-2.9S433.6,365.9,435.5,365.9z"/>
				<path class="st10" d="M462.8,290.3c2.2,0,2.2-3.4,0-3.4C460.6,286.8,460.6,290.3,462.8,290.3z"/>
				<path class="st10" d="M334.2,251.4c2.2,0,2.2-3.4,0-3.4S332,251.4,334.2,251.4z"/>
				<path class="st10" d="M261.6,295.4c2.2,0,2.2-3.4,0-3.4S259.4,295.4,261.6,295.4z"/>
				<path class="st10" d="M423.3,173.9c2.2,0,2.2-3.4,0-3.4C421.1,170.5,421.1,173.9,423.3,173.9z"/>
				<path class="st10" d="M537.5,318.6h0.7c0.3,0,0.6-0.1,0.9-0.4c0.2-0.2,0.4-0.6,0.4-0.9c0-0.7-0.5-1.2-1.2-1.2h-0.7
					c-0.3,0-0.6,0.1-0.9,0.4c-0.2,0.2-0.4,0.6-0.4,0.9C536.3,318,536.8,318.6,537.5,318.6z"/>
				<path class="st10" d="M13.5,351.9h0.7c0.3,0,0.6-0.1,0.9-0.4c0.2-0.2,0.4-0.6,0.4-0.9c0-0.7-0.5-1.2-1.2-1.2h-0.7
					c-0.3,0-0.6,0.1-0.9,0.4c-0.2,0.2-0.4,0.6-0.4,0.9C12.3,351.3,12.8,351.9,13.5,351.9z"/>
				<path class="st10" d="M90.6,253.9h0.7c0.3,0,0.6-0.1,0.9-0.4c0.2-0.2,0.4-0.6,0.4-0.9c0-0.7-0.5-1.2-1.2-1.2h-0.7
					c-0.3,0-0.6,0.1-0.9,0.4c-0.2,0.2-0.4,0.6-0.4,0.9C89.4,253.3,89.9,253.9,90.6,253.9z"/>
				<path class="st10" d="M354.6,345.9c0.3,0.3,0.6,0.4,1,0.4h0.5c0.4,0,0.8-0.2,1-0.4c0.3-0.3,0.4-0.7,0.4-1c0-0.4-0.1-0.8-0.4-1
					c-0.3-0.3-0.6-0.4-1-0.4h-0.5c-0.4,0-0.8,0.2-1,0.4c-0.3,0.3-0.4,0.7-0.4,1C354.2,345.3,354.3,345.7,354.6,345.9z"/>
				<path class="st10" d="M298.8,332.3c0.3,0.3,0.6,0.4,1,0.4h0.5c0.4,0,0.8-0.2,1-0.4c0.3-0.3,0.4-0.7,0.4-1c0-0.4-0.1-0.8-0.4-1
					c-0.3-0.3-0.6-0.4-1-0.4h-0.5c-0.4,0-0.8,0.2-1,0.4c-0.3,0.3-0.4,0.7-0.4,1C298.3,331.6,298.5,332,298.8,332.3z"/>
				<path class="st10" d="M562.4,256.8c0.3,0.3,0.6,0.4,1,0.4h0.5c0.4,0,0.8-0.2,1-0.4c0.3-0.3,0.4-0.7,0.4-1c0-0.4-0.1-0.8-0.4-1
					c-0.3-0.3-0.6-0.4-1-0.4h-0.5c-0.4,0-0.8,0.2-1,0.4c-0.3,0.3-0.4,0.7-0.4,1C562,256.1,562.2,256.5,562.4,256.8z"/>
				<path class="st10" d="M477.4,344.1c0.9,0,0.9-1.5,0-1.5C476.4,342.7,476.4,344.1,477.4,344.1z"/>
				<path class="st10" d="M417,328.3c0.9,0,0.9-1.5,0-1.5C416,326.8,416,328.3,417,328.3z"/>
				<path class="st10" d="M313.4,216.1c0.9,0,0.9-1.5,0-1.5C312.4,214.6,312.4,216.1,313.4,216.1z"/>
				<path class="st10" d="M427.6,216.8c0.9,0,0.9-1.5,0-1.5C426.6,215.4,426.6,216.8,427.6,216.8z"/>
				<path class="st10" d="M439.7,207.9c0.9,0,0.9-1.5,0-1.5C438.7,206.4,438.7,207.9,439.7,207.9z"/>
				<path class="st10" d="M447.6,232.3c0.9,0,0.9-1.5,0-1.5C446.6,230.8,446.6,232.3,447.6,232.3z"/>
				<path class="st10" d="M415.2,221.5c0.9,0,0.9-1.5,0-1.5C414.3,220.1,414.3,221.5,415.2,221.5z"/>
				<path class="st10" d="M282,159.7c0.9,0,0.9-1.5,0-1.5C281.1,158.3,281.1,159.7,282,159.7z"/>
				<path class="st10" d="M227,189.2c0.9,0,0.9-1.5,0-1.5C226,187.7,226,189.2,227,189.2z"/>
				<path class="st10" d="M436.1,223.7c0.9,0,0.9-1.5,0-1.5C435.1,222.2,435.1,223.7,436.1,223.7z"/>
				<path class="st10" d="M527.3,375.5c0.9,0,0.9-1.5,0-1.5C526.3,374,526.3,375.5,527.3,375.5z"/>
				<path class="st10" d="M118.9,278.7c0.9,0,0.9-1.5,0-1.5C117.9,277.2,117.9,278.7,118.9,278.7z"/>
				<path class="st10" d="M223.8,278.8c0.9,0,0.9-1.5,0-1.5C222.9,277.4,222.9,278.8,223.8,278.8z"/>
				<path class="st10" d="M171.6,283.5c0.9,0,0.9-1.5,0-1.5C170.7,282,170.7,283.5,171.6,283.5z"/>
				<path class="st10" d="M187.3,304.2c0.9,0,0.9-1.5,0-1.5C186.3,302.7,186.3,304.2,187.3,304.2z"/>
				<path class="st10" d="M180.2,335.5c0.9,0,0.9-1.5,0-1.5S179.3,335.5,180.2,335.5z"/>
				<path class="st10" d="M123.5,345.9c0.9,0,0.9-1.5,0-1.5C122.5,344.4,122.5,345.9,123.5,345.9z"/>
				<path class="st10" d="M11.5,283.5c-1.1,0-1.1,1.7,0,1.7S12.6,283.5,11.5,283.5L11.5,283.5z"/>
				<path class="st10" d="M43.6,348.5c-1.1,0-1.1,1.7,0,1.7C44.7,350.3,44.7,348.5,43.6,348.5L43.6,348.5z"/>
				<path class="st10" d="M32.2,338.3c-1.1,0-1.1,1.7,0,1.7C33.3,340.1,33.4,338.3,32.2,338.3L32.2,338.3z"/>
				<path class="st10" d="M498.7,231.9c1.6,0,1.6-2.4,0-2.4C497.2,229.4,497.2,231.9,498.7,231.9z"/>
			</g>
		</g>
		<g class="st0">
			<defs>
				<rect id="SVGID_18_" x="-15.3" y="-15.6" width="611.3" height="391.2"/>
			</defs>
			<clipPath id="SVGID_19_">
				<use xlink:href="#SVGID_18_"  style="overflow:visible;"/>
			</clipPath>
			<g class="st11">
				<g>
					<g>
						<defs>
							<polygon id="SVGID_20_" points="1,1 2,1 1,2 							"/>
						</defs>
						<defs>
							<polygon id="SVGID_21_" points="-1,-1 -2,-1 -1,-2 							"/>
						</defs>
						<clipPath id="SVGID_22_">
							<use xlink:href="#SVGID_20_"  style="overflow:visible;"/>
						</clipPath>
						<clipPath id="SVGID_23_" class="st12">
							<use xlink:href="#SVGID_21_"  style="overflow:visible;"/>
						</clipPath>
						
							<linearGradient id="SVGID_24_" gradientUnits="userSpaceOnUse" x1="184.5867" y1="-176.1337" x2="300.8624" y2="-176.1337" gradientTransform="matrix(0.9867 -0.1625 -0.1625 -0.9867 41.667 133.6394)">
							<stop  offset="1.675980e-02" style="stop-color:#000000"/>
							<stop  offset="0.7904" style="stop-color:#FFFFFF"/>
						</linearGradient>
						<polygon class="st13" points="373.5,297.1 245.3,234.2 372.3,302.1 						"/>
					</g>
				</g>
				
					<linearGradient id="SVGID_25_" gradientUnits="userSpaceOnUse" x1="184.5867" y1="-176.1337" x2="300.8624" y2="-176.1337" gradientTransform="matrix(0.9867 -0.1625 -0.1625 -0.9867 41.667 133.6394)">
					<stop  offset="1.675980e-02" style="stop-color:#0056FF"/>
					<stop  offset="0.7904" style="stop-color:#36A3FF"/>
				</linearGradient>
				<polygon class="st14" points="373.5,297.1 245.3,234.2 372.3,302.1 				"/>
				<ellipse class="st15" cx="372.9" cy="299.6" rx="2.6" ry="2.6"/>
			</g>
		</g>
		<g class="st0">
			<defs>
				<rect id="SVGID_26_" x="-15.3" y="-15.6" width="611.3" height="391.2"/>
			</defs>
			<clipPath id="SVGID_27_">
				<use xlink:href="#SVGID_26_"  style="overflow:visible;"/>
			</clipPath>
			<g class="st16">
				<g>
					<g>
						<defs>
							<polygon id="SVGID_28_" points="1,1 2,1 1,2 							"/>
						</defs>
						<defs>
							<polygon id="SVGID_29_" points="-1,-1 -2,-1 -1,-2 							"/>
						</defs>
						<clipPath id="SVGID_30_">
							<use xlink:href="#SVGID_28_"  style="overflow:visible;"/>
						</clipPath>
						<clipPath id="SVGID_31_" class="st17">
							<use xlink:href="#SVGID_29_"  style="overflow:visible;"/>
						</clipPath>
						
							<linearGradient id="SVGID_32_" gradientUnits="userSpaceOnUse" x1="-948.9984" y1="328.5028" x2="-867.3617" y2="328.5028" gradientTransform="matrix(0.9319 -0.3627 -0.3627 -0.9319 1070.3832 87.8169)">
							<stop  offset="1.675980e-02" style="stop-color:#000000"/>
							<stop  offset="0.7904" style="stop-color:#FFFFFF"/>
						</linearGradient>
						<polygon class="st18" points="157,132.4 50.6,84.1 156.8,139 						"/>
					</g>
				</g>
				
					<linearGradient id="SVGID_33_" gradientUnits="userSpaceOnUse" x1="-948.9984" y1="328.5028" x2="-867.3617" y2="328.5028" gradientTransform="matrix(0.9319 -0.3627 -0.3627 -0.9319 1070.3832 87.8169)">
					<stop  offset="1.675980e-02" style="stop-color:#0056FF"/>
					<stop  offset="0.7904" style="stop-color:#36A3FF"/>
				</linearGradient>
				<polygon class="st19" points="157,132.4 50.6,84.1 156.8,139 				"/>
				<circle class="st20" cx="156.9" cy="135.7" r="3.3"/>
			</g>
		</g>
		<g class="st0">
			<defs>
				<rect id="SVGID_34_" x="-15.3" y="-15.6" width="611.3" height="391.2"/>
			</defs>
			<clipPath id="SVGID_35_">
				<use xlink:href="#SVGID_34_"  style="overflow:visible;"/>
			</clipPath>
			<g class="st21">
				<g>
					<g>
						<defs>
							<polygon id="SVGID_36_" points="1,1 2,1 1,2 							"/>
						</defs>
						<defs>
							<polygon id="SVGID_37_" points="-1,-1 -2,-1 -1,-2 							"/>
						</defs>
						<clipPath id="SVGID_38_">
							<use xlink:href="#SVGID_36_"  style="overflow:visible;"/>
						</clipPath>
						<clipPath id="SVGID_39_" class="st22">
							<use xlink:href="#SVGID_37_"  style="overflow:visible;"/>
						</clipPath>
						
							<linearGradient id="SVGID_40_" gradientUnits="userSpaceOnUse" x1="359.2717" y1="-61.2845" x2="475.5474" y2="-61.2845" gradientTransform="matrix(0.9867 -0.1625 -0.1625 -0.9867 41.667 133.6394)">
							<stop  offset="1.675980e-02" style="stop-color:#000000"/>
							<stop  offset="0.7904" style="stop-color:#FFFFFF"/>
						</linearGradient>
						<polygon class="st23" points="527.2,155.4 399,92.5 525.9,160.4 						"/>
					</g>
				</g>
				
					<linearGradient id="SVGID_41_" gradientUnits="userSpaceOnUse" x1="359.2717" y1="-61.2845" x2="475.5474" y2="-61.2845" gradientTransform="matrix(0.9867 -0.1625 -0.1625 -0.9867 41.667 133.6394)">
					<stop  offset="1.675980e-02" style="stop-color:#0056FF"/>
					<stop  offset="0.7904" style="stop-color:#36A3FF"/>
				</linearGradient>
				<polygon class="st24" points="527.2,155.4 399,92.5 525.9,160.4 				"/>
				<path class="st25" d="M529.1,157.5c0.2,1.4-0.7,2.7-2.1,3c-1.4,0.2-2.7-0.7-3-2.1c-0.2-1.4,0.7-2.7,2.1-3
					C527.6,155.1,528.9,156.1,529.1,157.5z"/>
			</g>
		</g>
		<g class="st0">
			<defs>
				<rect id="SVGID_42_" x="-15.3" y="-15.6" width="611.3" height="391.2"/>
			</defs>
			<clipPath id="SVGID_43_">
				<use xlink:href="#SVGID_42_"  style="overflow:visible;"/>
			</clipPath>
			<g class="st26">
				<g>
					<g>
						<defs>
							<polygon id="SVGID_44_" points="1,1 2,1 1,2 							"/>
						</defs>
						<defs>
							<polygon id="SVGID_45_" points="-1,-1 -2,-1 -1,-2 							"/>
						</defs>
						<clipPath id="SVGID_46_">
							<use xlink:href="#SVGID_44_"  style="overflow:visible;"/>
						</clipPath>
						<clipPath id="SVGID_47_" class="st27">
							<use xlink:href="#SVGID_45_"  style="overflow:visible;"/>
						</clipPath>
						
							<linearGradient id="SVGID_48_" gradientUnits="userSpaceOnUse" x1="186.0054" y1="-89.9654" x2="253.625" y2="-89.9654" gradientTransform="matrix(0.9867 -0.1625 -0.1625 -0.9867 41.667 133.6394)">
							<stop  offset="1.675980e-02" style="stop-color:#000000"/>
							<stop  offset="0.7904" style="stop-color:#FFFFFF"/>
						</linearGradient>
						<polygon class="st28" points="309.8,201 236,169 309,204.6 						"/>
					</g>
				</g>
				
					<linearGradient id="SVGID_49_" gradientUnits="userSpaceOnUse" x1="186.0054" y1="-89.9654" x2="253.625" y2="-89.9654" gradientTransform="matrix(0.9867 -0.1625 -0.1625 -0.9867 41.667 133.6394)">
					<stop  offset="1.675980e-02" style="stop-color:#0056FF"/>
					<stop  offset="0.7904" style="stop-color:#36A3FF"/>
				</linearGradient>
				<polygon class="st29" points="309.8,201 236,169 309,204.6 				"/>
				<path class="st15" d="M311.2,202.5c0.2,1-0.5,1.9-1.5,2.1c-1,0.2-1.9-0.5-2.1-1.5s0.5-1.9,1.5-2.1
					C310.1,200.9,311.1,201.5,311.2,202.5z"/>
			</g>
		</g>
		<g class="st0">
			<defs>
				<rect id="SVGID_50_" x="-15.3" y="-15.6" width="611.3" height="391.2"/>
			</defs>
			<clipPath id="SVGID_51_">
				<use xlink:href="#SVGID_50_"  style="overflow:visible;"/>
			</clipPath>
			<g class="st30">
				<g>
					<g>
						<defs>
							<polygon id="SVGID_52_" points="1,1 2,1 1,2 							"/>
						</defs>
						<defs>
							<polygon id="SVGID_53_" points="-1,-1 -2,-1 -1,-2 							"/>
						</defs>
						<clipPath id="SVGID_54_">
							<use xlink:href="#SVGID_52_"  style="overflow:visible;"/>
						</clipPath>
						<clipPath id="SVGID_55_" class="st31">
							<use xlink:href="#SVGID_53_"  style="overflow:visible;"/>
						</clipPath>
						
							<linearGradient id="SVGID_56_" gradientUnits="userSpaceOnUse" x1="297.5916" y1="-126.9799" x2="381.5828" y2="-126.9799" gradientTransform="matrix(0.9867 -0.1625 -0.1625 -0.9867 41.667 133.6394)">
							<stop  offset="1.675980e-02" style="stop-color:#000000"/>
							<stop  offset="0.7904" style="stop-color:#FFFFFF"/>
						</linearGradient>
						<polygon class="st32" points="443.4,224.8 350.9,180 442.6,227.7 						"/>
					</g>
				</g>
				
					<linearGradient id="SVGID_57_" gradientUnits="userSpaceOnUse" x1="297.5916" y1="-126.9799" x2="381.5828" y2="-126.9799" gradientTransform="matrix(0.9867 -0.1625 -0.1625 -0.9867 41.667 133.6394)">
					<stop  offset="1.675980e-02" style="stop-color:#0056FF"/>
					<stop  offset="0.7904" style="stop-color:#36A3FF"/>
				</linearGradient>
				<polygon class="st33" points="443.4,224.8 350.9,180 442.6,227.7 				"/>
				<path class="st34" d="M444.5,226c0.1,0.8-0.4,1.6-1.2,1.7s-1.6-0.4-1.7-1.2s0.4-1.6,1.2-1.7S444.4,225.2,444.5,226z"/>
			</g>
		</g>
		<g class="st0">
			<defs>
				<rect id="SVGID_58_" x="-15.3" y="-15.6" width="611.3" height="391.2"/>
			</defs>
			<clipPath id="SVGID_59_">
				<use xlink:href="#SVGID_58_"  style="overflow:visible;"/>
			</clipPath>
			<g class="st35">
				<g>
					<g>
						<defs>
							<polygon id="SVGID_60_" points="1,1 2,1 1,2 							"/>
						</defs>
						<defs>
							<polygon id="SVGID_61_" points="-1,-1 -2,-1 -1,-2 							"/>
						</defs>
						<clipPath id="SVGID_62_">
							<use xlink:href="#SVGID_60_"  style="overflow:visible;"/>
						</clipPath>
						<clipPath id="SVGID_63_" class="st36">
							<use xlink:href="#SVGID_61_"  style="overflow:visible;"/>
						</clipPath>
						
							<linearGradient id="SVGID_64_" gradientUnits="userSpaceOnUse" x1="59.3046" y1="-187.7548" x2="119.979" y2="-187.7548" gradientTransform="matrix(0.9867 -0.1625 -0.1625 -0.9867 41.667 133.6394)">
							<stop  offset="1.675980e-02" style="stop-color:#000000"/>
							<stop  offset="0.7904" style="stop-color:#FFFFFF"/>
						</linearGradient>
						<polygon class="st37" points="194.2,321.5 126.5,283.8 193.3,325.1 						"/>
					</g>
				</g>
				
					<linearGradient id="SVGID_65_" gradientUnits="userSpaceOnUse" x1="59.3046" y1="-187.7548" x2="119.979" y2="-187.7548" gradientTransform="matrix(0.9867 -0.1625 -0.1625 -0.9867 41.667 133.6394)">
					<stop  offset="1.675980e-02" style="stop-color:#0056FF"/>
					<stop  offset="0.7904" style="stop-color:#36A3FF"/>
				</linearGradient>
				<polygon class="st38" points="194.2,321.5 126.5,283.8 193.3,325.1 				"/>
				<path class="st15" d="M195.6,323c0.2,1-0.5,1.9-1.5,2.1s-1.9-0.5-2.1-1.5s0.5-1.9,1.5-2.1C194.4,321.3,195.4,322,195.6,323z"/>
			</g>
		</g>
		<g class="st0">
			<defs>
				<rect id="SVGID_66_" x="-15.3" y="-15.6" width="611.3" height="391.2"/>
			</defs>
			<clipPath id="SVGID_67_">
				<use xlink:href="#SVGID_66_"  style="overflow:visible;"/>
			</clipPath>
			<g class="st39">
				
					<radialGradient id="SVGID_68_" cx="-4014.3057" cy="1046.4894" r="61.519" gradientTransform="matrix(-0.9124 -0.4094 0.4094 -0.9124 -3981.8638 -482.1904)" gradientUnits="userSpaceOnUse">
					<stop  offset="0" style="stop-color:#E8F8FF"/>
					<stop  offset="6.544261e-02" style="stop-color:#E9F5F8"/>
					<stop  offset="0.1632" style="stop-color:#ECECE3"/>
					<stop  offset="0.2812" style="stop-color:#F1DFC2"/>
					<stop  offset="0.4138" style="stop-color:#F8CC94"/>
					<stop  offset="0.5202" style="stop-color:#FFBA6A"/>
					<stop  offset="0.9832" style="stop-color:#E55B45"/>
				</radialGradient>
				<path class="st40" d="M43.7,200c-2,4.4-2.9,8.9-3,13.4c0,1.6,0.1,3.3,0.3,4.9c0.5,3.7,1.6,7.3,3.2,10.6c0.4,0.9,0.9,1.7,1.4,2.6
					c2.8,4.6,6.6,8.6,11.4,11.5c1.2,0.7,2.5,1.4,3.8,2l0,0c10.9,4.9,23.1,3.6,32.4-2.5c0.7-0.4,1.4-0.9,2-1.4
					c4.4-3.3,8.1-7.8,10.6-13.3c0.2-0.3,0.3-0.7,0.4-1c0.5-1.3,1-2.6,1.4-4c2.7-9.8,0.8-20.1-4.8-28.2c-0.7-1-1.4-2-2.3-2.9
					c-3.2-3.7-7.2-6.8-11.9-8.9c-0.5-0.2-1-0.4-1.5-0.6c-1-0.4-2-0.7-3-1c-9-2.6-18.5-1.3-26.3,3.1c-1.2,0.7-2.3,1.4-3.4,2.2
					C49.9,189.9,46.1,194.5,43.7,200z"/>
				<path class="st41" d="M40.7,213.4c0,1.6,0.1,3.3,0.3,4.9c3.4-1.8,8.2-5.3,13.2-6.9c12.7-4,24.5,1.5,37.1-3.1
					c8.8-3.2,10.8-8.6,11.6-13.7c-0.7-1-1.4-2-2.3-2.9c-2.1,10.1-8.5,12.1-14.8,15c-7.1,3.3-19.8-2.9-29.2-0.9
					C52.2,206.7,45.9,210,40.7,213.4z"/>
				<path class="st41" d="M54.5,186.5c4.8,3.8,13.7,7.7,22.1,7.8c9.1,0.1,10.3-5.9,10.6-12.1c-1-0.4-2-0.7-3-1c0,3-0.8,6.8-6.2,9.7
					c-6.3,3.4-15.4-2.8-20.1-6.6C56.7,185,55.6,185.7,54.5,186.5z"/>
				
					<ellipse transform="matrix(0.964 -0.2659 0.2659 0.964 -49.9353 32.5646)" class="st10" cx="95.3" cy="200.7" rx="3.4" ry="5.1"/>
				
					<ellipse transform="matrix(0.964 -0.2659 0.2659 0.964 -52.7136 33.0276)" class="st10" cx="95.6" cy="211.2" rx="1.7" ry="2.5"/>
				<path class="st41" d="M44.1,228.9c0.4,0.9,0.9,1.7,1.4,2.6c1.8-2,4.6-4,9.4-3.5c9.5,1,19.9,7.8,29.6,3.1s8.4-6.6,15.6-6.3
					c2.7,0.1,4.7,1,6.2,2.2c0.5-1.3,1-2.6,1.4-4c-2.1-1.4-6.7-2.9-15.7,0.2c-13.6,4.8-24.2,3-31.8,1.5
					C56,223.8,49.4,226.3,44.1,228.9z"/>
				<path class="st41" d="M56.9,243c1.2,0.7,2.5,1.4,3.8,2c3.7-1.6,8.9-3.6,12.9-4c7-0.6,14.2-2.5,19.5,1.5c0.7-0.4,1.4-0.9,2-1.4
					c-5-2-16.2-4.9-25-2.3C64.9,240.4,60.3,241.8,56.9,243z"/>
				<path class="st42" d="M45.7,199.7c-7.7,17.2-1.6,36.5,15.6,44.2c9.4,4.2,19.3,4.9,28,0.8c-6.2,0.9-12.6,0.1-18.8-2.6
					c-17.2-7.7-24.8-27.9-17.1-45c3.5-7.7,9.5-13.5,16.6-16.9C58.8,181.8,50.6,188.6,45.7,199.7z"/>
				<path class="st43" d="M121,240.2c-2.9,0-6.5-0.3-10.6-0.9c-11.4-1.7-26-5.7-41-11.1c-15-5.4-28.7-11.8-38.6-17.7
					c-4.9-3-8.6-5.7-11-8.1c-2.9-2.9-3.9-5.5-3.2-7.6c0.9-2.6,4.3-3.9,10.2-3.9c0.1,0,0.2,0,0.2,0c4.9,0,12.5,1,20.3,2.7l-2.1,2.8
					c-18-3.9-24.9-2.4-25.6-0.5c-0.5,1.3,1.7,5.2,12.8,12c9.7,5.9,23.2,12.1,38,17.5s29.2,9.3,40.4,11c12.8,1.9,17.1,0.3,17.5-1
					c0.7-1.9-3.7-7.5-20-16l0.2-3.4c7.2,3.8,13.7,7.7,17.5,10.9c4.5,3.8,6.2,6.9,5.3,9.5c-0.8,2.1-3.2,3.4-7.3,3.8
					C123.1,240.1,122.1,240.2,121,240.2z"/>
			</g>
		</g>
		<rect x="-15.3" y="-15.6" class="st4" width="611.3" height="391.2"/>
		<path class="st44" d="M290.3,87.8c-0.1,1.6-0.4,3.2-0.8,4.8c-0.5,2-1.1,3.9-1.9,5.7c-0.7,1.5-1.4,3-2.3,4.4
			c-0.5,0.8-1.1,1.6-1.6,2.4c-3.2,4.2-7.4,7.7-12.4,10.1c-1.3,0.6-2.6,1.1-4,1.6l0,0c-1.4,0.5-2.8,0.8-4.3,1.1l0,0
			c-2.2,0.4-4.3,0.6-6.5,0.6c-2.3,0-4.6-0.3-6.8-0.8c-2.9-0.6-5.7-1.6-8.3-3c-0.1,0-0.2-0.1-0.2-0.1c-1.9-1-3.7-2.2-5.4-3.5
			c-0.3-0.2-0.6-0.5-0.8-0.8c-1.4-1.3-2.8-2.8-4-4.4c-2.1-2.8-3.8-6.1-5-9.6c-0.1-0.3-0.2-0.7-0.3-1c-0.4-1.3-0.7-2.7-0.9-4
			c-1.6-9.9,1.4-19.8,7.7-27.1c0.8-0.9,1.6-1.8,2.5-2.6c3.5-3.3,7.8-5.9,12.6-7.4c0.5-0.2,1-0.3,1.6-0.5c1-0.3,2-0.5,3-0.7
			c6.4-1.1,12.8-0.4,18.5,2c0.2,0.1,0.4,0.2,0.6,0.3c2,0.9,4,1.9,5.8,3.2c0.2,0.1,0.4,0.3,0.6,0.4c0.5,0.3,0.9,0.7,1.4,1l0,0
			c0.2,0.2,0.4,0.4,0.6,0.5c1.6,1.5,3.1,3.1,4.4,4.9c0.9,1.2,1.7,2.4,2.4,3.7c1,1.8,1.8,3.7,2.4,5.7
			C290.3,78.8,290.7,83.4,290.3,87.8z"/>
		<path class="st45" d="M290.3,87.8c-0.1,1.6-0.4,3.2-0.8,4.8c-0.5,2-1.1,3.9-1.9,5.7c-0.7,1.5-1.4,3-2.3,4.4
			c-0.5,0.8-1.1,1.6-1.6,2.4c-3.2,4.2-7.4,7.7-12.4,10.1c-1.3,0.6-2.6,1.1-4,1.6l0,0c-1.4,0.5-2.8,0.8-4.3,1.1l0,0
			c-2.2,0.4-4.3,0.6-6.5,0.6c-2.3,0-4.6-0.3-6.8-0.8c-2.9-0.6-5.7-1.6-8.3-3c-0.1,0-0.2-0.1-0.2-0.1c0.9-0.3,1.8-0.5,2.5-1.1
			c1.5-1.3,1.3-4,2.8-5.4c1.6-1.4,4.1-0.6,6,0.5c1.9,1,4.2,2.1,6.1,1c1.6-1,1.9-3,2-4.8s0.2-3.8,1.4-5.1c1.5-1.5,3.9-1.3,6-1.1
			c2.1,0.2,4.5,0.2,5.9-1.4c1.5-1.8,0.7-4.4,0-6.6s-1.3-5,0.4-6.5c2.2-2.1,6.6-0.3,8.5-2.7c1.4-1.8,0.3-4.4,0.2-6.7
			c0-2.6,1.4-4.5,3.4-5.6c1,1.8,1.8,3.7,2.4,5.7C290.3,78.8,290.7,83.4,290.3,87.8z"/>
		<path class="st46" d="M290.6,85.1c0,4.6-1,9-2.7,13c-0.6,1.5-1.4,2.9-2.2,4.2c-1,1.7-2.2,3.3-3.5,4.7c-2.9-0.4-0.7-2.3-1.5-3.7
			c-0.8-1.5-0.3-3.6,1.3-6.3c1.6-2.7,1.6-3.9,2.2-6.6c0.5-2.7-0.5-4.8-2.3-7.1c-1.7-2.3-2.2,0.4-5.6,0c-3.5-0.4-0.7-1.5-0.9-4
			c-0.3-2.6-2.3-3.5-5.1-3.8c-2.8-0.3-3-0.1-3.8-2.8c-0.8-2.7,1.1-4.2,1.1-4.2l3-3.8c0,0,1.6-1.5,3.4-1.2c1.7,0.3,2.7,0.1,3.6-0.9
			c0.4-0.4,1.1-1.3,1.9-2.3c1.8,1.6,3.4,3.4,4.9,5.3c0.8,1.1,1.5,2.1,2.1,3.3C289.1,73.7,290.6,79.2,290.6,85.1z"/>
		<path class="st47" d="M259.5,109.6c-0.5,0.9-4.6,2.2-5,3.1s-2.2,3.7-1.3,4.9l0.1,0.1c-2.1-0.3-4.2-0.8-6.2-1.4
			c-0.3-0.3-0.6-0.5-0.9-0.8c-1.5-1.1-0.8-0.5-3.2-2.7s-2.2-1.9-3-4.4c-0.8-2.6,1.3-3.2,1.9-4.2c0.6-0.9,1.8-2.6,1.8-3.5
			s2.8-0.4,3.2-0.7c0.4-0.3,6.5,1.4,7,2.2c0.5,0.7,2.2-2,3.5,1.6C258.7,107.5,260,108.7,259.5,109.6z"/>
		<path class="st46" d="M264.8,80.9c-1.5,1.6-4,3.2-4.8,4.2s-2.8,1.6-2.7,2.8c0.2,1.2,1.6,3.2,1.9,3.9c0.2,0.6,3-3.4,4.8-0.5
			s2.9,5.9,3,6.4c0.1,0.4,0.6,3,2.5,2.2s4.2-0.8,5.4-1.5c1.2-0.7,2.5-0.2,3.4-3s3.5-5.4-0.1-5.8s-6.1,0.3-6.8-1.2
			c-0.6-1.5-1.2-2-1.4-3.8c-0.2-1.9-1.1-2.4-1.1-2.4L264.8,80.9z"/>
		<path class="st48" d="M289,74.1c-0.1,0-0.1,0-0.2,0c-2.2-3.4-5.4-6.2-9.2-7.8c-1.3-0.5-3-0.9-4,0.1c-1.4,1.4-0.4,4.5-2.2,5.4
			c-1.6,0.8-6-3.9-7.8-4c-1.9-0.1-3.2,2-3.1,3.9c0,1.9,0.1,6.5-3.5,9.2c-3.8,2.8-7.1-0.7-9,2.8c-1.1,2.1,1,5.5-0.7,7.3
			c-1.2,1.3-3.2,1.5-5,1.4s-3.6-0.5-5.4-0.1c-1.8,0.4-3.5,1.9-3.3,3.7c0.2,2.1,2.8,3.8,2.3,5.9c-0.2,1-1.2,1.7-1.6,2.6
			c-0.9,1.7,0,3.7,1,5.3c0.8,1.3,1.8,2.6,2.9,3.7c-2.6-1.5-4.9-3.3-7-5.4c-1.6-1.6-3-3.3-4.2-5.2c-0.2-0.3-0.4-0.6-0.6-1
			c-2.6-4.8-4.1-10.3-4.1-16.1c0-0.4,0-0.7,0-1.1c0-1.4,0.2-2.8,0.4-4.1c1.6-9.9,7.4-18.4,15.7-23.4c1-0.6,2.1-1.2,3.2-1.7
			c4.3-2,9.2-3.2,14.3-3.2c0.5,0,1.1,0,1.6,0c1,0.1,2.1,0.1,3.1,0.3c6.4,0.9,12.3,3.6,17,7.6c0.2,0.1,0.3,0.3,0.5,0.4
			c1.8,1.6,3.5,3.4,4.9,5.4c0.3,0.5,0.7,0.9,1,1.4l0,0c0.1,0.2,0.3,0.5,0.4,0.7C287.4,70,288.3,72,289,74.1z"/>
		<path class="st49" d="M277.1,58h-0.2c-0.9-1-2.5-0.7-3.8-1.3c-1.2-0.6-3.3-1.2-4.3-0.3c-1.7,1.5-0.6,3.7-2.7,4.5s-4-2-6.3-2.3
			c-2.4-0.2-4,2.5-4.7,4.8c-0.6,2.4-1.2,5.1-3.4,6.2c-2.4,1.1-7.6-1-9.2,1.2c-0.5,0.7-1.2,6.3-1.5,7.1c-1.7,4.6-6.6,0.8-9.3,5
			c-0.9,1.5,0.4,5.4-2.3,7.1c-3.8,2.3-0.2,6.8,0.9,11.1c0.3,1.3,0.8,2.6,0.8,3.9c0,0.2,0,0.3,0,0.5c-2.1-2.8-3.8-6.1-5-9.6
			c-0.1-0.3-0.2-0.7-0.3-1c-0.4-1.3-0.7-2.7-0.9-4c-1.6-9.9,1.4-19.8,7.7-27.1c0.8-0.9,1.6-1.8,2.5-2.6c3.5-3.3,7.8-5.9,12.6-7.4
			c0.5-0.2,1-0.3,1.6-0.5c1-0.3,2-0.5,3-0.7c6.4-1.1,12.8-0.4,18.5,2c0.2,0.1,0.4,0.2,0.6,0.3C273.3,55.7,275.3,56.8,277.1,58z"/>
		<path class="st50" d="M290.6,85.1c0,4.6-1,9-2.7,13c-0.6,1.5-1.4,2.9-2.2,4.2c-0.7,1.2-1.5,2.3-2.4,3.4c-0.9,0.2-1.9,0.2-2.8,0.1
			c-3.2-0.3-0.9-2.3-1.7-3.8c-0.8-1.5-0.3-3.6,1.3-6.3c1.6-2.7,1.6-3.9,2.2-6.6c0.5-2.7-0.5-4.8-2.3-7.1c-1.7-2.3-2.2,0.4-5.6,0
			c-3.5-0.4-0.7-1.5-0.9-4c-0.3-2.6-2.3-3.5-5.1-3.8c-2.8-0.3-3-0.1-3.8-2.8c-0.8-2.7,1.1-4.2,1.1-4.2l3-3.8c0,0,1.6-1.5,3.4-1.2
			c1.7,0.3,2.7,0.1,3.6-0.9c0.4-0.5,1.2-1.4,2.1-2.5c2.5,1.9,4.7,4.2,6.6,6.7c0.8,1.1,1.5,2.1,2.1,3.3
			C289.1,73.7,290.6,79.2,290.6,85.1z"/>
		<path class="st51" d="M252.1,73.6c-5.2,4.4-6.1,4.8-7,5.1c-0.9,0.3-0.8,0.5-2,1.5c-1.2,0.9-2.7,2.2-2.7,3.2c0,1.1-1.1,1.3-0.5,3.8
			c0.5,2.4,1.2,3.4,1.7,4.8c0.5,1.5,2.7,6.7,1.3,6.9c-1.3,0.1-3.1-2.3-3.2-3c-0.1-0.7-0.1,0.1-0.7-1.9c-0.5-2-0.8-2.4-2-3.1
			s-1.9-1.1-3.2-1.9s-1.5,1.7-3.4-3s-2.4-4-1.6-6.2c0.8-2.2,1.1-5.2,0.1-7.2c-0.1-0.1-0.1-0.2-0.2-0.3c2.7-6.1,7.3-11.3,12.9-14.7
			c1-0.6,2.1-1.2,3.2-1.7c2.1-1,4.2-1.7,6.5-2.3c-0.1,0.2-0.1,0.5-0.1,0.7c-0.1,2.8,2.8,3.1,2.2,5c-0.7,1.9-1.1,3.2-2.2,3.1
			c-1.1-0.1-4.4,1-5.4,2.2c-0.7,0.9-1.2,3.5-0.7,4.6c0.5,1,3,1.7,3.6,2.3C249.4,72.1,257.3,69.2,252.1,73.6z"/>
		<path class="st50" d="M250.9,72.8c-5.2,4.4-6.1,4.8-7,5.1c-0.9,0.3-0.8,0.5-2,1.5c-1.2,0.9-2.7,2.2-2.7,3.2c0,1.1-1.1,1.3-0.5,3.8
			c0.5,2.4,1.2,3.4,1.7,4.8c0.5,1.5,2.7,6.7,1.3,6.9c-1.3,0.1-3.1-2.3-3.2-3c-0.1-0.7-0.1,0.1-0.7-1.9c-0.5-2-0.8-2.4-2-3.1
			s-1.9-1.1-3.2-1.9s-1.5,1.7-3.4-3s-2.4-4-1.6-6.2c0.8-2.2,1.1-5.2,0.1-7.2c-0.1-0.1-0.1-0.2-0.2-0.3c2.7-6.1,7.3-11.3,12.9-14.7
			c1-0.6,2.1-1.2,3.2-1.7c2.1-1,4.2-1.7,6.5-2.3c-0.1,0.2-0.1,0.5-0.1,0.7c-0.1,2.8,2.8,3.1,2.2,5c-0.7,1.9-1.1,3.2-2.2,3.1
			c-1.1-0.1-4.4,1-5.4,2.2c-0.7,0.9-1.2,3.5-0.7,4.6c0.5,1,3,1.7,3.6,2.3C248.2,71.3,256.1,68.4,250.9,72.8z"/>
		<path class="st50" d="M257.7,108.4c-0.5,0.9-4.6,2.2-5,3.1s-2.2,3.7-1.3,4.9c0.4,0.5,0.7,0.8,0.9,1.2c-2.2-0.4-4.3-0.9-6.3-1.7
			c-0.5-0.6-0.9-1-1.6-1.6c-1.5-1.1-0.8-0.5-3.2-2.7s-2.2-1.9-3-4.4c-0.8-2.6,1.3-3.2,1.9-4.2c0.6-0.9,1.8-2.6,1.8-3.5
			s2.8-0.4,3.2-0.7c0.4-0.3,6.5,1.4,7,2.2c0.5,0.7,2.2-2,3.5,1.6C256.8,106.3,258.1,107.5,257.7,108.4z"/>
		<path class="st52" d="M289.7,84c0,18.2-13.8,32.9-32,32.9c-10,0-19-3.3-25-10.4c5.1,3.2,11.1,5.1,17.6,5.1c18.2,0,33-14.8,33-33
			c0-8.2-3-15.7-7.9-21.5C284.5,63,289.7,72.3,289.7,84z"/>
		<path class="st50" d="M262.9,79.7c-1.5,1.6-4,3.2-4.8,4.2s-2.8,1.6-2.7,2.8c0.2,1.2,1.6,3.2,1.9,3.9c0.2,0.6,3-3.4,4.8-0.5
			s2.9,5.9,3,6.4c0.1,0.4,0.6,3,2.5,2.2s4.2-0.8,5.4-1.5c1.2-0.7,2.5-0.2,3.4-3s3.5-5.4-0.1-5.8s-6.1,0.3-6.8-1.2s-1.2-2-1.4-3.8
			c-0.2-1.9-1.1-2.4-1.1-2.4L262.9,79.7z"/>
		<path class="st53" d="M271.3,54.8c-5.4-1.8-11.3-2.3-17.2-1.2c-1.1,0.2-2.1,0.4-3.2,0.7c-0.5,0.1-1.1,0.3-1.6,0.5
			c-5.1,1.7-9.6,4.4-13.3,7.8c-0.9,0.9-1.8,1.8-2.7,2.8c-6.2,7.2-9.4,16.9-8.3,26.6c-0.1-0.4-0.1-0.8-0.2-1.2
			c-1.6-9.9,1.4-19.8,7.7-27.1c0.8-0.9,1.6-1.8,2.5-2.6c3.5-3.3,7.8-5.9,12.6-7.4c0.5-0.2,1-0.3,1.6-0.5c1-0.3,2-0.5,3-0.7
			c6.4-1.1,12.8-0.4,18.5,2C270.9,54.6,271.1,54.7,271.3,54.8z"/>
		<g class="st0">
			<defs>
				<rect id="SVGID_69_" x="-15.3" y="-15.6" width="611.3" height="391.2"/>
			</defs>
			<clipPath id="SVGID_70_">
				<use xlink:href="#SVGID_69_"  style="overflow:visible;"/>
			</clipPath>
			<g class="st54">
				<g>
					<path class="st55" d="M414.6,47.5c-2.4,0-4.8,1.8-5.9,4.3c-0.9,1.9-3,6.3-2.8,8.3c0.1,0.6-0.2,9.8,2.4,10.8
						c1.5,0.6,2.4,2.3,4,1.6c1.6-0.7,3-2.2,4.7-2.6c1.4-0.3,2.9,0.2,4.3,0.2c4.5-0.1,3.1-5.4,5.8-8c1.2-1.1,2.7-1.8,3.4-3.3
						c0.5-1,0.5-2,0.1-3c-0.4-1.2-1.4-2.3-2.4-2.8c-1.9-1-4.1-1-6.1-1.8C419.6,50.2,417.4,47.6,414.6,47.5z"/>
					<path class="st56" d="M414.6,47.5c-2.4,0-4.8,1.8-5.9,4.3c-0.9,1.9-2.1,4.1-2.7,6.9c0.5-0.5,2.1-3,4.7-1.9
						c1.3,0.5,2.7,0.9,3.1,0.7c1-0.4-0.3-3.4,0.7-3.7c0.5-0.2,1.7,0.4,2.1-0.2c0.5-0.6-0.8-1.2,0.2-1.6c0.2-0.1,2.1-0.2,2.4-0.2
						c1.4,0.2,2.9,0.6,5.5,1.7s5.2,3.8,6.2,2.5c-0.4-1.2-1.4-2.3-2.4-2.8c-1.9-1-4.1-1-6.1-1.8C419.6,50.2,417.4,47.6,414.6,47.5z"
						/>
					<path class="st56" d="M423.2,55.1c0.2,0.6,0,1.5-0.6,1.9c-0.2,0.2-0.5,0.2-0.7,0.4c-0.3,0.3-0.5,0.8-0.8,1.1
						c-0.3,0.4-0.8,0.7-1.1,0.4c-0.2-0.2-0.2-0.5-0.3-0.8c-0.3-0.6-1.1-0.6-1.3-1.1c-0.2-0.4-0.1-0.9,0-1.4c0.2-0.8-0.5-1.5,0.3-2
						C419.3,53.3,423,54.5,423.2,55.1z"/>
					<path class="st56" d="M428,58c-0.4-0.1-0.8-0.3-1.2-0.4c-0.4-0.1-0.8-0.2-1.2-0.2c-0.4,0.1-0.8,0.4-1,0.8s0,1,0.3,1.2
						c0.4,0.2,1.1-0.2,1.4,0.1c0.2,0.2,0.2,0.7,0.4,0.9c0.2,0.1,0.5,0.1,0.7-0.1c0.2-0.2,0.4-0.4,0.6-0.5c0.3-0.2,0.6-0.4,0.9-0.5
						c0.3-0.2,0.6-0.4,0.7-0.8C430,57.3,428.5,58.1,428,58z"/>
					<path class="st56" d="M422.2,65.6c-0.3,0-0.6-0.3-0.6-0.7c0-0.5,0.5-0.8,0.9-1.1c0.7-0.5,1.2-1.1,1.7-1.8
						c0.2-0.3,0.4-0.8,0.2-1.1c-0.1-0.2-0.4-0.2-0.6-0.2s-0.4,0.1-0.6,0s-0.4-0.3-0.3-0.5c0.1-0.3,0.4-0.4,0.7-0.4
						c0.6,0,1.1,0,1.6,0.3s0.8,0.9,0.6,1.5c-0.3,0.9-1.5,1.4-1.9,2.3C423.5,64.8,423,65.7,422.2,65.6z"/>
					<path class="st56" d="M417.1,68.1c-0.3-0.2-0.6-0.4-0.7-0.8s-0.2-0.8,0-1.1c0.2-0.3,0.6-0.5,0.9-0.7c0.8-0.7,0.9-2,0.6-3.1
						c-0.1-0.5-0.3-1-0.3-1.5s0.3-1.1,0.7-1.2c0.4-0.1,0.8,0.3,1.1,0.7c0.2,0.4,0.4,0.9,0.8,1.1c0.5,0.3,1.2,0.2,1.3,0.8
						c0.1,0.2,0,0.5-0.1,0.7c-0.3,0.7-1,1.3-1.4,1.9c-0.4,0.7-0.6,1.7-0.1,2.2c0.4,0.3,1,0.2,1.5,0.1s1.2,0,0.9,0.8
						c-0.3,0.5-1.1,0.7-1.6,0.8C419.4,69,418.2,68.7,417.1,68.1z"/>
					<path class="st56" d="M411.9,64.5c-0.4-0.2-0.7-0.7-1.1-0.8c-0.8-0.3-1.6,0.6-2.4,0.6c-0.6,0-1-0.4-1.3-1
						c-0.2-0.6-0.3-1.2-0.2-1.9c0-0.6,0.2-1.2,0.4-1.7c0.3-0.5,0.7-1,1.2-1.1c0.6-0.1,1.1,0.2,1.6,0.4c1.4,0.5,3,0.3,4.4-0.5
						c0.5-0.3,1.2-0.7,1.6-0.4s0.4,1.1,0.1,1.6c-0.7,1.2-1.7,1.3-2,2.7C414,63.5,413.1,65,411.9,64.5z"/>
					<path class="st56" d="M411.7,71.1c-0.6-0.1-1.2-0.6-1.7-1s-0.9-0.9-1.3-1.4c-0.4-0.6-0.8-1.4-0.4-2.1c0.3-0.6,1.1-0.7,1.6-0.6
						c0.6,0.1,1.1,0.5,1.7,0.6s1.4-0.1,1.9-0.5c0.3-0.2,0.6-0.5,0.9-0.5c0.4,0,0.6,0.7,0.6,1.2C415,68.7,413.8,71.6,411.7,71.1z"/>
				</g>
				<g>
					<path class="st55" d="M162.9,69.5c-0.2-1.3-1.5-2.4-3-2.8c-1.1-0.3-3.8-1-4.8-0.6c-0.3,0.1-5.4,0.9-5.7,2.5
						c-0.2,0.9-1,1.6-0.4,2.4s1.5,1.4,1.9,2.3c0.3,0.8,0.2,1.6,0.4,2.4c0.5,2.4,3.3,1.1,5,2.4c0.7,0.5,1.3,1.3,2.1,1.5
						c0.6,0.2,1.2,0,1.6-0.2c0.6-0.4,1.1-1,1.3-1.6c0.3-1.1,0.1-2.4,0.4-3.5C161.9,72.5,163.1,71.1,162.9,69.5z"/>
					<path class="st56" d="M162.9,69.5c-0.2-1.3-1.5-2.4-3-2.8c-1.1-0.3-2.5-0.7-4-0.7c0.3,0.2,1.9,0.8,1.6,2.3
						c-0.2,0.8-0.2,1.6-0.1,1.8c0.3,0.5,1.9-0.5,2.1,0c0.1,0.3,0,1,0.3,1.1c0.4,0.2,0.6-0.6,0.9,0c0.1,0.1,0.4,1.1,0.4,1.3
						c0,0.8,0,1.7-0.4,3.2c-0.3,1.5-1.5,3.2-0.7,3.6c0.6-0.4,1.1-1,1.3-1.6c0.3-1.1,0.1-2.4,0.4-3.5
						C161.9,72.5,163.1,71.1,162.9,69.5z"/>
					<path class="st56" d="M159.6,75c-0.3,0.2-0.8,0.1-1.1-0.1c-0.1-0.1-0.2-0.3-0.3-0.4c-0.2-0.2-0.5-0.2-0.7-0.3
						c-0.2-0.1-0.5-0.4-0.3-0.5c0.1-0.1,0.3-0.1,0.4-0.2c0.3-0.2,0.2-0.6,0.5-0.9c0.2-0.2,0.5-0.1,0.8-0.1c0.4,0,0.8-0.4,1.1,0
						C160.2,72.7,159.9,74.9,159.6,75z"/>
					<path class="st56" d="M158.5,78c0-0.2,0.1-0.5,0.1-0.7s0.1-0.5,0-0.7s-0.3-0.4-0.6-0.5s-0.6,0.1-0.6,0.3c0,0.3,0.2,0.6,0.1,0.8
						c-0.1,0.1-0.4,0.2-0.4,0.3c-0.1,0.1,0,0.3,0.1,0.4s0.2,0.2,0.4,0.3c0.2,0.1,0.3,0.3,0.4,0.4c0.1,0.2,0.3,0.3,0.5,0.3
						C159.1,79,158.5,78.2,158.5,78z"/>
					<path class="st56" d="M153.8,75.6c0-0.2,0.1-0.3,0.3-0.4c0.3,0,0.5,0.2,0.7,0.4c0.3,0.3,0.7,0.6,1.2,0.8c0.2,0.1,0.5,0.1,0.6,0
						s0.1-0.2,0-0.3c0-0.1-0.1-0.2-0.1-0.3c0-0.1,0.1-0.2,0.2-0.2c0.2,0,0.2,0.2,0.3,0.3c0.1,0.3,0.1,0.6,0,0.9s-0.4,0.5-0.8,0.5
						c-0.5-0.1-0.9-0.7-1.5-0.8C154.3,76.2,153.8,76.1,153.8,75.6z"/>
					<path class="st56" d="M151.9,73c0.1-0.2,0.2-0.4,0.4-0.5s0.4-0.2,0.6-0.1c0.2,0.1,0.3,0.3,0.5,0.4c0.5,0.4,1.2,0.3,1.7,0
						c0.3-0.1,0.5-0.3,0.8-0.3s0.6,0,0.7,0.3c0.1,0.2-0.1,0.5-0.2,0.7s-0.4,0.3-0.5,0.6c-0.1,0.3,0,0.7-0.3,0.8
						c-0.1,0.1-0.3,0-0.4,0c-0.4-0.1-0.8-0.4-1.2-0.6s-1-0.2-1.2,0.2c-0.1,0.2,0,0.5,0.1,0.8s0.1,0.7-0.3,0.6
						c-0.3-0.1-0.5-0.5-0.6-0.8C151.6,74.4,151.6,73.7,151.9,73z"/>
					<path class="st56" d="M153.3,69.8c0.1-0.2,0.3-0.4,0.3-0.7c0.1-0.4-0.5-0.8-0.6-1.2c-0.1-0.3,0.1-0.6,0.4-0.8
						c0.3-0.2,0.6-0.3,1-0.3c0.3,0,0.7,0,1,0.1s0.6,0.3,0.7,0.6c0.1,0.3,0,0.6,0,0.9c-0.1,0.8,0.1,1.7,0.7,2.3
						c0.2,0.3,0.5,0.6,0.4,0.9s-0.5,0.3-0.8,0.2c-0.7-0.3-0.9-0.8-1.7-0.8C154.1,70.9,153.1,70.5,153.3,69.8z"/>
					<path class="st56" d="M149.6,70.4c0-0.4,0.2-0.7,0.4-1s0.4-0.6,0.7-0.8c0.3-0.3,0.7-0.6,1.1-0.5c0.4,0.1,0.5,0.5,0.5,0.8
						s-0.2,0.7-0.2,1c0,0.4,0.2,0.7,0.5,1c0.1,0.1,0.3,0.3,0.3,0.4c0,0.2-0.3,0.4-0.6,0.4C151.3,72,149.6,71.6,149.6,70.4z"/>
				</g>
				<g>
					<path class="st55" d="M426.7,187.4c-0.9-0.1-1.8-1.2-2.6-2.4l0,0c-0.8-1.4-1.4-2.9-1.5-3.8c-0.4-2.8,2-8.7,5.2-9.5
						c1.8-0.5,3.6,0.7,5.5,1c1.4,0.2,1.9-0.3,3.3-0.1c0.8,0.2,1.9,1.1,2.7,2.1c0.6,0.8,1.1,1.7,0.9,2.4c-0.2,1.1-0.8,2-1.4,2.9
						c-1.2,2.1,0.9,5.8-1.8,6.6c-3.2,0.5-2.9,0.2-4.8,1.6C431.2,189,427.7,187.5,426.7,187.4z"/>
					<path class="st56" d="M424.1,185c-0.8-1.4-1.4-2.9-1.5-3.8c-0.4-2.8,2-8.7,5.2-9.5c1.8-0.5,3.6,0.7,5.5,1
						c1.4,0.2,1.9-0.3,3.3-0.1c0.8,0.2,1.9,1.1,2.7,2.1c-0.4-0.1-0.7-0.1-1.1,0c-1.4,0.4-2.4,1.3-3.9,1.5c-1.1,0.2-2.1-0.5-3.2-0.6
						c-1.5-0.1-3,1.2-3.1,2.7c-0.1,0.8,0.2,1.8-0.5,2.4c-0.5,0.4-1.3,0.3-1.9,0.5c-1,0.3-1.4,2.1-1.4,3.1
						C424,184.5,424,184.7,424.1,185z"/>
					<path class="st56" d="M426.8,182.9c-0.2,0.1-0.5,0.2-0.7,0.2s-0.5,0-0.7,0.1c-0.3,0.2-0.2,0.6-0.2,0.9c0,0.3,0.1,0.6,0.3,0.8
						c0.3,0.4,0.9,0.3,1.4,0.4c0.4,0.1,0.7,0.3,1,0.5c0.3,0.1,0.8,0.2,1.1,0c0.2-0.1,0.3-0.4,0.3-0.7s-0.2-0.5-0.5-0.6
						c-0.2-0.1-0.4-0.1-0.7-0.1c-0.8-0.1-0.2-0.7-0.3-1.1C428,182.6,427.3,182.7,426.8,182.9z"/>
					<path class="st56" d="M430.9,177c-0.5,0.1-1,0.4-1.3,0.8c-0.2,0.3-0.3,0.7-0.1,1.1c0.1,0.2,0.3,0.4,0.4,0.6
						c0.1,0.5-0.3,0.9-0.3,1.4s0.4,0.9,0.8,1.1c0.4,0.2,0.9,0.3,1.3,0.1s0.2-0.7,0.3-1.2c0.1-0.4,0.8-0.2,1.1-0.5
						c0.3-0.2,0.6-0.6,0.7-1c0-0.4-0.2-0.9-0.6-1c-0.2-0.1-0.5,0-0.8-0.1c-0.9-0.2,0-0.7-0.1-1C432.2,177.1,431.2,177,430.9,177z"/>
					<path class="st56" d="M437.4,174.9c0,0.5-0.2,0.9-0.2,1.3c-0.1,0.5,0,1,0.1,1.4c0,0.5,0,1-0.3,1.4s-0.9,0.6-1.3,0.3
						c-0.4-0.2-0.5-0.7-0.5-1.1c0-0.4,0-0.9-0.3-1.2c-0.4-0.4-1.1-0.5-1.3-1.1c-0.1-0.4,0.1-0.8,0.3-1.1
						C434.6,174,437.4,172.8,437.4,174.9z"/>
					<path class="st56" d="M436.6,185.2c-0.2,0-0.4,0.1-0.5,0.1c-0.3,0.1-0.4,0.5-0.7,0.6c-0.3,0.2-0.8,0.2-1.1-0.1
						c-0.3-0.3-0.3-0.8,0-1.1c0.3-0.4,1.1-0.5,1.3-1c0.2-0.4-0.2-0.9-0.3-1.4c-0.4-1.3,1.5-2.6,1.9-1
						C437.3,182.5,438.1,184.7,436.6,185.2z"/>
					<path class="st56" d="M432.5,184.2c-0.2,0-0.5,0.1-0.7,0.2c-0.2,0.1-0.5,0.2-0.7,0.1c-0.2,0-0.4-0.2-0.5-0.2
						c-0.2-0.1-0.4,0-0.5,0.2c0,0.2,0.2,0.4,0.4,0.4c0.3,0.1,0.6,0.2,0.8,0.4c0.2,0.2,0.4,0.6,0.2,0.8c-0.1,0.2-0.3,0.3-0.5,0.4
						c-0.2,0.1-0.3,0.3-0.3,0.5c0,0.3,0.4,0.5,0.7,0.4c0.3-0.1,0.5-0.4,0.6-0.7s0.2-0.6,0.4-0.8c0.2-0.2,0.4-0.4,0.5-0.6
						C433.2,185,433.2,184.2,432.5,184.2z"/>
				</g>
				<g>
					<path class="st55" d="M210.2,211.8c0.1,1-0.8,2.4-2.1,3.7l0,0c-1.3,1.3-3,2.5-4,2.9c-3.1,1.2-10.6,0.2-12.6-3.3
						c-1.1-2-1.9-3.5-2.2-5.7c-0.2-1.6,0.8-3,0.7-4.7c0-0.9,0.7-2.5,1.7-3.7c0.8-1,1.7-1.7,2.6-1.8c1.3-0.1,3.5-1.2,4.7-0.9
						c2.8,0.8,6.1,0.2,7.9,3.2c1.5,3.6,0.4,2,2.7,3.7C210.6,206,210,210.5,210.2,211.8z"/>
					<path class="st56" d="M208.1,215.5c-1.3,1.3-3,2.5-4,2.9c-3.1,1.2-10.6,0.2-12.6-3.3c-1.1-2-1.9-3.5-2.2-5.7
						c-0.2-1.6,0.8-3,0.7-4.7c0-0.9,0.7-2.5,1.7-3.7c0,0.4,0.1,0.9,0.3,1.3c0.9,1.5,1.9,3.1,1.5,4.8c-0.3,1.6,0.7,2.4,1.8,3.6
						c1.3,1.3,1.1,3.7,2.9,3.4c1-0.2,2.1-0.7,2.9-0.1c0.7,0.5,0.7,1.4,1.1,2.1c0.6,1.1,3.8,0,5-0.3
						C207.6,215.8,207.9,215.7,208.1,215.5z"/>
					<path class="st56" d="M204.4,212c0.1,0.3,0.2,0.6,0.2,0.9c0,0.3-0.1,0.6,0.1,0.8c0.2,0.3,0.6,0.3,1,0.3s0.7-0.1,1-0.3
						c0.5-0.4,0.5-1.1,0.7-1.6c0.2-0.4,0.5-0.8,0.7-1.2s0.3-0.9,0.1-1.3c-0.2-0.3-0.5-0.5-0.8-0.4c-0.3,0-0.6,0.2-0.8,0.5
						c-0.1,0.2-0.1,0.5-0.2,0.8c-0.3,1-0.8,0.2-1.4,0.2C204.2,210.6,204.2,211.4,204.4,212z"/>
					<path class="st56" d="M197.4,210.3c0.2,0.6,0.7,1.1,1.4,1.3c0.4,0.1,0.9,0.1,1.3-0.2c0.2-0.2,0.4-0.5,0.6-0.6
						c0.5-0.3,1.2,0.1,1.8,0s0.9-0.7,1-1.3c0.1-0.5,0.1-1.2-0.3-1.6c-0.4-0.4-0.9,0-1.4,0s-0.5-0.9-0.9-1.2s-0.9-0.5-1.3-0.5
						c-0.5,0.1-0.9,0.5-0.9,1c0,0.3,0.1,0.6,0.2,0.9c0.1,1.1-0.8,0.2-1.2,0.4C197.2,208.7,197.3,209.9,197.4,210.3z"/>
					<path class="st56" d="M204.7,201c0.1,0.2,0.2,0.4,0.3,0.6c0.2,0.3,0.6,0.3,0.9,0.6c0.4,0.3,0.5,0.9,0.2,1.3
						c-0.3,0.4-0.8,0.6-1.3,0.4c-0.6-0.3-0.9-1.1-1.5-1.2c-0.6-0.1-1,0.5-1.5,0.8c-1.4,0.8-3.4-1-1.7-1.9
						C201.3,200.9,203.7,199.4,204.7,201z"/>
					<path class="st56" d="M204.7,206c0.1,0.3,0.3,0.5,0.4,0.7s0.4,0.5,0.4,0.8c0,0.2-0.1,0.5-0.1,0.7s0.1,0.5,0.4,0.5
						c0.2,0,0.4-0.3,0.4-0.6c0.1-0.4,0.1-0.7,0.3-1.1c0.2-0.3,0.5-0.6,0.9-0.5c0.3,0.1,0.4,0.2,0.7,0.4c0.2,0.2,0.5,0.3,0.7,0.2
						c0.4-0.1,0.4-0.6,0.2-0.9c-0.2-0.3-0.6-0.4-1-0.5c-0.4,0-0.7,0-1.1-0.2c-0.3-0.1-0.6-0.3-0.8-0.5
						C205.5,205,204.5,205.2,204.7,206z"/>
					<path class="st56" d="M197.1,201.7c-0.5-1.1-1,0-2.2-0.4c-0.4-0.1-1-0.1-1.2,0.3c-0.1,0.4,0.3,0.8,0.7,1s0.8,0.4,0.9,0.8
						c0.1,0.4-0.2,0.7-0.3,1.1c-0.1,0.6,0.3,1.2,0.9,1.3c0.6,0.1,1.2-0.2,1.4-0.7s0.2-1.2-0.1-1.7L197.1,201.7z"/>
				</g>
				<g>
					<path class="st55" d="M329.8,264.5c0.1-0.7,1-1.4,2-1.9l0,0c1.1-0.6,2.3-1,3-1.1c2.2-0.2,6.7,1.8,7.2,4.4
						c0.3,1.4,0.6,2.6,0.3,4c-0.2,1.1-1.1,1.7-1.3,2.8c-0.1,0.6-0.9,1.4-1.7,2c-0.7,0.5-1.4,0.8-1.9,0.6c-0.8-0.2-2.4,0.1-3.1-0.3
						c-1.6-1-3.8-1.3-4.4-3.5c-0.3-2.5,0.1-1.3-1-2.8C328.5,268,329.7,265.3,329.8,264.5z"/>
					<path class="st56" d="M331.8,262.6c1.1-0.6,2.3-1,3-1.1c2.2-0.2,6.7,1.8,7.2,4.4c0.3,1.4,0.6,2.6,0.3,4
						c-0.2,1.1-1.1,1.7-1.3,2.8c-0.1,0.6-0.9,1.4-1.7,2c0.1-0.3,0.1-0.6,0-0.9c-0.3-1.1-0.6-2.3-0.1-3.3s0-1.6-0.5-2.6
						c-0.5-1.1,0-2.5-1.2-2.7c-0.6-0.1-1.4,0.1-1.8-0.4c-0.3-0.4-0.2-1-0.3-1.5c-0.2-0.8-2.4-0.7-3.2-0.8
						C332.2,262.5,332,262.6,331.8,262.6z"/>
					<path class="st56" d="M333.5,265.5c0-0.2,0-0.4,0.1-0.6s0.2-0.3,0.1-0.5s-0.3-0.3-0.6-0.4c-0.2-0.1-0.5-0.1-0.7,0
						c-0.4,0.1-0.5,0.6-0.7,0.9c-0.2,0.2-0.4,0.4-0.6,0.6s-0.4,0.5-0.3,0.8c0,0.2,0.2,0.4,0.4,0.4c0.2,0.1,0.4,0,0.6-0.2
						c0.1-0.1,0.2-0.3,0.3-0.5c0.3-0.6,0.6,0,0.9,0.1C333.3,266.4,333.5,265.9,333.5,265.5z"/>
					<path class="st56" d="M337.5,267.8c0-0.4-0.3-0.8-0.6-1c-0.2-0.2-0.6-0.2-0.8-0.1c-0.2,0.1-0.3,0.2-0.5,0.3
						c-0.4,0.1-0.7-0.3-1.1-0.3s-0.7,0.3-0.9,0.6c-0.2,0.3-0.3,0.7-0.1,1c0.2,0.3,0.6,0.2,0.9,0.3c0.3,0.1,0.1,0.6,0.3,0.9
						s0.4,0.5,0.7,0.6c0.3,0,0.7-0.1,0.8-0.4c0.1-0.2,0-0.4,0.1-0.6c0.2-0.7,0.6,0,0.8,0C337.4,268.9,337.5,268.1,337.5,267.8z"/>
					<path class="st56" d="M331.2,272.3c0-0.1,0-0.3-0.1-0.4c-0.1-0.2-0.3-0.3-0.5-0.5c-0.2-0.3-0.1-0.6,0.1-0.8
						c0.2-0.2,0.6-0.2,0.9,0c0.3,0.3,0.3,0.8,0.7,1c0.3,0.2,0.7-0.1,1.1-0.2c1.1-0.3,2,1.2,0.7,1.5
						C333.3,273,331.5,273.5,331.2,272.3z"/>
					<path class="st56" d="M332.2,269.2c0-0.2-0.1-0.4-0.1-0.5c-0.1-0.2-0.1-0.4-0.1-0.5s0.1-0.3,0.2-0.4c0-0.1,0-0.3-0.1-0.4
						c-0.2,0-0.3,0.1-0.4,0.3c-0.1,0.2-0.2,0.4-0.4,0.6c-0.2,0.2-0.4,0.3-0.7,0.1c-0.1-0.1-0.2-0.2-0.3-0.4
						c-0.1-0.1-0.2-0.3-0.4-0.3c-0.2,0-0.4,0.3-0.3,0.5s0.3,0.4,0.5,0.5s0.5,0.2,0.6,0.3c0.2,0.1,0.3,0.3,0.4,0.4
						C331.5,269.7,332.1,269.7,332.2,269.2z"/>
					<path class="st56" d="M336.1,273.3c0.1,0.8,0.6,0.2,1.3,0.6c0.2,0.2,0.6,0.3,0.8,0c0.2-0.2,0-0.5-0.2-0.7s-0.4-0.4-0.4-0.7
						c0-0.3,0.3-0.4,0.4-0.6c0.2-0.3,0-0.8-0.3-1s-0.8-0.1-1,0.2c-0.3,0.3-0.3,0.7-0.3,1L336.1,273.3z"/>
				</g>
				<g>
					<path class="st55" d="M108.4,312.2c0.7,0.1,1.4,1,1.9,2l0,0c0.6,1.1,1,2.3,1.1,3c0.2,2.2-1.7,6.7-4.3,7.3
						c-1.4,0.3-2.6,0.6-4,0.4c-1.1-0.2-1.7-1-2.8-1.3c-0.6-0.1-1.4-0.9-2-1.7c-0.5-0.7-0.8-1.4-0.7-1.9c0.2-0.8-0.1-2.4,0.3-3.1
						c1-1.6,1.2-3.8,3.4-4.4c2.5-0.3,1.3,0.1,2.8-1C104.8,310.9,107.5,312,108.4,312.2z"/>
					<path class="st56" d="M110.3,314.1c0.6,1.1,1,2.3,1.1,3c0.2,2.2-1.7,6.7-4.3,7.3c-1.4,0.3-2.6,0.6-4,0.4
						c-1.1-0.2-1.7-1-2.8-1.3c-0.6-0.1-1.4-0.9-2-1.7c0.3,0.1,0.6,0.1,0.9,0c1.1-0.3,2.2-0.6,3.3-0.1c1,0.5,1.6,0,2.6-0.5
						c1.1-0.6,2.5,0,2.7-1.2c0.1-0.6-0.1-1.4,0.4-1.8c0.4-0.3,1-0.2,1.5-0.3c0.8-0.2,0.7-2.4,0.7-3.2
						C110.3,314.5,110.3,314.3,110.3,314.1z"/>
					<path class="st56" d="M107.4,315.9c0.2,0,0.4,0,0.6,0s0.3,0.2,0.5,0.1s0.3-0.3,0.4-0.6c0-0.2,0.1-0.5,0-0.7
						c-0.1-0.4-0.6-0.5-0.9-0.7c-0.2-0.2-0.4-0.4-0.6-0.6s-0.5-0.4-0.8-0.3c-0.2,0-0.4,0.2-0.4,0.4s0,0.4,0.2,0.6
						c0.1,0.1,0.3,0.2,0.5,0.3c0.6,0.3,0,0.6-0.1,0.9C106.5,315.7,107,315.8,107.4,315.9z"/>
					<path class="st56" d="M105.1,319.9c0.4,0,0.8-0.3,1-0.6c0.2-0.3,0.2-0.6,0.1-0.8c-0.1-0.2-0.2-0.3-0.3-0.5
						c-0.1-0.4,0.3-0.7,0.3-1.1s-0.3-0.7-0.6-0.9c-0.3-0.2-0.7-0.3-1-0.1c-0.3,0.2-0.2,0.6-0.3,0.9c-0.1,0.3-0.6,0.2-0.9,0.3
						c-0.3,0.2-0.5,0.4-0.5,0.8c0,0.3,0.1,0.7,0.4,0.8c0.2,0.1,0.4,0,0.6,0.1c0.7,0.1,0,0.6,0,0.8
						C104.1,319.8,104.9,319.9,105.1,319.9z"/>
					<path class="st56" d="M100.6,313.7c0.1,0,0.3,0,0.4-0.1c0.2-0.1,0.3-0.3,0.5-0.5c0.3-0.2,0.6-0.1,0.8,0.1
						c0.2,0.2,0.2,0.6,0,0.9c-0.3,0.3-0.8,0.3-1,0.7c-0.2,0.3,0.1,0.7,0.2,1.1c0.3,1.1-1.2,2-1.5,0.7
						C99.9,315.8,99.4,314,100.6,313.7z"/>
					<path class="st56" d="M103.7,314.6c0.2,0,0.4-0.1,0.5-0.1c0.2-0.1,0.4-0.1,0.5-0.1s0.3,0.1,0.4,0.2c0.1,0,0.3,0,0.4-0.1
						c0-0.2-0.1-0.3-0.3-0.4c-0.2-0.1-0.4-0.2-0.6-0.4c-0.2-0.2-0.3-0.4-0.2-0.7c0.1-0.2,0.2-0.2,0.4-0.3c0.1-0.1,0.3-0.2,0.3-0.4
						c0-0.2-0.3-0.4-0.5-0.3s-0.4,0.3-0.5,0.5s-0.2,0.5-0.3,0.7c-0.1,0.2-0.3,0.3-0.4,0.5C103.2,313.9,103.2,314.6,103.7,314.6z"/>
					<path class="st56" d="M99.7,318.6c-0.8,0.1-0.2,0.6-0.6,1.3c-0.2,0.2-0.3,0.6,0,0.8c0.2,0.2,0.5,0,0.7-0.2s0.4-0.4,0.7-0.4
						c0.3,0,0.4,0.3,0.6,0.4c0.3,0.2,0.8,0,1-0.3s0.1-0.8-0.2-1c-0.3-0.3-0.7-0.3-1.1-0.2L99.7,318.6z"/>
				</g>
				<g>
					<path class="st55" d="M509.4,86.7c0.4-0.3,1.2-0.3,2-0.1l0,0c0.9,0.2,1.8,0.6,2.1,0.9c1.3,0.9,2.7,4.2,1.8,5.9
						c-0.5,0.9-0.9,1.6-1.7,2.3c-0.6,0.5-1.4,0.4-2.1,0.9c-0.4,0.3-1.2,0.3-1.9,0.3c-0.6-0.1-1.1-0.3-1.3-0.6
						c-0.4-0.5-1.3-1.1-1.5-1.7c-0.4-1.3-1.4-2.5-0.7-4c1.1-1.5,0.7-0.7,0.8-2C507,87.9,508.9,87.1,509.4,86.7z"/>
					<path class="st56" d="M511.4,86.6c0.9,0.2,1.8,0.6,2.1,0.9c1.3,0.9,2.7,4.2,1.8,5.9c-0.5,0.9-0.9,1.6-1.7,2.3
						c-0.6,0.5-1.4,0.4-2.1,0.9c-0.4,0.3-1.2,0.3-1.9,0.3c0.2-0.1,0.3-0.2,0.4-0.5c0.4-0.7,0.8-1.5,1.5-1.8c0.7-0.3,0.8-0.9,1-1.6
						c0.2-0.8,1.2-1.4,0.7-2c-0.3-0.3-0.8-0.6-0.8-1.1c0-0.4,0.4-0.6,0.6-1c0.3-0.5-0.9-1.5-1.3-1.9
						C511.6,86.8,511.5,86.7,511.4,86.6z"/>
					<path class="st56" d="M510.9,89c0.1-0.1,0.2-0.2,0.3-0.3c0.1-0.1,0.2-0.1,0.3-0.2c0.1-0.2,0-0.3-0.1-0.5
						c-0.1-0.1-0.2-0.3-0.4-0.3c-0.3-0.1-0.5,0.1-0.8,0.1c-0.2,0-0.4,0-0.6,0s-0.4,0.1-0.5,0.3c-0.1,0.1-0.1,0.3,0,0.4
						s0.2,0.2,0.4,0.2c0.1,0,0.2-0.1,0.4-0.1c0.5-0.1,0.3,0.3,0.4,0.5C510.4,89.4,510.7,89.2,510.9,89z"/>
					<path class="st56" d="M511.9,92.2c0.2-0.2,0.3-0.6,0.2-0.9c-0.1-0.2-0.2-0.4-0.4-0.5c-0.1,0-0.3,0-0.4-0.1
						c-0.2-0.1-0.2-0.5-0.4-0.7c-0.2-0.2-0.5-0.2-0.8-0.1c-0.2,0.1-0.5,0.3-0.6,0.5s0.2,0.4,0.3,0.6c0.1,0.2-0.2,0.4-0.3,0.6
						c0,0.2,0,0.5,0.1,0.7s0.4,0.3,0.6,0.1c0.1-0.1,0.2-0.2,0.3-0.3c0.4-0.3,0.3,0.3,0.4,0.4C511.3,92.7,511.8,92.4,511.9,92.2z"/>
					<path class="st56" d="M506.4,91.6c0-0.1,0.1-0.2,0.1-0.3c0.1-0.2,0-0.3,0-0.5s0.2-0.4,0.5-0.4c0.2,0,0.4,0.2,0.5,0.4
						c0,0.3-0.2,0.6-0.1,0.9c0.1,0.2,0.4,0.3,0.7,0.4c0.7,0.4,0.5,1.6-0.3,1.1C507.2,93,506,92.4,506.4,91.6z"/>
					<path class="st56" d="M508.4,90.4c0.1-0.1,0.1-0.2,0.2-0.4c0-0.1,0.1-0.3,0.2-0.3c0.1-0.1,0.2-0.1,0.3-0.1s0.2-0.2,0.1-0.3
						c-0.1-0.1-0.2-0.1-0.3,0c-0.2,0.1-0.3,0.1-0.5,0.1s-0.4-0.1-0.4-0.2s0-0.2,0-0.4c0-0.1,0-0.3-0.1-0.3c-0.1-0.1-0.4,0-0.4,0.1
						c-0.1,0.2,0,0.3,0.1,0.5s0.2,0.3,0.2,0.5c0,0.1,0,0.3,0,0.5C507.8,90.3,508.1,90.6,508.4,90.4z"/>
					<path class="st56" d="M508.6,94.4c-0.3,0.5,0.2,0.4,0.4,1c0.1,0.2,0.2,0.4,0.4,0.4c0.2,0,0.2-0.3,0.2-0.5s0-0.4,0.1-0.6
						c0.1-0.1,0.3-0.1,0.5-0.1c0.3-0.1,0.4-0.4,0.3-0.7s-0.4-0.4-0.7-0.4c-0.3,0-0.5,0.2-0.6,0.4L508.6,94.4z"/>
				</g>
				<g>
					<path class="st55" d="M555.3,179.4c0.1-0.5,0.7-1,1.5-1.4l0,0c0.8-0.4,1.7-0.7,2.2-0.7c1.6-0.1,4.8,1.4,5.2,3.3
						c0.2,1,0.4,1.9,0.2,2.9c-0.1,0.8-0.8,1.2-1,2c-0.1,0.4-0.7,1-1.3,1.4c-0.5,0.3-1,0.5-1.4,0.4c-0.6-0.1-1.7,0-2.2-0.3
						c-1.1-0.8-2.7-0.9-3.1-2.5c-0.2-1.8,0.1-1-0.7-2C554.3,181.9,555.2,180,555.3,179.4z"/>
					<path class="st56" d="M556.8,178c0.8-0.4,1.7-0.7,2.2-0.7c1.6-0.1,4.8,1.4,5.2,3.3c0.2,1,0.4,1.9,0.2,2.9c-0.1,0.8-0.8,1.2-1,2
						c-0.1,0.4-0.7,1-1.3,1.4c0.1-0.2,0.1-0.4,0-0.6c-0.2-0.8-0.4-1.6,0-2.4c0.4-0.7,0-1.2-0.3-1.9c-0.4-0.8,0-1.8-0.8-1.9
						c-0.5-0.1-1,0-1.3-0.3c-0.2-0.3-0.1-0.7-0.2-1.1c-0.1-0.6-1.7-0.5-2.3-0.6C557,178,556.9,178,556.8,178z"/>
					<path class="st56" d="M558,180.1c0-0.1,0-0.3,0-0.4c0-0.1,0.1-0.2,0.1-0.4s-0.2-0.2-0.4-0.3c-0.2,0-0.3-0.1-0.5,0
						c-0.3,0.1-0.4,0.4-0.5,0.6c-0.1,0.2-0.3,0.3-0.5,0.4c-0.1,0.1-0.3,0.4-0.2,0.6c0,0.1,0.1,0.3,0.3,0.3c0.1,0,0.3,0,0.4-0.1
						c0.1-0.1,0.1-0.2,0.2-0.3c0.3-0.4,0.4,0,0.6,0.1C557.8,180.8,557.9,180.4,558,180.1z"/>
					<path class="st56" d="M560.8,181.9c0-0.3-0.2-0.6-0.4-0.8c-0.2-0.1-0.4-0.2-0.6-0.1c-0.1,0.1-0.2,0.2-0.4,0.2
						c-0.3,0.1-0.5-0.2-0.8-0.2s-0.5,0.2-0.6,0.4s-0.2,0.5-0.1,0.7c0.1,0.2,0.4,0.1,0.6,0.2c0.2,0.1,0.1,0.5,0.2,0.7
						c0.1,0.2,0.3,0.4,0.5,0.4s0.5-0.1,0.6-0.3c0-0.1,0-0.3,0.1-0.4c0.1-0.5,0.4,0,0.6,0C560.7,182.6,560.8,182.1,560.8,181.9z"/>
					<path class="st56" d="M556.3,185c0-0.1,0-0.2-0.1-0.3c-0.1-0.2-0.2-0.2-0.3-0.4s-0.1-0.5,0.1-0.6c0.2-0.1,0.4-0.1,0.6,0
						c0.2,0.2,0.2,0.6,0.5,0.7c0.2,0.1,0.5-0.1,0.8-0.1c0.8-0.2,1.4,0.9,0.5,1.1C557.8,185.6,556.5,185.9,556.3,185z"/>
					<path class="st56" d="M557,182.8c0-0.1,0-0.3-0.1-0.4c0-0.1-0.1-0.3-0.1-0.4c0-0.1,0.1-0.2,0.1-0.3s0-0.2-0.1-0.3
						c-0.1,0-0.2,0.1-0.3,0.2c-0.1,0.2-0.2,0.3-0.3,0.4c-0.1,0.1-0.3,0.2-0.5,0.1c-0.1-0.1-0.2-0.2-0.2-0.3
						c-0.1-0.1-0.2-0.2-0.3-0.2c-0.2,0-0.3,0.2-0.2,0.4s0.2,0.3,0.4,0.3c0.2,0.1,0.3,0.1,0.5,0.2c0.1,0.1,0.2,0.2,0.3,0.3
						C556.5,183.1,556.9,183.2,557,182.8z"/>
					<path class="st56" d="M559.8,185.8c0.1,0.6,0.5,0.1,0.9,0.5c0.2,0.1,0.5,0.2,0.6,0s0-0.4-0.2-0.5c-0.1-0.1-0.3-0.3-0.3-0.5
						s0.2-0.3,0.3-0.4c0.1-0.2,0-0.6-0.2-0.7c-0.2-0.1-0.6-0.1-0.7,0.1s-0.3,0.5-0.2,0.8L559.8,185.8z"/>
				</g>
				<g>
					<path class="st55" d="M306.5,154.3c0.2,0.4,0,1.2-0.4,2l0,0c-0.4,0.8-1,1.6-1.3,1.9c-1.2,1-4.7,1.7-6.1,0.4
						c-0.8-0.7-1.4-1.3-1.8-2.2c-0.3-0.7-0.1-1.5-0.4-2.2c-0.2-0.4-0.1-1.2,0.2-1.9c0.2-0.6,0.5-1,0.9-1.2c0.6-0.2,1.4-1.1,2-1.1
						c1.4-0.1,2.8-0.8,4,0.2c1.2,1.4,0.5,0.8,1.7,1.3C305.8,151.7,306.2,153.8,306.5,154.3z"/>
					<path class="st56" d="M306.1,156.3c-0.4,0.8-1,1.6-1.3,1.9c-1.2,1-4.7,1.7-6.1,0.4c-0.8-0.7-1.4-1.3-1.8-2.2
						c-0.3-0.7-0.1-1.5-0.4-2.2c-0.2-0.4-0.1-1.2,0.2-1.9c0.1,0.2,0.2,0.4,0.3,0.5c0.6,0.5,1.3,1.1,1.4,1.9c0.1,0.8,0.7,1,1.4,1.3
						c0.8,0.4,1,1.5,1.8,1.1c0.4-0.2,0.8-0.6,1.3-0.5c0.4,0.1,0.5,0.5,0.8,0.8c0.4,0.4,1.7-0.5,2.2-0.9
						C305.9,156.5,306,156.4,306.1,156.3z"/>
					<path class="st56" d="M303.9,155.3c0.1,0.1,0.2,0.2,0.2,0.4c0,0.1,0,0.3,0.1,0.4c0.1,0.1,0.3,0.1,0.5,0s0.3-0.1,0.4-0.3
						c0.2-0.2,0-0.5,0.1-0.8c0-0.2,0.1-0.4,0.1-0.6c0-0.2,0-0.4-0.1-0.6c-0.1-0.1-0.3-0.1-0.4-0.1c-0.1,0.1-0.2,0.2-0.3,0.3
						c0,0.1,0,0.3,0,0.4c0,0.5-0.3,0.2-0.6,0.3C303.6,154.7,303.7,155,303.9,155.3z"/>
					<path class="st56" d="M300.5,155.6c0.2,0.2,0.5,0.4,0.8,0.4c0.2,0,0.4-0.1,0.5-0.3c0.1-0.1,0.1-0.3,0.2-0.4
						c0.2-0.2,0.5-0.1,0.8-0.3c0.2-0.1,0.3-0.4,0.3-0.7s-0.1-0.5-0.4-0.7c-0.2-0.1-0.4,0.1-0.6,0.2c-0.2,0.1-0.3-0.3-0.6-0.4
						c-0.2-0.1-0.5-0.1-0.7,0s-0.3,0.3-0.3,0.6c0,0.1,0.2,0.2,0.2,0.4c0.2,0.5-0.3,0.2-0.5,0.3C300.2,154.9,300.4,155.4,300.5,155.6
						z"/>
					<path class="st56" d="M302.4,150.3c0.1,0.1,0.1,0.2,0.2,0.2c0.1,0.1,0.3,0.1,0.5,0.1c0.2,0.1,0.3,0.3,0.3,0.5
						c-0.1,0.2-0.3,0.4-0.5,0.4c-0.3,0-0.5-0.4-0.8-0.3c-0.3,0-0.4,0.4-0.6,0.6c-0.5,0.6-1.7,0.1-1-0.6
						C300.9,150.8,301.7,149.7,302.4,150.3z"/>
					<path class="st56" d="M303.1,152.5c0.1,0.1,0.2,0.2,0.3,0.3c0.1,0.1,0.2,0.2,0.3,0.3c0,0.1,0,0.2,0.1,0.3
						c0,0.1,0.1,0.2,0.2,0.2s0.1-0.2,0.1-0.3c0-0.2-0.1-0.3,0-0.5c0-0.2,0.2-0.3,0.3-0.4c0.1,0,0.2,0,0.4,0.1c0.1,0,0.3,0.1,0.4,0
						s0.1-0.3,0-0.4c-0.1-0.1-0.3-0.1-0.5-0.1s-0.3,0.1-0.5,0.1s-0.3-0.1-0.4-0.1C303.3,152,302.9,152.2,303.1,152.5z"/>
					<path class="st56" d="M299.1,151.8c-0.4-0.4-0.5,0.2-1,0.2c-0.2,0-0.5,0.1-0.5,0.3s0.2,0.3,0.4,0.3c0.2,0,0.4,0.1,0.5,0.2
						c0.1,0.2,0,0.4,0,0.5c0,0.3,0.3,0.5,0.6,0.4c0.3,0,0.5-0.3,0.5-0.5c0-0.3-0.1-0.5-0.3-0.7L299.1,151.8z"/>
				</g>
				<g>
					<path class="st55" d="M79.8,84c-0.1,0.7-0.9,1.4-1.8,2.1l0,0c-1,0.7-2.3,1.2-2.9,1.3c-2.2,0.3-6.8-1.4-7.5-3.9
						c-0.4-1.4-0.7-2.5-0.6-4c0.1-1.1,0.9-1.8,1.1-2.9c0.1-0.6,0.8-1.5,1.6-2.1c0.6-0.5,1.3-0.9,1.9-0.8c0.8,0.1,2.4-0.3,3.1,0.1
						c1.7,0.9,3.9,1,4.6,3.1c0.4,2.5,0,1.3,1.2,2.7C80.9,80.4,79.9,83.2,79.8,84z"/>
					<path class="st56" d="M78,86.1c-1,0.7-2.3,1.2-2.9,1.3c-2.2,0.3-6.8-1.4-7.5-3.9c-0.4-1.4-0.7-2.5-0.6-4
						c0.1-1.1,0.9-1.8,1.1-2.9c0.1-0.6,0.8-1.5,1.6-2.1c-0.1,0.3-0.1,0.6,0,0.9c0.3,1.1,0.7,2.2,0.3,3.3c-0.4,1,0.1,1.6,0.6,2.5
						c0.6,1,0.2,2.5,1.4,2.6c0.6,0,1.4-0.2,1.8,0.3c0.3,0.4,0.2,1,0.4,1.5c0.2,0.8,2.4,0.6,3.2,0.5C77.6,86.2,77.8,86.1,78,86.1z"/>
					<path class="st56" d="M76.1,83.3c0,0.2,0,0.4,0,0.6S76,84.2,76,84.4c0.1,0.2,0.4,0.3,0.6,0.4c0.2,0,0.5,0.1,0.7,0
						c0.4-0.2,0.4-0.6,0.7-0.9c0.2-0.2,0.4-0.4,0.6-0.6s0.3-0.5,0.3-0.8c-0.1-0.2-0.2-0.4-0.4-0.4c-0.2,0-0.4,0-0.5,0.2
						c-0.1,0.1-0.1,0.3-0.2,0.5c-0.3,0.6-0.6,0-0.9-0.1C76.2,82.4,76.1,82.9,76.1,83.3z"/>
					<path class="st56" d="M71.9,81.2c0.1,0.4,0.3,0.8,0.7,1c0.3,0.1,0.6,0.2,0.9,0.1c0.2-0.1,0.3-0.2,0.5-0.3
						c0.4-0.1,0.7,0.2,1.1,0.2s0.7-0.3,0.8-0.7c0.2-0.3,0.2-0.7,0-1s-0.6-0.1-0.9-0.2s-0.2-0.6-0.4-0.9c-0.2-0.3-0.5-0.5-0.8-0.5
						s-0.7,0.2-0.7,0.5c0,0.2,0,0.4,0,0.6c-0.1,0.7-0.6,0-0.8,0.1C72,80.2,71.9,81,71.9,81.2z"/>
					<path class="st56" d="M77.9,76.3c0,0.1,0.1,0.3,0.1,0.4c0.1,0.2,0.4,0.3,0.5,0.5c0.2,0.2,0.2,0.6,0,0.8
						c-0.2,0.2-0.6,0.2-0.8,0.1c-0.3-0.3-0.4-0.8-0.8-1c-0.4-0.1-0.7,0.2-1.1,0.3c-1,0.3-2-1.1-0.8-1.4
						C75.7,75.8,77.5,75.2,77.9,76.3z"/>
					<path class="st56" d="M77.2,79.5c0,0.2,0.1,0.4,0.2,0.5c0.1,0.2,0.2,0.4,0.1,0.5c0,0.1-0.1,0.3-0.2,0.4c0,0.1,0,0.3,0.2,0.4
						c0.2,0,0.3-0.1,0.3-0.3c0.1-0.2,0.2-0.5,0.3-0.6c0.2-0.2,0.4-0.3,0.6-0.2c0.2,0.1,0.2,0.2,0.4,0.4c0.1,0.1,0.2,0.3,0.4,0.3
						c0.2,0,0.4-0.3,0.3-0.6c-0.1-0.2-0.3-0.4-0.5-0.4c-0.2-0.1-0.5-0.1-0.7-0.3c-0.2-0.1-0.3-0.3-0.5-0.4
						C77.8,79,77.2,79,77.2,79.5z"/>
					<path class="st56" d="M73,75.7c-0.2-0.8-0.6-0.1-1.3-0.5c-0.3-0.1-0.6-0.2-0.8,0c-0.1,0.2,0.1,0.5,0.3,0.7
						c0.2,0.2,0.5,0.4,0.5,0.6c0,0.3-0.3,0.4-0.4,0.7c-0.2,0.3,0,0.8,0.4,0.9c0.3,0.2,0.8,0,1-0.3s0.3-0.7,0.2-1.1L73,75.7z"/>
				</g>
			</g>
		</g>
		<g class="st0">
			<defs>
				<rect id="SVGID_71_" x="-15.3" y="-15.6" width="611.3" height="391.2"/>
			</defs>
			<clipPath id="SVGID_72_">
				<use xlink:href="#SVGID_71_"  style="overflow:visible;"/>
			</clipPath>
			<g class="st57">
				<path class="st58" d="M274.1,317.7c-0.1,0.6-0.2,1.2-0.3,1.7c-0.1,0.3-0.1,0.6-0.2,0.9c-0.8,2.8-2.1,5.3-3.9,7.4
					c-0.4,0.5-0.9,1-1.4,1.5c-1.3,1.3-2.9,2.3-4.5,3.1c-1.2,0.6-2.5,1.1-3.8,1.4c-2.2,0.6-4.5,0.8-6.9,0.5c-0.8-0.1-1.5-0.2-2.3-0.4
					c-0.2,0-0.4-0.1-0.6-0.2c-3.2-0.9-6-2.5-8.2-4.7c-0.3-0.3-0.7-0.7-1-1c-4.2-4.7-5.9-11.2-4.2-17.7l0,0c0.2-0.8,0.5-1.6,0.8-2.3
					c1.2-2.9,3.1-5.4,5.4-7.3c0.4-0.3,0.8-0.7,1.3-1c0.8-0.5,1.6-1,2.4-1.4c1-0.5,2.1-0.9,3.2-1.3c0.9-0.3,1.8-0.5,2.7-0.6
					c0.3,0,0.6-0.1,0.9-0.1c2.2-0.2,4.5,0,6.8,0.6c3.3,0.9,6.1,2.6,8.4,4.8c0.5,0.5,1,1.1,1.5,1.7
					C273.2,307.3,274.8,312.5,274.1,317.7z"/>
				<path class="st59" d="M274.1,317.7c-0.1,0.6-0.2,1.2-0.3,1.7c-0.1,0.3-0.1,0.6-0.2,0.9c-0.8,2.8-2.1,5.3-3.9,7.4
					c-0.4,0.5-0.9,1-1.4,1.5c-1.3,1.3-2.9,2.3-4.5,3.1c0.8-1.8,2.9-2.9,3.2-4.9c0.1-1.1-0.3-2.3,0.3-3.1c0.5-0.7,1.7-1,1.9-1.9
					c0.2-0.9-0.9-1.5-1.8-1.8s-1.9-1-1.7-1.9c0.2-0.6,0.8-0.9,1.1-1.5c0.4-0.7,0-1.5-0.5-2.1c-0.6-0.5-1.3-0.8-2-1.1
					c-0.9-0.4-2-1.2-1.8-2.2c0.1-0.4,0.4-0.8,0.5-1.2c0.3-0.9-0.3-1.9-1.1-2.4c-0.8-0.5-1.8-0.6-2.7-0.5c-0.8,0.1-1.6,0.2-2.4,0.1
					s-1.6-0.5-1.9-1.3c-0.4-0.8,0-1.8,0.6-2.4s1.4-1,2.2-1.4c-0.6,0.2-1.1-0.7-0.8-1.3c0.3-0.6,0.9-0.9,1.4-1.3s1-0.9,0.9-1.6
					c-0.1-0.6-0.7-0.9-1.2-1.1c-1-0.4-3.5-0.5-4.6-1.3c2.2-0.2,4.5,0,6.8,0.6c3.3,0.9,6.1,2.6,8.4,4.8c0.5,0.5,1,1.1,1.5,1.7
					C273.2,307.3,274.8,312.5,274.1,317.7z"/>
				<path class="st60" d="M254.2,304.7c-0.9,1.4-6,5.3-12.5,5.1c-1.2,0-2.8-0.7-4.3-1.3c0.3-0.9,0.7-1.7,1.2-2.5
					c0.4-0.7,0.8-1.3,1.2-1.9c3-4.1,7.5-6.9,12.7-7.6C253.1,296.4,256.4,301.2,254.2,304.7z"/>
				<path class="st60" d="M267.1,300.4c-1,1.2-2.9,2.4-5.2,3.4c-4,1.7-2.6-3.5-1.2-6.8c0.9,0.3,1.7,0.6,2.5,1c0.6,0.3,1.2,0.6,1.8,1
					C265.8,299.5,266.5,299.9,267.1,300.4z"/>
				<path class="st61" d="M250.2,333.7c-3.2-0.9-6-2.5-8.2-4.7c-0.3-0.3-0.7-0.7-1-1c-4.2-4.7-5.9-11.2-4.2-17.7l0,0
					c0.2-0.8,0.5-1.6,0.8-2.3c1.2-2.9,3.1-5.4,5.4-7.3c0.4-0.3,0.8-0.7,1.3-1c0.8-0.5,1.6-1,2.4-1.4c0.4,0.9,0.4,2,0.5,3
					c0.1,2,0.1,4.1-0.9,5.8c-0.7,1.2-1.9,2.2-2.4,3.5c-0.5,1.5,0.2,3.2,1.4,4.2s2.9,1.2,4.5,0.8c0.9-0.2,1.8-0.6,2.7-0.4
					c1.3,0.2,2.1,1.7,2.2,3c0.1,1.3-0.3,2.6-0.6,4c-0.2,1.3-0.2,2.8,0.7,3.8c0.9,1.1,2.4,1.4,3.4,2.2c1.3,1.1,2,3.5,1.9,5.6
					c-2.2,0.6-4.5,0.8-6.9,0.5c-0.8-0.1-1.5-0.2-2.3-0.4C250.6,333.8,250.4,333.7,250.2,333.7z"/>
				<path class="st42" d="M237.1,314.7c0,10.5,7.6,19,18.1,19c5.8,0,11-1.9,14.5-6c-2.9,1.9-6.4,2.9-10.2,2.9c-10.5,0-19-8.5-19-19
					c0-4.7,1.7-9.1,4.6-12.4C239.7,302.6,237.1,307.9,237.1,314.7z"/>
				<path class="st60" d="M253.1,320c-0.4-0.8-1.9-1-3.3-0.4c-1.5,0.6-2.3,1.9-2,2.7c0.4,0.8,1.9,1,3.3,0.4
					C252.6,322.1,253.5,320.8,253.1,320z"/>
				<path class="st60" d="M242.6,322.2c-1,1.5-2.2,2.6-3.4,3.3c-0.1-0.1-0.1-0.2-0.2-0.3c-0.5-0.8-0.9-1.6-1.3-2.4
					c-0.7-1.7-1.2-3.6-1.4-5.5c2.1-2.8,5-4.2,6.8-3C244.9,315.5,244.7,319,242.6,322.2z"/>
				
					<ellipse transform="matrix(0.5491 -0.8357 0.8357 0.5491 -155.4595 362.4468)" class="st60" cx="258.2" cy="325.3" rx="1.4" ry="2.3"/>
				<path class="st60" d="M264.8,326c0.7,0.3,1.6-0.5,2.1-1.7s0.3-2.4-0.4-2.7c-0.7-0.3-1.6,0.5-2.1,1.7S264.1,325.7,264.8,326z"/>
				
					<ellipse transform="matrix(0.4104 -0.9119 0.9119 0.4104 -134.2246 420.7241)" class="st60" cx="258.2" cy="314.2" rx="3.5" ry="6.1"/>
				<path class="st60" d="M260.9,333.5c-1.8,0.6-3.7,0.9-5.7,0.9l0,0c-0.8,0-1.6-0.1-2.4-0.2c-2.8-0.4-5.5-1.3-7.8-2.8
					c0.9-2.3,4.8-3.4,9.1-2.4C257.4,329.7,260,331.5,260.9,333.5z"/>
				<path class="st60" d="M274.3,315.3c0,1.9-0.3,3.8-0.8,5.5c-1.8,1-3.5,1.2-4.8,0.4c-2.3-1.5-2.1-6,0.6-10c1-1.5,2.2-2.7,3.4-3.6
					c0.7,1.5,1.1,3.1,1.4,4.7c0.1,0.8,0.2,1.5,0.2,2.3C274.3,314.9,274.3,315.1,274.3,315.3z"/>
				<path class="st60" d="M267.1,308c0-1-1.5-1.7-3.2-1.7c-1.7,0.1-3.1,0.9-3,1.9c0,1,1.5,1.7,3.2,1.7
					C265.8,309.9,267.2,309,267.1,308z"/>
				<path class="st10" d="M263.2,305.9c1,1.2,2.5,1.7,3.3,1s0.6-2.2-0.4-3.4c-1-1.2-2.5-1.7-3.3-1
					C262.1,303.1,262.2,304.6,263.2,305.9z"/>
				
					<ellipse transform="matrix(0.8584 -0.5129 0.5129 0.8584 -121.1319 180.9102)" class="st10" cx="267.2" cy="309.9" rx="0.9" ry="1.4"/>
			</g>
		</g>
		<g class="st0">
			<defs>
				<rect id="SVGID_73_" x="-15.3" y="-15.6" width="611.3" height="391.2"/>
			</defs>
			<clipPath id="SVGID_74_">
				<use xlink:href="#SVGID_73_"  style="overflow:visible;"/>
			</clipPath>
			<g class="st62">
				<path class="st63" d="M666.1,451.4c-1.5,4-3.2,7.9-5.1,11.7c-7.1,14.6-16.5,28-28,39.7c-5,5.1-10.4,9.8-16.1,14.2
					c-15.7,11.9-34,20.9-54.3,25.9c-25.8,6.4-51.7,5.7-75.6-0.9c-0.9-0.2-1.8-0.5-2.6-0.8c-4.8-1.4-9.5-3.1-14.1-5
					c-25.5-10.4-47.9-27.8-64.4-50.4c-1.2-1.7-2.4-3.4-3.6-5.2c-2.1-3.1-4.1-6.4-5.9-9.7c-3-5.4-5.8-11.1-8.1-17
					c-0.9-2.3-1.8-4.6-2.6-7c-0.7-2-1.3-4-1.9-6c-0.7-2.3-1.3-4.6-1.9-6.9c-2.6-10.4-4-20.8-4.3-31.1c-0.4-11.6,0.6-22.9,2.8-34
					c1.1-5.3,2.4-10.6,4-15.7c12.9-40.9,43.2-75.3,84.3-92.6c5.6-2.4,11.4-4.4,17.4-6.1c1.6-0.4,3.1-0.9,4.7-1.3
					c24.7-6.1,49.5-5.7,72.6,0.2c0.5,0.1,1.1,0.3,1.6,0.4c3.2,0.8,6.4,1.8,9.5,2.9c0.3,0.1,0.6,0.2,0.8,0.3c1.2,0.4,2.3,0.8,3.5,1.3
					c5.7,2.1,11.3,4.6,16.7,7.4c7.8,4,15.2,8.8,22.1,14.1c0.5,0.4,1,0.7,1.4,1.1c10.1,7.9,19.2,17.2,27,27.6
					c8.6,11.4,15.6,24.2,20.7,38.1c1.8,5,3.4,10.2,4.8,15.6v0.1c1.5,6.2,2.7,12.5,3.4,18.7C677.9,405.4,674.5,429.5,666.1,451.4z"/>
				<path class="st64" d="M549.6,286.9c-8.4,2.5-18.4,1.4-30.2-1.4c-12-2.9-21.5,3.1-26.3,14.4c-5.4,12.7,0.5,16.9-5.2,29.5
					c-6.3,13.9-27.9,6.1-42.8,9.4s-21.2,12.6-23.1,27.9c-1.8,14.3-3.1,25.6-7.3,39.4c-3.9,12.8-15.8,34.7-15.5,48.1
					c0,1.4,0.1,2.8,0.2,4.2c-1.1-1.8-2.2-3.6-3.2-5.5c-1.8-3.3-3.6-6.7-5.2-10.1c-2.6-5.7-4.9-11.5-6.8-17.6
					c-0.7-2.4-1.4-4.7-2.1-7.2c-0.5-2-1-4.1-1.5-6.1c-0.5-2.3-1-4.7-1.4-7.1c-0.7-4.4-1.3-8.8-1.6-13.2c0.5-11.5,2.3-22.8,5.4-33.7
					c1.5-5.2,3.2-10.4,5.2-15.4c16-39.8,48.7-71.9,91-86c5.8-1.9,11.7-3.5,17.8-4.8c1.6-0.3,3.2-0.6,4.8-0.9
					c25.1-4.3,49.8-2,72.4,5.6c0,0,16.9,6.3,21.3,9.1c6.5,5.1-30.8-9.4-32.6,5.8C562.1,278.1,558.9,284.1,549.6,286.9z"/>
				<path class="st65" d="M641.5,412.6c-1.8,3.9-3.8,7.6-5.9,11.3c-8.2,14-18.6,26.7-30.9,37.5c-5.4,4.7-11.1,9-17.1,12.9
					c-16.5,10.7-35.5,18.3-56.1,21.8c-26.2,4.4-51.9,1.8-75.3-6.6c-0.9-0.3-1.7-0.6-2.6-1c-0.7-5-2.7-10.1-4.6-14.9
					c-3.9-9.3-7.7-18.7-11.6-28c-4.2-10.1-7.9-23.1-0.2-30.8c6.9-7,20.7-6.6,23.8-15.9c1-3.1,0.4-6.6,1.1-9.8
					c2.6-12.3,35.5-3.5,41.6-33.7c4-19.6,28.6-6.2,44.8-13.8c11-5.2,8.8-17.4,18.5-21.9c11-5.1,14.3-1.7,25.5-6.6
					c6.5-2.9,10.7-10.7,9.8-18.3c-0.9-7.6,10.4-18.7,13.9-16.1s6.9,5.4,10.2,8.3c0.4,0.4,0.9,0.8,1.3,1.2
					c9.5,8.7,17.9,18.6,24.9,29.6c0.4,2.1,0.8,4.2,1.2,6.3v0.1c1.1,6.3,1.7,12.6,2,18.9C656.7,367.6,651.6,391.4,641.5,412.6z"/>
				<path class="st66" d="M576.2,257.3c-8-0.2-15.4-0.1-17,2.8c-3.8,7.1-4.4,7.7-13.5,7.5c-8.6-0.1-17.1-2.1-25.6-2.7
					c-10.5-0.8-22.5-0.4-30.2,6.9c-5.2,4.9,3.4,6.2,1.5,12.7c-4.2,8.1-13.4,3.4-22.5,2.5c-9.5-0.9-15.2-2.5-23.2,4.4
					c-7.2,6.2-10.2,11.9-8.9,21.3c0.4,2.9,1.3,5.8,0.3,8.5c-1.3,3.5-5.4,5.1-9.1,5.4s-7.5-0.4-11.2,0.4c-7.7,1.7-13.9,7.2-16.3,16
					c-3.1,11.7,3.4,24.2-7.7,37.6c-5.7,6.9-13-1-14.7,1.4c0.9-8.2,2.4-16.2,4.6-24c1.5-5.2,3.2-10.4,5.2-15.4
					c16-39.8,48.7-71.9,91-86c5.8-1.9,11.7-3.5,17.8-4.8c1.6-0.3,3.2-0.6,4.8-0.9c25.7-4.4,51-1.9,74,6.2
					C575.9,257.2,576.1,257.2,576.2,257.3z"/>
				<path class="st10" d="M583.7,260.1c-3.3-1.1-6.6-2.1-9.9-3c-24.7-6.6-51.4-7.2-78-0.6c-1.7,0.4-3.3,0.8-4.9,1.3
					c-6.3,1.8-12.4,3.9-18.3,6.4c-76.7,27.7-93.8,112.3-92.2,104.7c1.1-5.3,2.4-10.6,4-15.7c12.9-40.9,43.2-75.3,84.3-92.6
					c5.6-2.4,11.4-4.4,17.4-6.1c1.6-0.4,3.1-0.9,4.7-1.3c25.3-6.3,50.7-5.7,74.2,0.6c3.2,0.8,6.4,1.8,9.5,2.9
					c0.3,0.1,0.6,0.2,0.8,0.3c1.2,0.4,2.3,0.8,3.5,1.3C580.5,258.8,582.1,259.5,583.7,260.1z"/>
				
					<ellipse transform="matrix(0.6006 -0.7995 0.7995 0.6006 -71.4271 510.9837)" class="st63" cx="475.8" cy="327" rx="5.2" ry="3"/>
				<path class="st63" d="M547.3,362.2c1.5,1.7,0.3,5-2.5,7.6c-2.8,2.5-6.3,3.2-7.8,1.6s-0.3-5,2.5-7.6
					C542.4,361.2,545.9,360.5,547.3,362.2z"/>
				<path class="st65" d="M542.2,330.5c0.5,0.5,0.2,1.6-0.6,2.4c-0.9,0.9-1.9,1.1-2.4,0.6s-0.2-1.6,0.6-2.4
					C540.7,330.2,541.7,330,542.2,330.5z"/>
				<path class="st65" d="M503.2,319.9c0.3,0.4-0.1,1.1-0.7,1.6c-0.7,0.5-1.4,0.5-1.7,0.1c-0.3-0.4,0.1-1.1,0.7-1.6
					S502.9,319.5,503.2,319.9z"/>
				
					<ellipse transform="matrix(0.4664 -0.8846 0.8846 0.4664 -85.03 605.38)" class="st65" cx="459.3" cy="373.2" rx="12.9" ry="7.5"/>
				<path class="st63" d="M508.9,276.7c0.3,1.3-1.2,2.8-3.4,3.4c-2.2,0.6-4.3,0-4.7-1.3c-0.3-1.3,1.2-2.8,3.4-3.4
					C506.5,274.8,508.6,275.4,508.9,276.7z"/>
				
					<ellipse transform="matrix(0.7491 -0.6625 0.6625 0.7491 -86.7311 460.0242)" class="st63" cx="563.9" cy="344.5" rx="2.4" ry="1.4"/>
				
					<ellipse transform="matrix(0.3938 -0.9192 0.9192 0.3938 -65.6654 583.2631)" class="st63" cx="409.4" cy="341.4" rx="2.4" ry="1.4"/>
				<path class="st67" d="M411.6,357.2c0.5,0.2,0.6,1,0.3,1.8s-0.9,1.3-1.4,1.2c-0.5-0.2-0.6-1-0.3-1.8
					C410.5,357.6,411.1,357,411.6,357.2z"/>
				<path class="st67" d="M459.2,297.2c0.3,0.4,0,1.1-0.7,1.6s-1.5,0.6-1.8,0.2s0-1.1,0.7-1.6C458.2,296.9,459,296.8,459.2,297.2z"
					/>
				<path class="st63" d="M455.5,324.6c0.4,0.3,0.2,1.1-0.3,1.8s-1.3,0.9-1.7,0.6c-0.4-0.3-0.2-1.1,0.3-1.8S455.1,324.3,455.5,324.6
					z"/>
				<path class="st63" d="M550,282c0.2,0.7-0.7,1.6-1.9,1.9c-1.3,0.3-2.4,0-2.6-0.7c-0.2-0.7,0.7-1.6,1.9-1.9
					C548.6,280.9,549.8,281.2,550,282z"/>
				<path class="st10" d="M470.7,272.6c0.4,0.7-0.2,1.7-1.4,2.4s-2.3,0.6-2.7,0c-0.4-0.7,0.2-1.7,1.4-2.4
					C469.1,271.9,470.3,271.9,470.7,272.6z"/>
				<path class="st10" d="M545.7,261.8c0,0.5-0.7,0.8-1.6,0.8c-0.8-0.1-1.5-0.5-1.5-1s0.7-0.8,1.6-0.8
					C545.1,260.9,545.7,261.4,545.7,261.8z"/>
				<path class="st65" d="M565.9,299.3c0.7,1.7-1.2,4.1-4.2,5.2s-5.9,0.7-6.6-1.1c-0.7-1.7,1.2-4.1,4.2-5.2
					C562.3,297.1,565.2,297.6,565.9,299.3z"/>
				<path class="st65" d="M592.5,282.7c-0.1,0.5-0.9,0.6-1.7,0.4s-1.3-0.8-1.2-1.3s0.9-0.6,1.7-0.4
					C592.1,281.7,592.6,282.3,592.5,282.7z"/>
				
					<ellipse transform="matrix(0.6006 -0.7995 0.7995 0.6006 -83.6606 470.4904)" class="st10" cx="429.1" cy="319" rx="3.6" ry="2.1"/>
				<path class="st42" d="M666.1,451.4c-1.5,4-3.2,7.9-5.1,11.7c-7.1,14.6-16.5,28-28,39.7c-5,5.1-10.4,9.8-16.1,14.2
					c-15.7,11.9-34,20.9-54.3,25.9c-25.8,6.4-51.7,5.7-75.6-0.9c-0.9-0.2-1.8-0.5-2.6-0.8c-4.8-1.4-9.5-3.1-14.1-5
					c-25.5-10.4-47.9-27.8-64.4-50.4c-1.2-1.7-2.4-3.4-3.6-5.2c-2.1-3.1-4.1-6.4-5.9-9.7c-3-5.4-5.8-11.1-8.1-17
					c-0.9-2.3-1.8-4.6-2.6-7c-0.7-2-1.3-4-1.9-6c-0.7-2.3-1.3-4.6-1.9-6.9c-2.6-10.4-4-20.8-4.3-31.1c0,0,49.5-2.3,69.4-7.2
					c20.3-5,58.2-19.3,85.5-45.5c54.2-52,42.2-93.5,42.2-93.5c0.3,0.1,0.6,0.2,0.8,0.3c1.2,0.4,2.3,0.8,3.5,1.3
					c5.7,2.1,11.3,4.6,16.7,7.4c7.8,4,15.2,8.8,22.1,14.1c0.5,0.4,1,0.7,1.4,1.1c10.1,7.9,19.2,17.2,27,27.6
					c8.6,11.4,15.6,24.2,20.7,38.1c1.8,5,3.4,10.2,4.8,15.6v0.1c1.5,6.2,2.7,12.5,3.4,18.7C677.9,405.4,674.5,429.5,666.1,451.4z"/>
			</g>
		</g>
	</g>
	<rect class="st68" width="360" height="360"/>
</g>
</svg>
