<?xml version="1.0" encoding="utf-8"?>
<!-- Generator: Adobe Illustrator 25.3.1, SVG Export Plug-In . SVG Version: 6.00 Build 0)  -->
<svg version="1.1" id="Layer_1" xmlns="http://www.w3.org/2000/svg" xmlns:xlink="http://www.w3.org/1999/xlink" x="0px" y="0px"
	 viewBox="0 0 4209.6 2699" style="enable-background:new 0 0 4209.6 2699;" xml:space="preserve">
<style type="text/css">
	.st0{clip-path:url(#SVGID_2_);}
	.st1{fill:url(#SVGID_3_);}
	.st2{fill:#FFFFFF;}
	.st3{fill:none;}
	.st4{fill:url(#SVGID_4_);}
	.st5{fill:#F4F2D2;}
	.st6{opacity:0.6;}
	.st7{opacity:3.000000e-02;fill:url(#SVGID_5_);}
	.st8{opacity:0.13;fill:url(#SVGID_6_);}
	.st9{opacity:8.000000e-02;fill:url(#SVGID_7_);}
	.st10{fill:url(#SVGID_8_);}
	.st11{fill:url(#SVGID_9_);}
	.st12{fill:url(#SVGID_10_);}
</style>
<g>
	<defs>
		<rect id="SVGID_1_" x="0" width="4209.6" height="2699"/>
	</defs>
	<clipPath id="SVGID_2_">
		<use xlink:href="#SVGID_1_"  style="overflow:visible;"/>
	</clipPath>
	<g id="Layer_2_1_" class="st0">
		<g id="Layer_1-2">
			
				<radialGradient id="SVGID_3_" cx="7026.1299" cy="1903.2776" r="2154.23" gradientTransform="matrix(-1 0 0 -0.98 8059.5898 2549.6201)" gradientUnits="userSpaceOnUse">
				<stop  offset="0" style="stop-color:#3ACCF3"/>
				<stop  offset="0.12" style="stop-color:#37ADE7"/>
				<stop  offset="0.39" style="stop-color:#315FC7"/>
				<stop  offset="0.57" style="stop-color:#293DA1"/>
				<stop  offset="0.75" style="stop-color:#222282"/>
				<stop  offset="0.89" style="stop-color:#1E1270"/>
				<stop  offset="1" style="stop-color:#1D0C69"/>
			</radialGradient>
			<rect class="st1" width="4209.6" height="2694.1"/>
			<path class="st2" d="M1623.2,1244.1c-11.9,0-11.9,18.5,0,18.5S1635.2,1244.1,1623.2,1244.1z"/>
			<path class="st2" d="M134.3,994.5c-19.5,0-19.5,30.3,0,30.3S153.8,994.5,134.3,994.5z"/>
			<path class="st2" d="M3468.3,231.3c-15.2,0-15.2,23.6,0,23.6S3483.5,231.3,3468.3,231.3z"/>
			<path class="st2" d="M3243.4,1008.3c-15.2,0-15.2,23.6,0,23.6S3258.6,1008.3,3243.4,1008.3z"/>
			<path class="st2" d="M1216,121.8c-15.2,0-15.2,23.6,0,23.6S1231.2,121.8,1216,121.8z"/>
			<path class="st2" d="M3845.6,1246.5c-16.2,0-16.3,25.3,0,25.3S3861.9,1246.5,3845.6,1246.5z"/>
			<path class="st2" d="M3576.4,1068c-7.6,0-7.6,11.8,0,11.8S3584,1068,3576.4,1068z"/>
			<path class="st2" d="M4021.7,336.5c-7.6,0-7.6,11.8,0,11.8S4029.3,336.5,4021.7,336.5z"/>
			<path class="st2" d="M2658.5,933.9c-7.6,0-7.6,11.8,0,11.8S2666.1,933.9,2658.5,933.9z"/>
			<path class="st2" d="M1511,1520.4c-7.6,0-7.6,11.8,0,11.8S1518.6,1520.4,1511,1520.4z"/>
			<path class="st2" d="M2932.2,113.4c-10.8,0-10.9,16.8,0,16.8S2943,113.4,2932.2,113.4z"/>
			<path class="st2" d="M2419.7,1034.5c-10.8,0-10.9,16.8,0,16.8S2430.5,1034.5,2419.7,1034.5z"/>
			<path class="st2" d="M2926.3,696.4c-10.8,0-10.9,16.8,0,16.8S2937.1,696.4,2926.3,696.4z"/>
			<path class="st2" d="M2402.8,228c-10.8,0-10.9,16.8,0,16.8S2413.7,228,2402.8,228z"/>
			<path class="st2" d="M2172,738.8c-10.8,0-10.9,16.8,0,16.8S2182.8,738.8,2172,738.8z"/>
			<path class="st2" d="M1970.1,379.1c-10.8,0-10.8,16.8,0,16.8S1981,379.1,1970.1,379.1z"/>
			<path class="st2" d="M1587.1,1775.6c-7.6,0-7.6,11.8,0,11.8S1594.7,1775.6,1587.1,1775.6z"/>
			<path class="st2" d="M2394.7,1341.2c-7.6,0-7.6,11.8,0,11.8S2402.3,1341.2,2394.7,1341.2z"/>
			<path class="st2" d="M2180.1,1396.1c-7.6,0-7.6,11.8,0,11.8S2187.7,1396.1,2180.1,1396.1z"/>
			<path class="st2" d="M1128.9,755.6c-13,0-13,20.2,0,20.2S1141.9,755.6,1128.9,755.6z"/>
			<path class="st2" d="M782.5,225.7c-8.7,0-8.7,13.5,0,13.5S791.2,225.7,782.5,225.7z"/>
			<path class="st2" d="M2068.3,108.9c-2.7-2.6-6.9-2.6-9.5,0l-4.2,4.2c-2.5,2.7-2.4,7,0.4,9.5c2.6,2.4,6.6,2.4,9.2,0l4.2-4.2
				C2070.8,115.9,2071,111.3,2068.3,108.9z"/>
			<path class="st2" d="M1369.4,513.6c-2.7-2.6-6.9-2.6-9.5,0l-4.2,4.2c-2.5,2.5-2.7,7.1,0,9.5c2.7,2.6,6.9,2.6,9.5,0l4.2-4.2
				C1371.9,520.6,1372.1,516,1369.4,513.6z"/>
			<path class="st2" d="M940.8,1276.8c-15.2,0-15.2,23.6,0,23.6S956,1276.8,940.8,1276.8z"/>
			<path class="st2" d="M1826.6,1544.1c-15.2,0-15.2,23.6,0,23.6S1841.8,1544.1,1826.6,1544.1z"/>
			<path class="st2" d="M4004.6,595.1c-15.2,0-15.2,23.6,0,23.6S4019.8,595.1,4004.6,595.1z"/>
			<path class="st2" d="M2326.4,1241.6c-15.2,0-15.2,23.6,0,23.6S2341.6,1241.6,2326.4,1241.6z"/>
			<path class="st2" d="M2860.8,811.6c-15.2,0-15.2,23.6,0,23.6S2876,811.6,2860.8,811.6z"/>
			<path class="st2" d="M407.7,414.7c-15.2,0-15.2,23.6,0,23.6S422.9,414.7,407.7,414.7z"/>
			<path class="st2" d="M992.8,570.5h-5c-2.2,0-4.4,0.9-6,2.5c-3.3,3.3-3.3,8.6,0,11.9c1.6,1.6,3.7,2.5,6,2.5h5c2.2,0,4.4-0.9,6-2.5
				c3.3-3.3,3.3-8.6,0-11.9C997.2,571.3,995.1,570.5,992.8,570.5z"/>
			<path class="st2" d="M237.2,232.4h-4.9c-2.2,0-4.4,0.9-5.9,2.5c-3.3,3.3-3.3,8.6,0,11.9c1.6,1.6,3.7,2.5,6,2.5h4.9
				c2.2,0,4.4-0.9,6-2.5c3.3-3.3,3.3-8.6,0-11.9C241.6,233.3,239.4,232.4,237.2,232.4L237.2,232.4z"/>
			<path class="st2" d="M426.2,1081.7h-5c-2.2,0-4.4,0.9-6,2.5c-3.3,3.3-3.3,8.6,0,11.9c1.6,1.6,3.7,2.5,6,2.5h5
				c2.2,0,4.4-0.9,6-2.5c3.3-3.3,3.3-8.6,0-11.9C430.6,1082.6,428.5,1081.7,426.2,1081.7z"/>
			<path class="st2" d="M4035.1,852.6h-5c-2.2,0-4.4,0.9-5.9,2.5c-3.3,3.3-3.3,8.6,0,11.9c1.6,1.6,3.7,2.5,6,2.5h5
				c2.2,0,4.3-0.9,5.9-2.5c3.3-3.3,3.3-8.6,0-11.9C4039.4,853.5,4037.3,852.6,4035.1,852.6L4035.1,852.6z"/>
			<path class="st2" d="M3716.7,90.7h-5c-2.2,0-4.4,0.9-6,2.5c-3.3,3.3-3.3,8.6,0,11.9c1.6,1.6,3.7,2.5,6,2.5h5
				c2.2,0,4.4-0.9,5.9-2.5c3.3-3.3,3.3-8.6,0-11.9C3721,91.6,3718.9,90.7,3716.7,90.7z"/>
			<path class="st2" d="M3716.7,520.8h-5c-2.2,0-4.4,0.9-6,2.5c-3.3,3.3-3.3,8.6,0,11.9c1.6,1.6,3.7,2.5,6,2.5h5
				c2.2,0,4.4-0.9,5.9-2.5c3.3-3.3,3.3-8.6,0-11.9C3721.1,521.7,3718.9,520.8,3716.7,520.8z"/>
			<path class="st2" d="M3504.1,1527.2h-5c-2.2,0-4.4,0.9-5.9,2.5c-3.3,3.3-3.3,8.6,0,11.9c1.6,1.6,3.7,2.5,6,2.5h5
				c2.2,0,4.4-0.9,5.9-2.5c3.3-3.3,3.3-8.6,0-11.9C3508.5,1528.1,3506.4,1527.2,3504.1,1527.2z"/>
			<path class="st2" d="M1685.8,893.5c-1.9-1.9-4.5-2.9-7.1-3h-3.7c-2.7,0-5.2,1.1-7.2,3c-3.9,3.9-3.9,10.3,0,14.3c0,0,0,0,0,0
				c1.9,1.9,4.5,2.9,7.2,3h3.7c2.7,0,5.2-1.1,7.1-3C1689.7,903.8,1689.7,897.5,1685.8,893.5C1685.8,893.5,1685.8,893.5,1685.8,893.5
				z"/>
			<path class="st2" d="M2070.4,987.3c-1.9-1.9-4.5-2.9-7.1-3h-3.7c-2.7,0-5.2,1.1-7.1,3c-3.9,3.9-3.9,10.3,0,14.3c0,0,0,0,0,0
				c1.9,1.9,4.5,2.9,7.1,3h3.7c2.7,0,5.2-1.1,7.1-3C2074.4,997.7,2074.4,991.3,2070.4,987.3C2070.5,987.3,2070.5,987.3,2070.4,987.3
				z"/>
			<path class="st2" d="M2070.4,666.9c-1.9-1.9-4.5-2.9-7.1-3h-3.7c-2.7,0-5.2,1.1-7.1,3c-1.9,1.9-3,4.5-3,7.2c0,2.7,1.1,5.2,3,7.1
				c1.9,1.9,4.5,2.9,7.1,3h3.7c2.7,0,5.2-1.1,7.1-3C2074.4,677.2,2074.4,670.8,2070.4,666.9C2070.5,666.9,2070.5,666.9,2070.4,666.9
				L2070.4,666.9z"/>
			<path class="st2" d="M254.6,1507.1c-1.9-1.9-4.5-2.9-7.1-3h-3.7c-2.7,0-5.2,1.1-7.1,3c-1.9,1.9-3,4.5-3,7.2c0,2.7,1.1,5.2,3,7.1
				c1.9,1.9,4.5,3,7.1,3h3.7c2.7,0,5.2-1.1,7.1-3C258.5,1517.5,258.5,1511.1,254.6,1507.1C254.6,1507.1,254.6,1507.1,254.6,1507.1z"
				/>
			<path class="st2" d="M1604.8,210.6c-9.8,0-9.8,15.2,0,15.2S1614.6,210.6,1604.8,210.6z"/>
			<path class="st2" d="M840.5,905.7c-6.5,0-6.5,10.1,0,10.1S847,905.7,840.5,905.7z"/>
			<path class="st2" d="M1256.3,1015.1c-6.5,0-6.5,10.1,0,10.1S1262.8,1015.1,1256.3,1015.1z"/>
			<path class="st2" d="M1183.3,1782.3c-6.5,0-6.5,10.1,0,10.1S1189.8,1782.3,1183.3,1782.3z"/>
			<path class="st2" d="M496.7,690.1c-6.5,0-6.5,10.1,0,10.1S503.2,690.1,496.7,690.1z"/>
			<path class="st2" d="M569.7,161.5c-6.5,0-6.5,10.1,0,10.1S576.2,161.5,569.7,161.5z"/>
			<path class="st2" d="M2834,409.6c-6.5,0-6.5,10.1,0,10.1S2840.5,409.6,2834,409.6z"/>
			<path class="st2" d="M2586.4,140.4c-6.5,0-6.5,10.1,0,10.1S2592.9,140.4,2586.4,140.4z"/>
			<path class="st2" d="M2009.7,166.5c-6.5,0-6.5,10.1,0,10.1S2016.2,166.5,2009.7,166.5z"/>
			<path class="st2" d="M2432.7,618.7c-6.5,0-6.5,10.1,0,10.1S2439.2,618.7,2432.7,618.7z"/>
			<path class="st2" d="M3309.2,1356.3c-6.5,0-6.5,10.1,0,10.1S3315.7,1356.3,3309.2,1356.3z"/>
			<path class="st2" d="M3845.6,2474c-6.5,0-6.5,10.1,0,10.1S3852.1,2474,3845.6,2474z"/>
			<path class="st2" d="M3494.2,1969.3c-6.5,0-6.5,10.1,0,10.1S3500.8,1969.3,3494.2,1969.3z"/>
			<path class="st2" d="M2586.4,1355.4c-6.5,0-6.5,10.1,0,10.1S2592.9,1355.4,2586.4,1355.4z"/>
			<path class="st2" d="M3053.8,1342c-6.5,0-6.5,10.1,0,10.1S3060.3,1342,3053.8,1342z"/>
			<path class="st2" d="M4048.5,1323.2c7.6,0,7.6-11.8,0-11.8S4040.9,1323.2,4048.5,1323.2z"/>
			<path class="st2" d="M3827.7,875.4c7.6,0,7.6-11.8,0-11.8S3820.1,875.4,3827.7,875.4z"/>
			<path class="st2" d="M3905.7,945.7c7.6,0,7.6-11.8,0-11.8S3898.1,945.7,3905.7,945.7z"/>
			<path class="st2" d="M4107.8,216.5c7.6,0,7.6-11.8,0-11.8S4100.2,216.5,4107.8,216.5z"/>
			<path class="st2" d="M3900,238.4c7.6,0,7.6-11.8,0-11.8S3892.4,238.4,3900,238.4z"/>
			<path class="st2" d="M693.3,1678.9c-10.8,0-10.9,16.8,0,16.8S704.2,1678.9,693.3,1678.9z"/>
			<path class="st2" d="M2609.9,2139c11.9,0,11.9-18.5,0-18.5S2598,2139,2609.9,2139z"/>
			<path class="st2" d="M4098.9,2388.7c19.5,0,19.5-30.3,0-30.3S4079.4,2388.7,4098.9,2388.7z"/>
			<path class="st2" d="M3054.7,1870.5c15.2,0,15.2-23.6,0-23.6S3039.5,1870.5,3054.7,1870.5z"/>
			<path class="st2" d="M387.6,2136.6c16.2,0,16.3-25.3,0-25.3S371.3,2136.6,387.6,2136.6z"/>
			<path class="st2" d="M656.8,2315.2c7.6,0,7.6-11.8,0-11.8S649.2,2315.2,656.8,2315.2z"/>
			<path class="st2" d="M1574.7,2449.2c7.6,0,7.6-11.8,0-11.8S1567.1,2449.2,1574.7,2449.2z"/>
			<path class="st2" d="M2722.1,1862.7c7.6,0,7.6-11.8,0-11.8S2714.5,1862.7,2722.1,1862.7z"/>
			<path class="st2" d="M837.9,2699c10.8,0,10.8-16.8,0-16.8S827,2699,837.9,2699z"/>
			<path class="st2" d="M1070,2340.2c10.8,0,10.9-16.8,0-16.8S1059.2,2340.2,1070,2340.2z"/>
			<path class="st2" d="M1306.9,2686.7c10.8,0,10.8-16.8,0-16.8S1296,2686.7,1306.9,2686.7z"/>
			<path class="st2" d="M2061.2,2644.3c10.8,0,10.9-16.8,0-16.8S2050.3,2644.3,2061.2,2644.3z"/>
			<path class="st2" d="M2646.1,1607.6c7.6,0,7.6-11.8,0-11.8S2638.4,1607.6,2646.1,1607.6z"/>
			<path class="st2" d="M1838.4,2041.9c7.6,0,7.6-11.8,0-11.8S1830.8,2041.9,1838.4,2041.9z"/>
			<path class="st2" d="M3622.9,2484.1c7.6,0,7.6-11.8,0-11.8S3615.3,2484.1,3622.9,2484.1z"/>
			<path class="st2" d="M2053,1987c7.6,0,7.6-11.8,0-11.8S2045.4,1987,2053,1987z"/>
			<path class="st2" d="M3104.3,2627.5c13,0,13-20.2,0-20.2S3091.2,2627.5,3104.3,2627.5z"/>
			<path class="st2" d="M3292.3,2106.4c15.2,0,15.2-23.6,0-23.6S3277.1,2106.4,3292.3,2106.4z"/>
			<path class="st2" d="M2406.5,1839.1c15.2,0,15.2-23.6,0-23.6S2391.3,1839.1,2406.5,1839.1z"/>
			<path class="st2" d="M1906.7,2141.6c15.2,0,15.2-23.6,0-23.6S1891.6,2141.6,1906.7,2141.6z"/>
			<path class="st2" d="M3020.4,1305.2c15.2,0,15.2-23.6,0-23.6S3005.2,1305.2,3020.4,1305.2z"/>
			<path class="st2" d="M3806.9,2301.4h5c2.2,0,4.4-0.9,6-2.5c3.3-3.3,3.3-8.6,0-11.9c-1.6-1.6-3.7-2.5-6-2.5h-5
				c-2.2,0-4.3,0.9-5.9,2.5c-3.3,3.3-3.3,8.6,0,11.9C3802.6,2300.5,3804.7,2301.4,3806.9,2301.4L3806.9,2301.4z"/>
			<path class="st2" d="M198.1,2530.5h4.9c2.2,0,4.4-0.9,6-2.5c3.3-3.3,3.3-8.6,0-11.9c-1.6-1.6-3.8-2.5-6-2.5h-4.9
				c-2.2,0-4.4,0.9-5.9,2.5c-3.3,3.3-3.3,8.6,0,11.9C193.7,2529.6,195.8,2530.5,198.1,2530.5L198.1,2530.5z"/>
			<path class="st2" d="M729,1855.9h5c4.7,0,8.4-3.8,8.4-8.4c0-4.6-3.8-8.4-8.4-8.4h-5c-2.2,0-4.4,0.9-6,2.5
				c-3.3,3.3-3.3,8.6,0,11.9C724.6,1855,726.8,1855.9,729,1855.9z"/>
			<path class="st2" d="M2547.4,2489.6c1.9,1.9,4.5,2.9,7.1,3h3.7c2.7,0,5.2-1.1,7.1-3c3.9-3.9,3.9-10.3,0-14.3c0,0,0,0,0,0
				c-1.9-1.9-4.5-2.9-7.1-3h-3.7c-2.7,0-5.2,1.1-7.1,3C2543.4,2479.3,2543.4,2485.7,2547.4,2489.6
				C2547.4,2489.6,2547.4,2489.6,2547.4,2489.6z"/>
			<path class="st2" d="M2162.7,2395.8c1.9,1.9,4.5,2.9,7.1,3h3.7c2.7,0,5.2-1.1,7.1-3c3.9-3.9,3.9-10.3,0-14.3c0,0,0,0,0,0
				c-1.9-1.9-4.5-2.9-7.1-3h-3.7c-2.7,0-5.2,1.1-7.1,3C2158.8,2385.5,2158.8,2391.9,2162.7,2395.8z"/>
			<path class="st2" d="M3978.6,1876c1.9,1.9,4.5,3,7.1,3h3.7c2.7,0,5.2-1.1,7.1-3c3.9-3.9,3.9-10.3,0-14.3c0,0,0,0,0,0
				c-1.9-1.9-4.5-3-7.1-3h-3.7c-2.7,0-5.2,1.1-7.1,3C3974.6,1865.7,3974.6,1872,3978.6,1876C3978.6,1876,3978.6,1876,3978.6,1876z"
				/>
			<path class="st2" d="M3392.6,2477.4c6.5,0,6.5-10.1,0-10.1S3386.1,2477.4,3392.6,2477.4z"/>
			<path class="st2" d="M2976.9,2368c6.5,0,6.5-10.1,0-10.1S2970.4,2368,2976.9,2368z"/>
			<path class="st2" d="M2263.3,1595.8c6.5,0,6.5-10.1,0-10.1S2256.8,1595.8,2263.3,1595.8z"/>
			<path class="st2" d="M3049.8,1600.8c6.5,0,6.5-10.1,0-10.1S3043.3,1600.8,3049.8,1600.8z"/>
			<path class="st2" d="M3736.4,2693c6.5,0,6.5-10.1,0-10.1S3729.9,2693,3736.4,2693z"/>
			<path class="st2" d="M924,2026.8c6.5,0,6.5-10.1,0-10.1S917.5,2026.8,924,2026.8z"/>
			<path class="st2" d="M1646.8,2027.7c6.5,0,6.5-10.1,0-10.1S1640.3,2027.7,1646.8,2027.7z"/>
			<path class="st2" d="M184.7,2060c-7.6,0-7.6,11.8,0,11.8S192.3,2060,184.7,2060z"/>
			<path class="st2" d="M405.5,2507.7c-7.6,0-7.6,11.8,0,11.8S413.1,2507.7,405.5,2507.7z"/>
			<path class="st2" d="M327.5,2437.4c-7.6,0-7.6,11.8,0,11.8S335.1,2437.4,327.5,2437.4z"/>
			<path class="st2" d="M3539.8,1704.2c10.8,0,10.9-16.8,0-16.8S3529,1704.2,3539.8,1704.2z"/>
			<rect class="st3" width="4209.6" height="2694.1"/>
		</g>
	</g>
	<g class="st0">
		<linearGradient id="SVGID_4_" gradientUnits="userSpaceOnUse" x1="2135.9558" y1="3307.2913" x2="2135.9558" y2="315.3878">
			<stop  offset="7.485390e-02" style="stop-color:#000E2C"/>
			<stop  offset="0.6608" style="stop-color:#0C2E3D"/>
			<stop  offset="0.7605" style="stop-color:#081D27"/>
			<stop  offset="0.9123" style="stop-color:#02080B"/>
			<stop  offset="1" style="stop-color:#000000"/>
		</linearGradient>
		<polygon class="st4" points="-149.4,-24.3 -149.4,858.9 -149.4,2723.3 4421.3,2723.3 4421.3,1489.8 4421.3,-24.3 		"/>
		<g>
			<g>
				<g>
					<path class="st5" d="M-10.9,762.1c0,10.8-18.9,10.8-18.9,0C-29.8,751.3-10.9,751.3-10.9,762.1z"/>
					<path class="st5" d="M328.6,287c-5.7,3.9-1.6,13,3.3,7.3C333.8,292.2,335.3,282.3,328.6,287C327.8,287.6,332.2,284.5,328.6,287
						z"/>
					<path class="st5" d="M-5.7,398.6c-3.6,0-3.1,4.9,0.5,4.9C-1.7,403.5-2.2,398.6-5.7,398.6z"/>
					<path class="st5" d="M204.8,471.1c-4.1,0-3.5,5.6,0.5,5.6C209.4,476.7,208.8,471.1,204.8,471.1z"/>
					<path class="st5" d="M507.4,442.5c-5.6-5.9-8.6-1.6-10.6,1C472.9,453.6,527,463.4,507.4,442.5
						C504.9,439.9,511.6,446.9,507.4,442.5z"/>
					<path class="st5" d="M218.3,766.4c-7.1,0-6.1,9.6,0.9,9.6C226.3,776,225.3,766.4,218.3,766.4z"/>
					<path class="st5" d="M387.8,705.7c-4,0-3.5,5.5,0.6,5.5C392.4,711.3,391.8,705.7,387.8,705.7z"/>
					<path class="st5" d="M131.5,893.6c-4.4,0-3.8,6,0.6,6C136.5,899.6,135.9,893.6,131.5,893.6z"/>
					<path class="st5" d="M131.2,1108.7c-9.3,0-8,12.7,1.2,12.7C141.7,1121.4,140.4,1108.7,131.2,1108.7z"/>
					<path class="st5" d="M-26.4,1174.1c-5.4,0-4.7,7.4,0.7,7.4C-20.3,1181.4-21,1174.1-26.4,1174.1z"/>
					<path class="st5" d="M209.2,1246.9c-5.3,0-4.6,7.3,0.7,7.3C215.3,1254.2,214.6,1246.9,209.2,1246.9z"/>
					<path class="st5" d="M440.4,1082.8c-5.8,0-5,7.9,0.7,7.9C446.9,1090.7,446,1082.8,440.4,1082.8z"/>
					<path class="st5" d="M529.3,225.8c-10.9,0-9.4,14.8,1.4,14.8C541.5,240.6,540.1,225.8,529.3,225.8z"/>
					<path class="st5" d="M834.1,287.9c-5.6-2.3-9.5,0.1-6.7,5.4C835.3,297.8,837.5,296,834.1,287.9
						C833.1,287.5,837.4,289.3,834.1,287.9z"/>
					<path class="st5" d="M811.1,363.5c-4.6,0-4,6.3,0.6,6.3C816.4,369.9,815.8,363.5,811.1,363.5z"/>
					<path class="st5" d="M1091,226c-4.6-6.3-18.5,2.9-18.1,7.7C1074.2,247,1100,238.4,1091,226C1088.9,223.1,1092.8,228.5,1091,226
						z"/>
					<path class="st5" d="M994.1,417.5c-5.6,0-4.9,7.6,0.7,7.6C1000.4,425.1,999.7,417.5,994.1,417.5z"/>
					<path class="st5" d="M1205.6,567.9c1.7-3.4-16.6,8.2-2.6,6.4C1205.5,573.9,1212.9,568.8,1205.6,567.9z"/>
					<path class="st5" d="M1071.9,832.3c-5.4,0-4.6,7.3,0.7,7.3C1078,839.6,1077.2,832.3,1071.9,832.3z"/>
					<path class="st5" d="M946,1064.4c-6.1,0-5.2,8.3,0.8,8.3C952.9,1072.7,952.1,1064.4,946,1064.4z"/>
					<path class="st5" d="M1368.9,724.1c-4.7-18-15.9-3.5-17.1,1.3C1349,736.5,1372.5,738.1,1368.9,724.1
						C1367.7,719.4,1369.6,726.8,1368.9,724.1z"/>
					<path class="st5" d="M1353.4,892.4c-2.1-2.3-10.9-8.7-11.5-0.6C1340.9,906.1,1360.2,899.8,1353.4,892.4
						C1352.9,891.9,1356,895.2,1353.4,892.4z"/>
					<path class="st5" d="M1529.3,633.4c-11.1,0.8-14.9,16.9-0.9,15.9C1538.5,648.7,1540.6,632.5,1529.3,633.4
						C1527.6,633.5,1534.3,633,1529.3,633.4z"/>
					<path class="st5" d="M1346.4,426.4c-7.4,0-6.4,10,0.9,10C1354.7,436.4,1353.7,426.4,1346.4,426.4z"/>
					<path class="st5" d="M1475.6,354.8c-3.5-5.6-13.5-1.7-7.8,2.5C1470.2,359,1479.6,361.1,1475.6,354.8
						C1475.1,354,1476.4,356,1475.6,354.8z"/>
					<path class="st5" d="M1585.4,458c-1.9-2.5-11.1,1.9-7.2,5.6C1581.4,466.8,1586.9,459.9,1585.4,458
						C1583.8,456,1586.8,459.8,1585.4,458z"/>
					<path class="st5" d="M1685.5,465.1c-1.1-12.4-20.2-7.2-20.5,3.4C1664.5,480.5,1686.4,475.7,1685.5,465.1
						C1685,460.7,1685.7,468.1,1685.5,465.1z"/>
					<path class="st5" d="M1259.6,295c-4.4,0-3.8,5.9,0.6,5.9C1264.6,300.9,1264,295,1259.6,295z"/>
					<path class="st5" d="M1101.8,493.9c-3.2,0-2.8,4.4,0.4,4.4C1105.5,498.3,1105,493.9,1101.8,493.9z"/>
					<path class="st5" d="M522.8,588.1c-4.5,0-3.9,6.1,0.6,6.1S527.2,588.1,522.8,588.1z"/>
					<path class="st5" d="M1555.7,1030.4c-3.1-6.5-12.8-5.6-15.1,0.4C1536,1045.9,1560.9,1041.8,1555.7,1030.4
						C1553,1024.6,1556.3,1031.8,1555.7,1030.4z"/>
					<g>
						<path class="st5" d="M1235.4,1050.9C1235.4,1050.9,1235.5,1050.9,1235.4,1050.9C1235.4,1050.9,1235.5,1050.9,1235.4,1050.9z"
							/>
					</g>
					<path class="st5" d="M1245.8,1220c-6.3,0-5.4,8.6,0.8,8.6C1252.9,1228.6,1252,1220,1245.8,1220z"/>
					<path class="st5" d="M97.3,1411.8c-3.8,0-3.3,5.2,0.5,5.2C101.5,1417,101,1411.8,97.3,1411.8z"/>
					<path class="st5" d="M1438,1279.2c-5.4,0-4.7,7.4,0.7,7.4C1444.1,1286.6,1443.4,1279.2,1438,1279.2z"/>
					<path class="st5" d="M1227.5,1396.2c-5.9,0-5.1,8.1,0.7,8.1C1234.1,1404.3,1233.3,1396.2,1227.5,1396.2z"/>
					<path class="st5" d="M962.1,1421.3c-4.7,0-4.1,6.5,0.6,6.5C967.5,1427.7,966.8,1421.3,962.1,1421.3z"/>
					<path class="st5" d="M505.1,672.5C498.9,664.7,511.8,681,505.1,672.5C503.7,670.7,506.4,674.1,505.1,672.5z"/>
					<path class="st5" d="M209.1,359.5c-9.7-0.1-5,24.8,8.1,14.4C222.6,367.5,219.9,362.7,209.1,359.5
						C205.8,359.5,215.1,359.6,209.1,359.5z"/>
					<path class="st5" d="M209.2,259.8c-5.5,0-4.7,7.5,0.7,7.5C215.5,267.3,214.7,259.8,209.2,259.8z"/>
					<path class="st5" d="M-63,475c-4.3,0-3.7,5.8,0.6,5.8C-58.2,480.8-58.7,475-63,475z"/>
					<path class="st5" d="M1259.6,428.1c1.4,0.9-19.9-0.7-12.8,7.7C1248.3,448,1271.4,436.2,1259.6,428.1
						C1256.3,425.8,1264.9,431.7,1259.6,428.1z"/>
					<path class="st5" d="M812.5,471.8c-3.3-15.1-22.9-1.6-14,4.2C805.7,480.5,810.4,479.1,812.5,471.8
						C812,469.7,813.1,474.5,812.5,471.8z"/>
					<path class="st5" d="M1136,650.7c-4.7,0-4,6.4,0.6,6.4C1141.3,657.1,1140.7,650.7,1136,650.7z"/>
				</g>
				<g>
					<path class="st5" d="M1865.9,666.3c0,13.2-23.1,13.2-23.1,0C1842.8,653.2,1865.9,653.2,1865.9,666.3z"/>
					<path class="st5" d="M1872.3,221.9c-4.4,0-3.8,6,0.5,6C1877.2,227.9,1876.6,221.9,1872.3,221.9z"/>
					<path class="st5" d="M2129.6,310.5c-5,0-4.3,6.8,0.6,6.8C2135.3,317.4,2134.6,310.5,2129.6,310.5z"/>
					<path class="st5" d="M2499.7,275.6c-6.8-7.3-10.5-2-13,1.2C2457.4,289.1,2523.6,301.1,2499.7,275.6
						C2496.6,272.4,2504.7,281,2499.7,275.6z"/>
					<path class="st5" d="M2146.2,671.6c-8.7,0-7.5,11.8,1.1,11.8C2155.9,683.4,2154.7,671.6,2146.2,671.6z"/>
					<path class="st5" d="M2353.4,597.4c-4.9,0-4.3,6.8,0.6,6.8C2359,604.2,2358.4,597.4,2353.4,597.4z"/>
					<path class="st5" d="M2040.1,827.1c-5.4,0-4.7,7.4,0.7,7.4C2046.2,834.5,2045.4,827.1,2040.1,827.1z"/>
					<path class="st5" d="M2039.7,1090.1c-11.4,0-9.8,15.5,1.5,15.5C2052.5,1105.6,2050.9,1090.1,2039.7,1090.1z"/>
					<path class="st5" d="M2135.1,1259.1c-6.6,0-5.7,8.9,0.8,8.9C2142.5,1268,2141.6,1259.1,2135.1,1259.1z"/>
					<path class="st5" d="M2417.6,1058.4c-7,0-6,9.6,0.9,9.6C2425.6,1068,2424.7,1058.4,2417.6,1058.4z"/>
					<path class="st5" d="M2518.5,453.7c-5.5,0-4.7,7.5,0.7,7.5C2524.7,461.1,2523.9,453.7,2518.5,453.7z"/>
					<path class="st5" d="M1998.2,1460.7c-4.7,0-4,6.3,0.6,6.3C2003.4,1467,2002.7,1460.7,1998.2,1460.7z"/>
					<path class="st5" d="M2496.8,556.8C2489.3,547.2,2505.1,567.2,2496.8,556.8C2495.1,554.6,2498.4,558.8,2496.8,556.8z"/>
					<path class="st5" d="M1802.3,315.3c-5.2,0-4.5,7.1,0.7,7.1C1808.2,322.4,1807.4,315.3,1802.3,315.3z"/>
				</g>
				<path class="st2" d="M2632.8,796.7C2632,796.9,2636.1,796.7,2632.8,796.7L2632.8,796.7z"/>
				<path class="st2" d="M2613.7,798.9C2612,799.7,2616.9,799.1,2613.7,798.9L2613.7,798.9z"/>
				<path class="st2" d="M2613.7,798.9c-0.3-0.8-0.8-1.5-1.3-2C2612.2,797.5,2612.7,799.4,2613.7,798.9z"/>
				<path class="st2" d="M2624.9,557.1C2629.6,557.4,2629.9,554.8,2624.9,557.1L2624.9,557.1z"/>
				<path class="st2" d="M2617.9,571.4c-0.4,0.4-0.6,0.9-0.6,1.4C2618.3,573,2618.1,571.9,2617.9,571.4z"/>
				<path class="st2" d="M2615.5,593.7C2614.4,592.3,2614,594.6,2615.5,593.7L2615.5,593.7z"/>
				<path class="st2" d="M2613.3,783.6C2612.6,784.2,2614.4,784,2613.3,783.6L2613.3,783.6z"/>
				<path class="st2" d="M2633.1,983c-0.4,0-0.7,0.1-1.1,0.1c0,0.5,0.3,0.9,0.8,1.2C2633.5,984.2,2634.2,983.1,2633.1,983z"/>
				<path class="st2" d="M2632,983"/>
				<path class="st2" d="M2631.4,997.9C2628.4,1001.9,2635.2,1001.6,2631.4,997.9L2631.4,997.9z"/>
				<path class="st2" d="M2635.2,934.9C2631.4,936.8,2638.7,936.9,2635.2,934.9L2635.2,934.9z"/>
			</g>
			<g>
				<g>
					<path class="st5" d="M-10.9,1627.7c0-10.8-18.9-10.8-18.9,0C-29.8,1638.5-10.9,1638.5-10.9,1627.7z"/>
					<path class="st5" d="M328.6,2102.8c-5.7-4-1.6-13,3.3-7.3C333.8,2097.7,335.3,2107.5,328.6,2102.8
						C327.8,2102.3,332.2,2105.3,328.6,2102.8z"/>
					<path class="st5" d="M-5.7,1991.2c-3.6,0-3.1-4.9,0.5-4.9C-1.7,1986.3-2.2,1991.2-5.7,1991.2z"/>
					<path class="st5" d="M204.8,1918.7c-4.1,0-3.5-5.6,0.5-5.6C209.4,1913.1,208.8,1918.7,204.8,1918.7z"/>
					<path class="st5" d="M507.4,1947.3c-5.6,5.9-8.6,1.6-10.6-1C472.9,1936.2,527,1926.4,507.4,1947.3
						C504.9,1949.9,511.6,1942.9,507.4,1947.3z"/>
					<path class="st5" d="M218.3,1623.4c-7.1,0-6.1-9.6,0.9-9.6C226.3,1613.8,225.3,1623.4,218.3,1623.4z"/>
					<path class="st5" d="M387.8,1684.1c-4,0-3.5-5.5,0.6-5.5C392.4,1678.5,391.8,1684.1,387.8,1684.1z"/>
					<path class="st5" d="M131.5,1496.2c-4.4,0-3.8-6,0.6-6C136.5,1490.2,135.9,1496.2,131.5,1496.2z"/>
					<path class="st5" d="M131.2,1281.1c-9.3,0-8-12.7,1.2-12.7C141.7,1268.4,140.4,1281.1,131.2,1281.1z"/>
					<path class="st5" d="M-26.4,1215.8c-5.4,0-4.7-7.4,0.7-7.4C-20.3,1208.4-21,1215.8-26.4,1215.8z"/>
					<path class="st5" d="M209.2,1142.9c-5.3,0-4.6-7.3,0.7-7.3C215.3,1135.6,214.6,1142.9,209.2,1142.9z"/>
					<path class="st5" d="M440.4,1307c-5.8,0-5-7.9,0.7-7.9C446.9,1299.1,446,1307,440.4,1307z"/>
					<path class="st5" d="M529.3,2164c-10.9,0-9.4-14.8,1.4-14.8C541.5,2149.2,540.1,2164,529.3,2164z"/>
					<path class="st5" d="M834.1,2101.9c-5.6,2.3-9.5-0.1-6.7-5.4C835.3,2092,837.5,2093.8,834.1,2101.9
						C833.1,2102.3,837.4,2100.5,834.1,2101.9z"/>
					<path class="st5" d="M811.1,2026.3c-4.6,0-4-6.3,0.6-6.3C816.4,2019.9,815.8,2026.3,811.1,2026.3z"/>
					<path class="st5" d="M1091,2163.8c-4.6,6.3-18.5-3-18.1-7.7C1074.2,2142.8,1100,2151.4,1091,2163.8
						C1088.9,2166.7,1092.8,2161.3,1091,2163.8z"/>
					<path class="st5" d="M994.1,1972.3c-5.6,0-4.9-7.6,0.7-7.6C1000.4,1964.7,999.7,1972.3,994.1,1972.3z"/>
					<path class="st5" d="M1205.6,1821.9c1.7,3.4-16.6-8.2-2.6-6.4C1205.5,1815.9,1212.9,1821,1205.6,1821.9z"/>
					<path class="st5" d="M1071.9,1557.5c-5.4,0-4.6-7.3,0.7-7.3C1078,1550.2,1077.2,1557.5,1071.9,1557.5z"/>
					<path class="st5" d="M946,1325.4c-6.1,0-5.2-8.3,0.8-8.3C952.9,1317.1,952.1,1325.4,946,1325.4z"/>
					<path class="st5" d="M1368.9,1665.7c-4.7,18-15.9,3.5-17.1-1.3C1349,1653.3,1372.5,1651.7,1368.9,1665.7
						C1367.7,1670.4,1369.6,1663,1368.9,1665.7z"/>
					<path class="st5" d="M1353.4,1497.4c-2.1,2.3-10.9,8.7-11.5,0.6C1340.9,1483.7,1360.2,1490,1353.4,1497.4
						C1352.9,1498,1356,1494.7,1353.4,1497.4z"/>
					<path class="st5" d="M1529.3,1756.4c-11.1-0.8-14.9-16.9-0.9-16C1538.5,1741.1,1540.6,1757.3,1529.3,1756.4
						C1527.6,1756.3,1534.3,1756.8,1529.3,1756.4z"/>
					<path class="st5" d="M1346.4,1963.4c-7.4,0-6.4-10.1,0.9-10.1C1354.7,1953.4,1353.7,1963.4,1346.4,1963.4z"/>
					<path class="st5" d="M1475.6,2035c-3.5,5.6-13.5,1.7-7.8-2.5C1470.2,2030.9,1479.6,2028.7,1475.6,2035
						C1475.1,2035.9,1476.4,2033.8,1475.6,2035z"/>
					<path class="st5" d="M1585.4,1931.8c-1.9,2.5-11.1-1.9-7.2-5.6C1581.4,1923,1586.9,1929.9,1585.4,1931.8
						C1583.8,1933.8,1586.8,1930,1585.4,1931.8z"/>
					<path class="st5" d="M1685.5,1924.7c-1.1,12.4-20.2,7.2-20.5-3.3C1664.5,1909.3,1686.4,1914.1,1685.5,1924.7
						C1685,1929.1,1685.7,1921.7,1685.5,1924.7z"/>
					<path class="st5" d="M1259.6,2094.9c-4.4,0-3.8-6,0.6-6C1264.6,2088.9,1264,2094.9,1259.6,2094.9z"/>
					<path class="st5" d="M1101.8,1895.9c-3.2,0-2.8-4.4,0.4-4.4C1105.5,1891.5,1105,1895.9,1101.8,1895.9z"/>
					<path class="st5" d="M522.8,1801.7c-4.5,0-3.9-6.1,0.6-6.1S527.2,1801.7,522.8,1801.7z"/>
					<path class="st5" d="M1555.7,1359.4c-3.1,6.5-12.8,5.6-15.1-0.4C1536,1343.9,1560.9,1348,1555.7,1359.4
						C1553,1365.2,1556.3,1358,1555.7,1359.4z"/>
					<g>
						<path class="st5" d="M1235.4,1338.9C1235.4,1338.9,1235.5,1338.9,1235.4,1338.9C1235.4,1338.9,1235.5,1338.9,1235.4,1338.9z"
							/>
					</g>
					<path class="st5" d="M97.3,978c-3.8,0-3.3-5.2,0.5-5.2C101.5,972.8,101,978,97.3,978z"/>
					<path class="st5" d="M1438,1110.6c-5.4,0-4.7-7.4,0.7-7.4C1444.1,1103.2,1443.4,1110.6,1438,1110.6z"/>
					<path class="st5" d="M1227.5,993.6c-5.9,0-5.1-8.1,0.7-8.1C1234.1,985.5,1233.3,993.6,1227.5,993.6z"/>
					<path class="st5" d="M962.1,968.5c-4.7,0-4.1-6.5,0.6-6.5C967.5,962.1,966.8,968.5,962.1,968.5z"/>
					<path class="st5" d="M209.1,2030.3c-9.7,0.1-5-24.8,8.1-14.4C222.6,2022.3,219.9,2027.1,209.1,2030.3
						C205.8,2030.3,215.1,2030.2,209.1,2030.3z"/>
					<path class="st5" d="M209.2,2130.1c-5.5,0-4.7-7.5,0.7-7.5C215.5,2122.5,214.7,2130.1,209.2,2130.1z"/>
					<path class="st5" d="M-63,1914.8c-4.3,0-3.7-5.8,0.6-5.8C-58.2,1909-58.7,1914.8-63,1914.8z"/>
					<path class="st5" d="M1259.6,1961.7c1.4-0.9-19.9,0.7-12.8-7.7C1248.3,1941.8,1271.4,1953.6,1259.6,1961.7
						C1256.3,1964,1264.9,1958.1,1259.6,1961.7z"/>
					<path class="st5" d="M812.5,1918c-3.3,15.1-22.9,1.6-14-4.1C805.7,1909.4,810.4,1910.7,812.5,1918
						C812,1920.1,813.1,1915.3,812.5,1918z"/>
					<path class="st5" d="M1136,1739.1c-4.7,0-4-6.4,0.6-6.4C1141.3,1732.7,1140.7,1739.1,1136,1739.1z"/>
				</g>
				<g>
					<path class="st5" d="M1865.9,1723.5c0-13.2-23.1-13.2-23.1,0C1842.8,1736.6,1865.9,1736.6,1865.9,1723.5z"/>
					<path class="st5" d="M1872.3,2167.9c-4.4,0-3.8-6,0.5-6C1877.2,2161.9,1876.6,2167.9,1872.3,2167.9z"/>
					<path class="st5" d="M2129.6,2079.3c-5,0-4.3-6.8,0.6-6.8C2135.3,2072.5,2134.6,2079.3,2129.6,2079.3z"/>
					<path class="st5" d="M2499.7,2114.2c-6.8,7.3-10.5,2-13-1.2C2457.4,2100.7,2523.6,2088.7,2499.7,2114.2
						C2496.6,2117.4,2504.7,2108.8,2499.7,2114.2z"/>
					<path class="st5" d="M2146.2,1718.2c-8.7,0-7.5-11.8,1.1-11.8C2155.9,1706.4,2154.7,1718.2,2146.2,1718.2z"/>
					<path class="st5" d="M2353.4,1792.4c-4.9,0-4.3-6.8,0.6-6.8C2359,1785.6,2358.4,1792.4,2353.4,1792.4z"/>
					<path class="st5" d="M2040.1,1562.7c-5.4,0-4.7-7.4,0.7-7.4C2046.2,1555.3,2045.4,1562.7,2040.1,1562.7z"/>
					<path class="st5" d="M2135.1,1130.7c-6.6,0-5.7-8.9,0.8-8.9C2142.5,1121.8,2141.6,1130.7,2135.1,1130.7z"/>
					<path class="st5" d="M2417.6,1331.4c-7,0-6-9.6,0.9-9.6C2425.6,1321.8,2424.7,1331.4,2417.6,1331.4z"/>
					<path class="st5" d="M2518.5,1936.2c-5.5,0-4.7-7.5,0.7-7.5C2524.7,1928.7,2523.9,1936.2,2518.5,1936.2z"/>
					<path class="st5" d="M1998.2,929.1c-4.7,0-4-6.3,0.6-6.3C2003.4,922.8,2002.7,929.1,1998.2,929.1z"/>
					<path class="st5" d="M2496.8,1833C2489.3,1842.6,2505.1,1822.6,2496.8,1833C2495.1,1835.2,2498.4,1831,2496.8,1833z"/>
					<path class="st5" d="M1802.3,2074.5c-5.2,0-4.5-7.1,0.7-7.1C1808.2,2067.4,1807.4,2074.5,1802.3,2074.5z"/>
				</g>
				<path class="st2" d="M2632.8,1593.1C2632,1592.9,2636.1,1593.1,2632.8,1593.1L2632.8,1593.1z"/>
				<path class="st2" d="M2613.7,1590.9C2612,1590.2,2616.9,1590.7,2613.7,1590.9L2613.7,1590.9z"/>
				<path class="st2" d="M2613.7,1590.9c-0.3,0.8-0.8,1.5-1.3,2C2612.2,1592.4,2612.7,1590.5,2613.7,1590.9z"/>
				<path class="st2" d="M2624.9,1832.6C2629.6,1832.4,2629.9,1835,2624.9,1832.6L2624.9,1832.6z"/>
				<path class="st2" d="M2617.9,1818.4c-0.4-0.4-0.6-0.9-0.6-1.4C2618.3,1816.8,2618.1,1817.9,2617.9,1818.4z"/>
				<path class="st2" d="M2615.5,1796.1C2614.4,1797.5,2614,1795.2,2615.5,1796.1L2615.5,1796.1z"/>
				<path class="st2" d="M2635.4,1582.3C2631.1,1583.3,2631.7,1581.1,2635.4,1582.3L2635.4,1582.3z"/>
				<path class="st2" d="M2613.3,1606.3C2612.6,1605.6,2614.4,1605.9,2613.3,1606.3L2613.3,1606.3z"/>
				<path class="st2" d="M2633.1,1406.9c-0.4,0-0.7-0.1-1.1-0.1c0-0.5,0.3-0.9,0.8-1.2C2633.5,1405.6,2634.2,1406.7,2633.1,1406.9z"
					/>
				<path class="st2" d="M2632,1406.8C2635.7,1407.5,2632.8,1408.1,2632,1406.8L2632,1406.8z"/>
				<path class="st2" d="M2631.4,1391.9C2628.4,1387.9,2635.2,1388.2,2631.4,1391.9L2631.4,1391.9z"/>
				<path class="st2" d="M2635.2,1454.9C2631.4,1453,2638.7,1452.9,2635.2,1454.9L2635.2,1454.9z"/>
			</g>
			<g>
				<g>
					<path class="st5" d="M3043,762.1c0,10.8-18.9,10.8-18.9,0C3024.1,751.3,3043,751.3,3043,762.1z"/>
					<path class="st5" d="M3382.5,287c-5.7,3.9-1.6,13,3.3,7.3C3387.7,292.2,3389.3,282.3,3382.5,287
						C3381.7,287.6,3386.2,284.5,3382.5,287z"/>
					<path class="st5" d="M3048.2,398.6c-3.6,0-3.1,4.9,0.5,4.9C3052.2,403.5,3051.8,398.6,3048.2,398.6z"/>
					<path class="st5" d="M3258.7,471.1c-4.1,0-3.5,5.6,0.5,5.6C3263.3,476.7,3262.7,471.1,3258.7,471.1z"/>
					<path class="st5" d="M3561.3,442.5c-5.6-5.9-8.6-1.6-10.6,1C3526.8,453.6,3580.9,463.4,3561.3,442.5
						C3558.8,439.9,3565.5,446.9,3561.3,442.5z"/>
					<path class="st5" d="M3272.2,766.4c-7.1,0-6.1,9.6,0.9,9.6C3280.2,776,3279.2,766.4,3272.2,766.4z"/>
					<path class="st5" d="M3441.7,705.7c-4,0-3.5,5.5,0.6,5.5C3446.3,711.3,3445.8,705.7,3441.7,705.7z"/>
					<path class="st5" d="M3185.4,893.6c-4.4,0-3.8,6,0.6,6C3190.4,899.6,3189.8,893.6,3185.4,893.6z"/>
					<path class="st5" d="M3185.1,1108.7c-9.3,0-8,12.7,1.2,12.7C3195.6,1121.4,3194.3,1108.7,3185.1,1108.7z"/>
					<path class="st5" d="M3263.2,1246.9c-5.3,0-4.6,7.3,0.7,7.3C3269.2,1254.2,3268.5,1246.9,3263.2,1246.9z"/>
					<path class="st5" d="M3494.3,1082.8c-5.8,0-4.9,7.9,0.7,7.9C3500.8,1090.7,3500,1082.8,3494.3,1082.8z"/>
					<path class="st5" d="M3583.2,225.8c-10.9,0-9.4,14.8,1.4,14.8C3595.4,240.6,3594,225.8,3583.2,225.8z"/>
					<path class="st5" d="M3865,363.5c-4.7,0-4,6.3,0.6,6.3C3870.3,369.9,3869.7,363.5,3865,363.5z"/>
					<path class="st5" d="M4144.9,226c-4.6-6.3-18.5,2.9-18.1,7.7C4128.1,247,4154,238.4,4144.9,226
						C4142.8,223.1,4146.8,228.5,4144.9,226z"/>
					<path class="st5" d="M4048,417.5c-5.6,0-4.9,7.6,0.7,7.6C4054.4,425.1,4053.6,417.5,4048,417.5z"/>
					<path class="st5" d="M4259.5,567.9c1.6-3.4-16.6,8.2-2.6,6.4C4259.4,573.9,4266.8,568.8,4259.5,567.9z"/>
					<path class="st5" d="M4125.8,832.3c-5.4,0-4.6,7.3,0.7,7.3C4131.9,839.6,4131.1,832.3,4125.8,832.3z"/>
					<path class="st5" d="M4000,1064.4c-6.1,0-5.3,8.3,0.8,8.3C4006.8,1072.7,4006,1064.4,4000,1064.4z"/>
					<path class="st5" d="M4422.8,724.1c-4.7-18-15.8-3.5-17.1,1.3C4402.9,736.5,4426.5,738.1,4422.8,724.1
						C4421.6,719.4,4423.5,726.8,4422.8,724.1z"/>
					<path class="st5" d="M4407.3,892.4c-2.1-2.3-10.9-8.7-11.5-0.6C4394.8,906.1,4414.2,899.8,4407.3,892.4
						C4406.8,891.9,4409.9,895.2,4407.3,892.4z"/>
					<path class="st5" d="M4400.3,426.4c-7.4,0-6.3,10,1,10C4408.6,436.4,4407.6,426.4,4400.3,426.4z"/>
					<path class="st5" d="M4313.5,295c-4.4,0-3.8,5.9,0.6,5.9C4318.4,300.9,4317.9,295,4313.5,295z"/>
					<path class="st5" d="M4155.7,493.9c-3.2,0-2.8,4.4,0.4,4.4C4159.4,498.3,4158.9,493.9,4155.7,493.9z"/>
					<path class="st5" d="M3576.7,588.1c-4.5,0-3.9,6.1,0.6,6.1C3581.8,594.2,3581.1,588.1,3576.7,588.1z"/>
					<g>
						<path class="st5" d="M4289.3,1050.9C4289.3,1050.9,4289.4,1050.9,4289.3,1050.9C4289.3,1050.9,4289.4,1050.9,4289.3,1050.9z"
							/>
						<path class="st5" d="M4292.3,1049.9c-2.1,0.6-7.7,2.1-7.5,4.7C4286,1067.6,4302.9,1046.9,4292.3,1049.9
							C4291.3,1050.2,4294.8,1049.2,4292.3,1049.9z"/>
					</g>
					<path class="st5" d="M4299.7,1220c-6.3,0-5.4,8.6,0.8,8.6C4306.8,1228.6,4305.9,1220,4299.7,1220z"/>
					<path class="st5" d="M4281.4,1396.2c-5.9,0-5.1,8.1,0.7,8.1C4288.1,1404.3,4287.2,1396.2,4281.4,1396.2z"/>
					<path class="st5" d="M4016.1,1421.3c-4.7,0-4.1,6.5,0.6,6.5C4021.4,1427.7,4020.7,1421.3,4016.1,1421.3z"/>
					<path class="st5" d="M3559,672.5C3552.8,664.7,3565.8,681,3559,672.5C3557.6,670.7,3560.3,674.1,3559,672.5z"/>
					<path class="st5" d="M3263.1,359.5c-9.7-0.1-5,24.8,8.1,14.4C3276.5,367.5,3273.8,362.7,3263.1,359.5
						C3259.7,359.5,3269,359.6,3263.1,359.5z"/>
					<path class="st5" d="M3263.2,259.8c-5.5,0-4.7,7.5,0.7,7.5C3269.4,267.3,3268.6,259.8,3263.2,259.8z"/>
					<path class="st5" d="M2990.9,475c-4.3,0-3.7,5.8,0.6,5.8C2995.7,480.8,2995.2,475,2990.9,475z"/>
					<path class="st5" d="M4313.5,428.1c1.4,0.9-19.9-0.7-12.9,7.7C4302.2,448,4325.3,436.2,4313.5,428.1
						C4310.3,425.8,4318.8,431.7,4313.5,428.1z"/>
					<path class="st5" d="M3866.4,471.8c-3.3-15.1-22.9-1.6-14,4.2C3859.7,480.5,3864.3,479.1,3866.4,471.8
						C3865.9,469.7,3867,474.5,3866.4,471.8z"/>
					<path class="st5" d="M4190,650.7c-4.7,0-4,6.4,0.6,6.4C4195.3,657.1,4194.6,650.7,4190,650.7z"/>
				</g>
			</g>
			<g>
				<g>
					<path class="st5" d="M3043,1627.7c0-10.8-18.9-10.8-18.9,0C3024.1,1638.5,3043,1638.5,3043,1627.7z"/>
					<path class="st5" d="M3382.5,2102.8c-5.7-4-1.6-13,3.3-7.3C3387.7,2097.7,3389.3,2107.5,3382.5,2102.8
						C3381.7,2102.3,3386.2,2105.3,3382.5,2102.8z"/>
					<path class="st5" d="M3048.2,1991.2c-3.6,0-3.1-4.9,0.5-4.9C3052.2,1986.3,3051.8,1991.2,3048.2,1991.2z"/>
					<path class="st5" d="M3258.7,1918.7c-4.1,0-3.5-5.6,0.5-5.6C3263.3,1913.1,3262.7,1918.7,3258.7,1918.7z"/>
					<path class="st5" d="M3561.3,1947.3c-5.6,5.9-8.6,1.6-10.6-1C3526.8,1936.2,3580.9,1926.4,3561.3,1947.3
						C3558.8,1949.9,3565.5,1942.9,3561.3,1947.3z"/>
					<path class="st5" d="M3272.2,1623.4c-7.1,0-6.1-9.6,0.9-9.6C3280.2,1613.8,3279.2,1623.4,3272.2,1623.4z"/>
					<path class="st5" d="M3441.7,1684.1c-4,0-3.5-5.5,0.6-5.5C3446.3,1678.5,3445.8,1684.1,3441.7,1684.1z"/>
					<path class="st5" d="M3185.4,1496.2c-4.4,0-3.8-6,0.6-6C3190.4,1490.2,3189.8,1496.2,3185.4,1496.2z"/>
					<path class="st5" d="M3185.1,1281.1c-9.3,0-8-12.7,1.2-12.7C3195.6,1268.4,3194.3,1281.1,3185.1,1281.1z"/>
					<path class="st5" d="M3027.5,1215.8c-5.4,0-4.7-7.4,0.7-7.4C3033.6,1208.4,3032.9,1215.8,3027.5,1215.8z"/>
					<path class="st5" d="M3263.2,1142.9c-5.3,0-4.6-7.3,0.7-7.3C3269.2,1135.6,3268.5,1142.9,3263.2,1142.9z"/>
					<path class="st5" d="M3494.3,1307c-5.8,0-4.9-7.9,0.7-7.9C3500.8,1299.1,3500,1307,3494.3,1307z"/>
					<path class="st5" d="M3583.2,2164c-10.9,0-9.4-14.8,1.4-14.8C3595.4,2149.2,3594,2164,3583.2,2164z"/>
					<path class="st5" d="M3865,2026.3c-4.7,0-4-6.3,0.6-6.3C3870.3,2019.9,3869.7,2026.3,3865,2026.3z"/>
					<path class="st5" d="M4144.9,2163.8c-4.6,6.3-18.5-3-18.1-7.7C4128.1,2142.8,4154,2151.4,4144.9,2163.8
						C4142.8,2166.7,4146.8,2161.3,4144.9,2163.8z"/>
					<path class="st5" d="M4048,1972.3c-5.6,0-4.9-7.6,0.7-7.6C4054.4,1964.7,4053.6,1972.3,4048,1972.3z"/>
					<path class="st5" d="M4259.5,1821.9c1.6,3.4-16.6-8.2-2.6-6.4C4259.4,1815.9,4266.8,1821,4259.5,1821.9z"/>
					<path class="st5" d="M4125.8,1557.5c-5.4,0-4.6-7.3,0.7-7.3C4131.9,1550.2,4131.1,1557.5,4125.8,1557.5z"/>
					<path class="st5" d="M4000,1325.4c-6.1,0-5.3-8.3,0.8-8.3C4006.8,1317.1,4006,1325.4,4000,1325.4z"/>
					<path class="st5" d="M4422.8,1665.7c-4.7,18-15.8,3.5-17.1-1.3C4402.9,1653.3,4426.5,1651.7,4422.8,1665.7
						C4421.6,1670.4,4423.5,1663,4422.8,1665.7z"/>
					<path class="st5" d="M4407.3,1497.4c-2.1,2.3-10.9,8.7-11.5,0.6C4394.8,1483.7,4414.2,1490,4407.3,1497.4
						C4406.8,1498,4409.9,1494.7,4407.3,1497.4z"/>
					<path class="st5" d="M4400.3,1963.4c-7.4,0-6.3-10.1,1-10.1C4408.6,1953.4,4407.6,1963.4,4400.3,1963.4z"/>
					<path class="st5" d="M4313.5,2094.9c-4.4,0-3.8-6,0.6-6C4318.4,2088.9,4317.9,2094.9,4313.5,2094.9z"/>
					<path class="st5" d="M4155.7,1895.9c-3.2,0-2.8-4.4,0.4-4.4C4159.4,1891.5,4158.9,1895.9,4155.7,1895.9z"/>
					<path class="st5" d="M3576.7,1801.7c-4.5,0-3.9-6.1,0.6-6.1C3581.8,1795.6,3581.1,1801.7,3576.7,1801.7z"/>
					<g>
						<path class="st5" d="M4289.3,1338.9C4289.3,1338.9,4289.4,1338.9,4289.3,1338.9C4289.3,1338.9,4289.4,1338.9,4289.3,1338.9z"
							/>
						<path class="st5" d="M4292.3,1339.9c-2.1-0.6-7.7-2.2-7.5-4.7C4286,1322.3,4302.9,1343,4292.3,1339.9
							C4291.3,1339.6,4294.8,1340.6,4292.3,1339.9z"/>
					</g>
					<path class="st5" d="M4299.7,1169.8c-6.3,0-5.4-8.6,0.8-8.6C4306.8,1161.2,4305.9,1169.8,4299.7,1169.8z"/>
					<path class="st5" d="M3151.2,978c-3.8,0-3.3-5.2,0.5-5.2C3155.4,972.8,3154.9,978,3151.2,978z"/>
					<path class="st5" d="M4281.4,993.6c-5.9,0-5.1-8.1,0.7-8.1C4288.1,985.5,4287.2,993.6,4281.4,993.6z"/>
					<path class="st5" d="M4016.1,968.5c-4.7,0-4.1-6.5,0.6-6.5C4021.4,962.1,4020.7,968.5,4016.1,968.5z"/>
					<path class="st5" d="M3559,1717.3C3552.8,1725.1,3565.8,1708.8,3559,1717.3C3557.6,1719.1,3560.3,1715.7,3559,1717.3z"/>
					<path class="st5" d="M3263.1,2030.3c-9.7,0.1-5-24.8,8.1-14.4C3276.5,2022.3,3273.8,2027.1,3263.1,2030.3
						C3259.7,2030.3,3269,2030.2,3263.1,2030.3z"/>
					<path class="st5" d="M3263.2,2130.1c-5.5,0-4.7-7.5,0.7-7.5C3269.4,2122.5,3268.6,2130.1,3263.2,2130.1z"/>
					<path class="st5" d="M2990.9,1914.8c-4.3,0-3.7-5.8,0.6-5.8C2995.7,1909,2995.2,1914.8,2990.9,1914.8z"/>
					<path class="st5" d="M4313.5,1961.7c1.4-0.9-19.9,0.7-12.9-7.7C4302.2,1941.8,4325.3,1953.6,4313.5,1961.7
						C4310.3,1964,4318.8,1958.1,4313.5,1961.7z"/>
					<path class="st5" d="M3866.4,1918c-3.3,15.1-22.9,1.6-14-4.1C3859.7,1909.4,3864.3,1910.7,3866.4,1918
						C3865.9,1920.1,3867,1915.3,3866.4,1918z"/>
					<path class="st5" d="M4190,1739.1c-4.7,0-4-6.4,0.6-6.4C4195.3,1732.7,4194.6,1739.1,4190,1739.1z"/>
				</g>
			</g>
		</g>
		<g class="st6">
			<linearGradient id="SVGID_5_" gradientUnits="userSpaceOnUse" x1="2581.1084" y1="1233.4727" x2="4273.6245" y2="1233.4727">
				<stop  offset="0" style="stop-color:#F9FBF8"/>
				<stop  offset="0.8077" style="stop-color:#B7D2EF"/>
			</linearGradient>
			<path class="st7" d="M4132.8,1242.5c-209.7-16.9-364.5-26.4-228.7-30.6c135.9-4.2,349.2-25.4,208.1-28.6
				c-141.1-3.2-304.4,11.7-417.9,6.3c-113.5-5.3,22.4-9.5-122.2-11.6c-144.4-2.1-221.8-2.1-158.1-10.5c63.6-8.5-12.1-11.6-58.5-12.7
				c-67-1.5-98.1-1-232.1,0c-134.1,1.1-175.4,18-110.1,24.3c65.4,6.3,80.8,11.6-116.9,20.1c-197.7,8.5-388.6,15.8-287.2,25.4
				c101.5,9.5,104.9,7.4,96.3,13.7c-8.6,6.3,13.8,7.4,63.6,6.3c49.9-1,144.4,7.4,218.4,8.4c74,1.1,151.4,11.6,104.9,16.9
				c-46.4,5.2-151.3,18-46.4,24.3c104.9,6.3,141,13.7,237.3,18c96.2,4.2,330.1-9.6,228.7-20.1c-101.5-10.6-202.9-21.2-56.7-27.5
				c146.1-6.3,163.4-10.6,116.9-15.9c-46.4-5.3,49.9-2.1,122.2-1c72.2,1,194.3,11.6,134.1,15.8c-60.2,4.2-75.6,20.1-22.4,25.4
				c53.3,5.3-25.8,15.9,80.8,13.7c106.6-2.1,216.7,0,304.3-8.4C4279,1285.9,4342.6,1259.5,4132.8,1242.5z M3170.7,1237.3
				c-61,0-21.5-2.1-66.2-6.4c-44.7-4.2,42.2-9.4,55-8.9C3206,1223.5,3231.7,1237.3,3170.7,1237.3z M3235.2,1246.3
				c-31.8-1.1-9.5-6.9,5.1-6.4C3284.2,1241.5,3267,1247.3,3235.2,1246.3z M3926.4,1273.2c-31.8-0.6-7.7-13.5,34.4-11.7
				C4010.7,1263.7,3958.3,1273.8,3926.4,1273.2z M4028.8,1270.1c-16.4,0.5-17.2-5-4.3-4.8
				C4051.2,1265.8,4045.2,1269.5,4028.8,1270.1z"/>
			<linearGradient id="SVGID_6_" gradientUnits="userSpaceOnUse" x1="755.7303" y1="662.5377" x2="3013.7441" y2="662.5377">
				<stop  offset="0" style="stop-color:#F9FBF8"/>
				<stop  offset="0.8077" style="stop-color:#B7D2EF"/>
			</linearGradient>
			<path class="st8" d="M2959.6,652.7c-152.7-8-213-3.4-339.4-9.2c-126.3-5.9-352.6-8.1-454.4-8.1c-101.9,0,7.6-17.3-156.5-17.3
				c-164,0-9.4-10.5,26.3-14c35.9-3.4,269.7-38.3-111.1-31.3c-188.7,3.5-441.2,16.2-320.6,25.6c120.7,9.3,211.2,11.5,165.9,25.5
				c-45.2,13.8-30.1,18.5,41.5,20.9c71.7,2.2,139.4,9.1-41.5,11.6c-180.9,2.2-74.5-15.7-258.3-6.9c-183.9,8.6-173.4,12.7-152.8,19.6
				c20.8,7,35.8,12.8-81.2,14c-116.7,1.1-418.4-0.1-403.3,9.2c15,9.3-39.6,8.1-79.1,10.4c-39.7,2.3-84.9,18.6,58.3,22.2
				c143.3,3.4,284.7-12.9,326.2,0c41.4,12.7,28.2,22,131.9,18.5c103.7-3.4,271.6-7,331.9,1.2c60.3,8.1,126.3,16.3,262.1-2.3
				c135.7-18.6,249-45.3,388.4-48.7c139.5-3.5,324.3,8.1,469.5-1.2C2908.6,682.9,3112.2,660.8,2959.6,652.7z M1641.7,694.5
				c-56.5-4.6-62.2-18.5-16.9-18.5c45.2,0,47.2,2.1,126.4,4.7C1860.5,684.1,1698.3,699.1,1641.7,694.5z"/>
			<linearGradient id="SVGID_7_" gradientUnits="userSpaceOnUse" x1="-213.6185" y1="1539.2959" x2="1188.8674" y2="1539.2959">
				<stop  offset="0" style="stop-color:#F9FBF8"/>
				<stop  offset="0.8077" style="stop-color:#B7D2EF"/>
			</linearGradient>
			<path class="st9" d="M1152.7,1500.5c-97.9-6.3-265-2.5-460.7-6.3c-195.7-3.8-297.6,7.5-366.9-11.3
				c-69.4-18.8-99.9-11.3-150.9-17.6c-50.9-6.2-28.5-8.7-10.2-15c18.3-6.3-36.7-12.5-152.8-16.3c-116.2-3.7-124.4-12.5-185.6-18.8
				c-61.1-6.3-32.6,248.3-32.6,248.3c116.2,0,126.3-7.6,154.9-8.8c28.5-1.3,230.3-6.2,189.6-16.3c-40.8-10-2.1-13.8,30.5-15.1
				c32.7-1.3,69.4,7.6,112.1,10c42.8,2.5,269.1-26.3,218.1-43.9c-50.9-17.5,36.6-13.8,81.6-13.8c44.8,0,283.3-10,232.3-20
				c-51-10.1-22.4-12.6,71.3-17.6c93.8-5,108-12.6,175.4-11.3C1126.2,1528,1250.5,1506.8,1152.7,1500.5z M-52,1607
				c-24.5,2.5-36.4-4.8-8.2-7.5C-33.7,1597-27.6,1604.5-52,1607z M7,1505.5c-28.6,6.2-30.6,2.5-91.7,3.8
				c-61.1,1.2-110.1-8.8-91.8-18.8c18.3-10,79.6-7.3,128.5-8.8C37.6,1479.1,35.6,1499.2,7,1505.5z M147.7,1538.1
				c-32.6,5.1-43.4-13-12.2-13.8C188.5,1523,180.3,1533.1,147.7,1538.1z M276.1,1570.7c-65.2-5,18.6-15.2,51-12.5
				C435.2,1566.9,341.4,1575.7,276.1,1570.7z"/>
		</g>
		<linearGradient id="SVGID_8_" gradientUnits="userSpaceOnUse" x1="204.486" y1="1828.7843" x2="571.6384" y2="1611.4242">
			<stop  offset="0" style="stop-color:#FFFFFF"/>
			<stop  offset="2.035761e-02" style="stop-color:#F0F0F0"/>
			<stop  offset="9.281224e-02" style="stop-color:#BEBEBE"/>
			<stop  offset="0.1708" style="stop-color:#919191"/>
			<stop  offset="0.2526" style="stop-color:#6A6A6A"/>
			<stop  offset="0.339" style="stop-color:#494949"/>
			<stop  offset="0.4314" style="stop-color:#2E2E2E"/>
			<stop  offset="0.5321" style="stop-color:#1A1A1A"/>
			<stop  offset="0.6452" style="stop-color:#0B0B0B"/>
			<stop  offset="0.7809" style="stop-color:#030303"/>
			<stop  offset="1" style="stop-color:#000000"/>
		</linearGradient>
		<path class="st10" d="M377.3,1727.3l-173.1,99c0,0-6.3,3.9-5.8,5.8c0,0,0,2.5,4.9,0l291.9-172.7L377.3,1727.3z"/>
		<linearGradient id="SVGID_9_" gradientUnits="userSpaceOnUse" x1="508.8125" y1="1142.762" x2="660.5386" y2="1052.9377">
			<stop  offset="0" style="stop-color:#FFFFFF"/>
			<stop  offset="2.035761e-02" style="stop-color:#F0F0F0"/>
			<stop  offset="9.281224e-02" style="stop-color:#BEBEBE"/>
			<stop  offset="0.1708" style="stop-color:#919191"/>
			<stop  offset="0.2526" style="stop-color:#6A6A6A"/>
			<stop  offset="0.339" style="stop-color:#494949"/>
			<stop  offset="0.4314" style="stop-color:#2E2E2E"/>
			<stop  offset="0.5321" style="stop-color:#1A1A1A"/>
			<stop  offset="0.6452" style="stop-color:#0B0B0B"/>
			<stop  offset="0.7809" style="stop-color:#030303"/>
			<stop  offset="1" style="stop-color:#000000"/>
		</linearGradient>
		<path class="st11" d="M580.2,1100.8l-71.6,40.9c0,0-2.6,1.6-2.4,2.4c0,0,0,1,2,0l120.6-71.4L580.2,1100.8z"/>
		<linearGradient id="SVGID_10_" gradientUnits="userSpaceOnUse" x1="3679.8706" y1="1374.1788" x2="4414.1782" y2="939.4571">
			<stop  offset="0" style="stop-color:#FFFFFF"/>
			<stop  offset="2.035761e-02" style="stop-color:#F0F0F0"/>
			<stop  offset="9.281224e-02" style="stop-color:#BEBEBE"/>
			<stop  offset="0.1708" style="stop-color:#919191"/>
			<stop  offset="0.2526" style="stop-color:#6A6A6A"/>
			<stop  offset="0.339" style="stop-color:#494949"/>
			<stop  offset="0.4314" style="stop-color:#2E2E2E"/>
			<stop  offset="0.5321" style="stop-color:#1A1A1A"/>
			<stop  offset="0.6452" style="stop-color:#0B0B0B"/>
			<stop  offset="0.7809" style="stop-color:#030303"/>
			<stop  offset="1" style="stop-color:#000000"/>
		</linearGradient>
		<path class="st12" d="M4025.5,1171.3l-346.3,198c0,0-12.6,7.7-11.5,11.5c0,0,0,4.9,9.9,0l583.7-345.5L4025.5,1171.3z"/>
		<rect x="-137.5" y="-5" class="st3" width="4553.2" height="2721.6"/>
	</g>
</g>
</svg>
