<?xml version="1.0" encoding="utf-8"?>
<!-- Generator: Adobe Illustrator 25.3.1, SVG Export Plug-In . SVG Version: 6.00 Build 0)  -->
<svg version="1.1" id="Layer_1" xmlns="http://www.w3.org/2000/svg" xmlns:xlink="http://www.w3.org/1999/xlink" x="0px" y="0px"
	 viewBox="0 0 2500 1600" style="enable-background:new 0 0 2500 1600;" xml:space="preserve">
<style type="text/css">
	.st0{clip-path:url(#SVGID_2_);fill:url(#SVGID_3_);}
	.st1{clip-path:url(#SVGID_2_);}
	.st2{filter:url(#Adobe_OpacityMaskFilter);}
	.st3{filter:url(#Adobe_OpacityMaskFilter_1_);}
	.st4{mask:url(#SVGID_4_);fill:url(#SVGID_5_);}
	.st5{opacity:0.29;fill:url(#SVGID_6_);}
	.st6{filter:url(#Adobe_OpacityMaskFilter_2_);}
	.st7{filter:url(#Adobe_OpacityMaskFilter_3_);}
	.st8{mask:url(#SVGID_7_);fill:url(#SVGID_8_);}
	.st9{opacity:0.29;fill:url(#SVGID_9_);}
	.st10{filter:url(#Adobe_OpacityMaskFilter_4_);}
	.st11{filter:url(#Adobe_OpacityMaskFilter_5_);}
	.st12{mask:url(#SVGID_10_);fill:url(#SVGID_11_);}
	.st13{opacity:0.29;fill:url(#SVGID_12_);}
	.st14{filter:url(#Adobe_OpacityMaskFilter_6_);}
	.st15{filter:url(#Adobe_OpacityMaskFilter_7_);}
	.st16{mask:url(#SVGID_13_);fill:url(#SVGID_14_);}
	.st17{opacity:0.29;fill:url(#SVGID_15_);}
	.st18{filter:url(#Adobe_OpacityMaskFilter_8_);}
	.st19{filter:url(#Adobe_OpacityMaskFilter_9_);}
	.st20{mask:url(#SVGID_16_);fill:url(#SVGID_17_);}
	.st21{opacity:0.29;fill:url(#SVGID_18_);}
	.st22{fill:#FFFFFF;}
	.st23{filter:url(#Adobe_OpacityMaskFilter_10_);}
	.st24{filter:url(#Adobe_OpacityMaskFilter_11_);}
	.st25{mask:url(#SVGID_19_);fill:url(#SVGID_20_);}
	.st26{opacity:0.29;fill:url(#SVGID_21_);}
	.st27{fill:#F7C22B;}
	.st28{filter:url(#Adobe_OpacityMaskFilter_12_);}
	.st29{filter:url(#Adobe_OpacityMaskFilter_13_);}
	.st30{mask:url(#SVGID_22_);fill:url(#SVGID_23_);}
	.st31{opacity:0.29;fill:url(#SVGID_24_);}
	.st32{fill:#FF40A1;}
	.st33{filter:url(#Adobe_OpacityMaskFilter_14_);}
	.st34{filter:url(#Adobe_OpacityMaskFilter_15_);}
	.st35{mask:url(#SVGID_25_);fill:url(#SVGID_26_);}
	.st36{opacity:0.29;fill:url(#SVGID_27_);}
	.st37{filter:url(#Adobe_OpacityMaskFilter_16_);}
	.st38{filter:url(#Adobe_OpacityMaskFilter_17_);}
	.st39{mask:url(#SVGID_28_);fill:url(#SVGID_29_);}
	.st40{opacity:0.29;fill:url(#SVGID_30_);}
	.st41{filter:url(#Adobe_OpacityMaskFilter_18_);}
	.st42{filter:url(#Adobe_OpacityMaskFilter_19_);}
	.st43{mask:url(#SVGID_31_);fill:url(#SVGID_32_);}
	.st44{opacity:0.29;fill:url(#SVGID_33_);}
	.st45{fill:url(#SVGID_34_);}
	.st46{opacity:0.68;fill:#FFFFFF;}
	.st47{opacity:0.25;fill:#000092;}
	.st48{clip-path:url(#SVGID_2_);fill:none;}
	.st49{fill:url(#SVGID_35_);}
</style>
<g>
	<defs>
		<rect id="SVGID_1_" width="2500" height="1600"/>
	</defs>
	<clipPath id="SVGID_2_">
		<use xlink:href="#SVGID_1_"  style="overflow:visible;"/>
	</clipPath>
	
		<radialGradient id="SVGID_3_" cx="1886.245" cy="550.4708" r="1279.3583" gradientTransform="matrix(1 0 0 0.9825 0 -133.1602)" gradientUnits="userSpaceOnUse">
		<stop  offset="0" style="stop-color:#3ACCF3"/>
		<stop  offset="0.1233" style="stop-color:#37ADE7"/>
		<stop  offset="0.3912" style="stop-color:#315FC7"/>
		<stop  offset="0.5697" style="stop-color:#293DA1"/>
		<stop  offset="0.7452" style="stop-color:#222282"/>
		<stop  offset="0.8946" style="stop-color:#1E1270"/>
		<stop  offset="1" style="stop-color:#1D0C69"/>
	</radialGradient>
	<rect class="st0" width="2500" height="1600"/>
	<g class="st1">
		<defs>
			<filter id="Adobe_OpacityMaskFilter" filterUnits="userSpaceOnUse" x="-187.8" y="30.8" width="2817.4" height="1260.4">
				<feFlood  style="flood-color:white;flood-opacity:1" result="back"/>
				<feBlend  in="SourceGraphic" in2="back" mode="normal"/>
			</filter>
		</defs>
		<mask maskUnits="userSpaceOnUse" x="-187.8" y="30.8" width="2817.4" height="1260.4" id="SVGID_4_">
			<g class="st2">
				<defs>
					<filter id="Adobe_OpacityMaskFilter_1_" filterUnits="userSpaceOnUse" x="-187.8" y="30.8" width="2817.4" height="1260.4">
						<feFlood  style="flood-color:white;flood-opacity:1" result="back"/>
						<feBlend  in="SourceGraphic" in2="back" mode="normal"/>
					</filter>
				</defs>
				<mask maskUnits="userSpaceOnUse" x="-187.8" y="30.8" width="2817.4" height="1260.4" id="SVGID_4_">
					<g class="st3">
					</g>
				</mask>
				
					<linearGradient id="SVGID_5_" gradientUnits="userSpaceOnUse" x1="-272.2236" y1="658.4374" x2="2667.0483" y2="658.4374" gradientTransform="matrix(0.9934 -0.1144 0.1144 0.9934 -43.1883 143.4833)">
					<stop  offset="1.675980e-02" style="stop-color:#000000"/>
					<stop  offset="0.706" style="stop-color:#FFFFFF"/>
				</linearGradient>
				<path class="st4" d="M1546.6,356.3c-92.6,109-163.8,225-247.3,255.2S930.8,645,803.9,781.1s-372.6,323.3-503.2,339.1
					c-130.6,15.8-459.4,57.3-477.1,95.2c-17.7,37.9-19.9,97.5,29.8,67.8c49.7-29.7,215-130.3,420.2-101.9
					c205.3,28.4,483-223.7,614-319.4s279-140.9,429.2-97.1c150.2,43.8,420.5-181.8,475-268.6s152.8-168.6,304.8-177.5
					c151.9-8.9,467.4-12,473.3-24.6s67.7-223.1,58.6-259.7S1639.2,247.3,1546.6,356.3z"/>
			</g>
		</mask>
		
			<linearGradient id="SVGID_6_" gradientUnits="userSpaceOnUse" x1="-272.2236" y1="658.4374" x2="2667.0483" y2="658.4374" gradientTransform="matrix(0.9934 -0.1144 0.1144 0.9934 -43.1883 143.4833)">
			<stop  offset="1.675980e-02" style="stop-color:#0056FF"/>
			<stop  offset="0.706" style="stop-color:#36A3FF"/>
		</linearGradient>
		<path class="st5" d="M1546.6,356.3c-92.6,109-163.8,225-247.3,255.2S930.8,645,803.9,781.1s-372.6,323.3-503.2,339.1
			c-130.6,15.8-459.4,57.3-477.1,95.2c-17.7,37.9-19.9,97.5,29.8,67.8c49.7-29.7,215-130.3,420.2-101.9
			c205.3,28.4,483-223.7,614-319.4s279-140.9,429.2-97.1c150.2,43.8,420.5-181.8,475-268.6s152.8-168.6,304.8-177.5
			c151.9-8.9,467.4-12,473.3-24.6s67.7-223.1,58.6-259.7S1639.2,247.3,1546.6,356.3z"/>
		<defs>
			<filter id="Adobe_OpacityMaskFilter_2_" filterUnits="userSpaceOnUse" x="-123.4" y="561.6" width="2836.3" height="1086.5">
				<feFlood  style="flood-color:white;flood-opacity:1" result="back"/>
				<feBlend  in="SourceGraphic" in2="back" mode="normal"/>
			</filter>
		</defs>
		<mask maskUnits="userSpaceOnUse" x="-123.4" y="561.6" width="2836.3" height="1086.5" id="SVGID_7_">
			<g class="st6">
				<defs>
					<filter id="Adobe_OpacityMaskFilter_3_" filterUnits="userSpaceOnUse" x="-123.4" y="561.6" width="2836.3" height="1086.5">
						<feFlood  style="flood-color:white;flood-opacity:1" result="back"/>
						<feBlend  in="SourceGraphic" in2="back" mode="normal"/>
					</filter>
				</defs>
				<mask maskUnits="userSpaceOnUse" x="-123.4" y="561.6" width="2836.3" height="1086.5" id="SVGID_7_">
					<g class="st7">
					</g>
				</mask>
				<linearGradient id="SVGID_8_" gradientUnits="userSpaceOnUse" x1="-123.4044" y1="1104.8523" x2="2712.8777" y2="1104.8523">
					<stop  offset="1.675980e-02" style="stop-color:#000000"/>
					<stop  offset="0.706" style="stop-color:#FFFFFF"/>
				</linearGradient>
				<path class="st8" d="M2412.8,649.8c0,0-1000.9,253.9-1124.3,428.3c-40.3,56.9,130,44.1,52.8,103
					c-77.2,58.8-599.7,85.4-754.4,107.9c-154.7,22.5-228.4,172.7-336.8,147.2c-108.4-25.5-373.4,138.6-373.4,138.6
					s79.3,86.6,91.9,71.4c12.6-15.1,151.1-132,265.4-141.4c114.2-9.4,118.3,50.4,165.5-15.4c47.2-65.9,221.8-115.4,377.8-124
					c156-8.6,732-31.7,792.5-135.2c60.6-103.5-46-74.2-43.2-105.2c2.8-31,447.4-152.5,600.8-172.8c183.3-24.3,479-66.9,493.8-72.5
					c14.9-5.6,91.7-318.1,91.7-318.1L2412.8,649.8z"/>
			</g>
		</mask>
		<linearGradient id="SVGID_9_" gradientUnits="userSpaceOnUse" x1="-123.4044" y1="1104.8523" x2="2712.8777" y2="1104.8523">
			<stop  offset="1.675980e-02" style="stop-color:#0056FF"/>
			<stop  offset="0.706" style="stop-color:#36A3FF"/>
		</linearGradient>
		<path class="st9" d="M2412.8,649.8c0,0-1000.9,253.9-1124.3,428.3c-40.3,56.9,130,44.1,52.8,103
			c-77.2,58.8-599.7,85.4-754.4,107.9c-154.7,22.5-228.4,172.7-336.8,147.2c-108.4-25.5-373.4,138.6-373.4,138.6
			s79.3,86.6,91.9,71.4c12.6-15.1,151.1-132,265.4-141.4c114.2-9.4,118.3,50.4,165.5-15.4c47.2-65.9,221.8-115.4,377.8-124
			c156-8.6,732-31.7,792.5-135.2c60.6-103.5-46-74.2-43.2-105.2c2.8-31,447.4-152.5,600.8-172.8c183.3-24.3,479-66.9,493.8-72.5
			c14.9-5.6,91.7-318.1,91.7-318.1L2412.8,649.8z"/>
		<defs>
			<filter id="Adobe_OpacityMaskFilter_4_" filterUnits="userSpaceOnUse" x="-226.8" y="-529.6" width="2156" height="1176.8">
				<feFlood  style="flood-color:white;flood-opacity:1" result="back"/>
				<feBlend  in="SourceGraphic" in2="back" mode="normal"/>
			</filter>
		</defs>
		<mask maskUnits="userSpaceOnUse" x="-226.8" y="-529.6" width="2156" height="1176.8" id="SVGID_10_">
			<g class="st10">
				<defs>
					<filter id="Adobe_OpacityMaskFilter_5_" filterUnits="userSpaceOnUse" x="-226.8" y="-529.6" width="2156" height="1176.8">
						<feFlood  style="flood-color:white;flood-opacity:1" result="back"/>
						<feBlend  in="SourceGraphic" in2="back" mode="normal"/>
					</filter>
				</defs>
				<mask maskUnits="userSpaceOnUse" x="-226.8" y="-529.6" width="2156" height="1176.8" id="SVGID_10_">
					<g class="st11">
					</g>
				</mask>
				<linearGradient id="SVGID_11_" gradientUnits="userSpaceOnUse" x1="-226.7593" y1="58.868" x2="1929.2314" y2="58.868">
					<stop  offset="1.675980e-02" style="stop-color:#000000"/>
					<stop  offset="0.7904" style="stop-color:#FFFFFF"/>
				</linearGradient>
				<path class="st12" d="M-223.8,456.5c-3,12.9-44.4,342.8,310.5,104.7s194.5-452.4,598.3-411.8s511.7,44.4,742.1-14
					c205-52,446-152.6,499.2-213.6c80.5-92.2-1451.8-451.4-1451.8-451.4S-6.9-466.1-11-448.9c-4,17.2-87.8,373.3-87.8,373.3
					L-223.8,456.5z"/>
			</g>
		</mask>
		<linearGradient id="SVGID_12_" gradientUnits="userSpaceOnUse" x1="-226.7593" y1="58.868" x2="1929.2314" y2="58.868">
			<stop  offset="1.675980e-02" style="stop-color:#0056FF"/>
			<stop  offset="0.7904" style="stop-color:#36A3FF"/>
		</linearGradient>
		<path class="st13" d="M-223.8,456.5c-3,12.9-44.4,342.8,310.5,104.7s194.5-452.4,598.3-411.8s511.7,44.4,742.1-14
			c205-52,446-152.6,499.2-213.6c80.5-92.2-1451.8-451.4-1451.8-451.4S-6.9-466.1-11-448.9c-4,17.2-87.8,373.3-87.8,373.3
			L-223.8,456.5z"/>
		<defs>
			<filter id="Adobe_OpacityMaskFilter_6_" filterUnits="userSpaceOnUse" x="995.8" y="998.3" width="1783" height="701">
				<feFlood  style="flood-color:white;flood-opacity:1" result="back"/>
				<feBlend  in="SourceGraphic" in2="back" mode="normal"/>
			</filter>
		</defs>
		<mask maskUnits="userSpaceOnUse" x="995.8" y="998.3" width="1783" height="701" id="SVGID_13_">
			<g class="st14">
				<defs>
					<filter id="Adobe_OpacityMaskFilter_7_" filterUnits="userSpaceOnUse" x="995.8" y="998.3" width="1783" height="701">
						<feFlood  style="flood-color:white;flood-opacity:1" result="back"/>
						<feBlend  in="SourceGraphic" in2="back" mode="normal"/>
					</filter>
				</defs>
				<mask maskUnits="userSpaceOnUse" x="995.8" y="998.3" width="1783" height="701" id="SVGID_13_">
					<g class="st15">
					</g>
				</mask>
				<linearGradient id="SVGID_14_" gradientUnits="userSpaceOnUse" x1="995.8163" y1="1348.7905" x2="2778.8237" y2="1348.7905">
					<stop  offset="1.675980e-02" style="stop-color:#000000"/>
					<stop  offset="0.7904" style="stop-color:#FFFFFF"/>
				</linearGradient>
				<path class="st16" d="M995.8,1699.3c33.1-26.4,631.7-255.7,808.5-277.7c176.8-22,223.6-145.5,281.7-185.1
					c58.2-39.7,556.3-171.9,635.6-229.2c79.3-57.3,52.9,180.7,52.9,180.7s-11.8-16.8-135.2,14c-123.4,30.9-384.2,26.4-443.8,79.3
					s-220.4,210.3-452.6,229.2C1485.7,1531.5,995.8,1699.3,995.8,1699.3z"/>
			</g>
		</mask>
		<linearGradient id="SVGID_15_" gradientUnits="userSpaceOnUse" x1="995.8163" y1="1348.7905" x2="2778.8237" y2="1348.7905">
			<stop  offset="1.675980e-02" style="stop-color:#0056FF"/>
			<stop  offset="0.7904" style="stop-color:#36A3FF"/>
		</linearGradient>
		<path class="st17" d="M995.8,1699.3c33.1-26.4,631.7-255.7,808.5-277.7c176.8-22,223.6-145.5,281.7-185.1
			c58.2-39.7,556.3-171.9,635.6-229.2c79.3-57.3,52.9,180.7,52.9,180.7s-11.8-16.8-135.2,14c-123.4,30.9-384.2,26.4-443.8,79.3
			s-220.4,210.3-452.6,229.2C1485.7,1531.5,995.8,1699.3,995.8,1699.3z"/>
		<defs>
			<filter id="Adobe_OpacityMaskFilter_8_" filterUnits="userSpaceOnUse" x="-280.3" y="256.3" width="1773.5" height="944">
				<feFlood  style="flood-color:white;flood-opacity:1" result="back"/>
				<feBlend  in="SourceGraphic" in2="back" mode="normal"/>
			</filter>
		</defs>
		<mask maskUnits="userSpaceOnUse" x="-280.3" y="256.3" width="1773.5" height="944" id="SVGID_16_">
			<g class="st18">
				<defs>
					<filter id="Adobe_OpacityMaskFilter_9_" filterUnits="userSpaceOnUse" x="-280.3" y="256.3" width="1773.5" height="944">
						<feFlood  style="flood-color:white;flood-opacity:1" result="back"/>
						<feBlend  in="SourceGraphic" in2="back" mode="normal"/>
					</filter>
				</defs>
				<mask maskUnits="userSpaceOnUse" x="-280.3" y="256.3" width="1773.5" height="944" id="SVGID_16_">
					<g class="st19">
					</g>
				</mask>
				<linearGradient id="SVGID_17_" gradientUnits="userSpaceOnUse" x1="-280.2653" y1="728.3604" x2="1493.2069" y2="728.3604">
					<stop  offset="1.675980e-02" style="stop-color:#000000"/>
					<stop  offset="0.7904" style="stop-color:#FFFFFF"/>
				</linearGradient>
				<path class="st20" d="M-280.3,988.6c0,0,204.2-142.5,266-192.1s369.9-32.4,475.2-98.5C566.1,631.9,767.3,456,803.9,431
					c153.5-104.6,427.4,7.7,650.5-151.6c41.5-29.6,60.2-34.9,2.1,8.6c-196.9,147.3-518.7,120.5-581.1,154.2
					C813.5,475.7,691.6,594,635.5,661.4s-204.6,191-337.6,160.1C165,790.6,153.3,872.8-17.2,947.7s-263,252.7-263,252.7V988.6z"/>
			</g>
		</mask>
		<linearGradient id="SVGID_18_" gradientUnits="userSpaceOnUse" x1="-280.2653" y1="728.3604" x2="1493.2069" y2="728.3604">
			<stop  offset="1.675980e-02" style="stop-color:#0056FF"/>
			<stop  offset="0.7904" style="stop-color:#36A3FF"/>
		</linearGradient>
		<path class="st21" d="M-280.3,988.6c0,0,204.2-142.5,266-192.1s369.9-32.4,475.2-98.5C566.1,631.9,767.3,456,803.9,431
			c153.5-104.6,427.4,7.7,650.5-151.6c41.5-29.6,60.2-34.9,2.1,8.6c-196.9,147.3-518.7,120.5-581.1,154.2
			C813.5,475.7,691.6,594,635.5,661.4s-204.6,191-337.6,160.1C165,790.6,153.3,872.8-17.2,947.7s-263,252.7-263,252.7V988.6z"/>
	</g>
	<g class="st1">
		<path class="st22" d="M964,738.8c-7.1,0-7.1,11,0,11C971.1,749.8,971.1,738.8,964,738.8z"/>
		<path class="st22" d="M79.7,590.6c-11.6,0-11.6,18,0,18C91.3,608.6,91.3,590.6,79.7,590.6z"/>
		<path class="st22" d="M2059.8,137.4c-9,0-9,14,0,14C2068.8,151.4,2068.8,137.4,2059.8,137.4z"/>
		<path class="st22" d="M1926.2,598.8c-9,0-9,14,0,14C1935.2,612.8,1935.2,598.8,1926.2,598.8z"/>
		<path class="st22" d="M722.1,72.4c-9,0-9,14,0,14C731.2,86.4,731.2,72.4,722.1,72.4z"/>
		<path class="st22" d="M2283.8,740.3c-9.7,0-9.7,15,0,15C2293.5,755.3,2293.5,740.3,2283.8,740.3z"/>
		<path class="st22" d="M2123.9,634.2c-4.5,0-4.5,7,0,7C2128.4,641.2,2128.5,634.2,2123.9,634.2z"/>
		<path class="st22" d="M2388.4,199.9c-4.5,0-4.5,7,0,7C2392.9,206.9,2392.9,199.9,2388.4,199.9z"/>
		<path class="st22" d="M1578.8,554.6c-4.5,0-4.5,7,0,7C1583.3,561.6,1583.3,554.6,1578.8,554.6z"/>
		<path class="st22" d="M897.4,903c-4.5,0-4.5,7,0,7C901.9,910,901.9,903,897.4,903z"/>
		<path class="st22" d="M1741.4,67.4c-6.4,0-6.4,10,0,10C1747.8,77.4,1747.8,67.4,1741.4,67.4z"/>
		<path class="st22" d="M2016.4,406.3c-6.4,0-6.4,10,0,10C2022.8,416.3,2022.8,406.3,2016.4,406.3z"/>
		<path class="st22" d="M1437,614.4c-6.4,0-6.4,10,0,10C1443.4,624.4,1443.4,614.4,1437,614.4z"/>
		<path class="st22" d="M1737.9,413.6c-6.4,0-6.4,10,0,10C1744.3,423.6,1744.3,413.6,1737.9,413.6z"/>
		<path class="st22" d="M1427,135.4c-6.4,0-6.4,10,0,10C1433.4,145.4,1433.4,135.4,1427,135.4z"/>
		<path class="st22" d="M1289.9,438.8c-6.4,0-6.4,10,0,10C1296.3,448.8,1296.4,438.8,1289.9,438.8z"/>
		<path class="st22" d="M1170,225.1c-6.4,0-6.4,10,0,10C1176.5,235.1,1176.5,225.1,1170,225.1z"/>
		<path class="st22" d="M942.6,1054.5c-4.5,0-4.5,7,0,7C947.1,1061.5,947.1,1054.5,942.6,1054.5z"/>
		<path class="st22" d="M1422.2,796.5c-4.5,0-4.5,7,0,7C1426.7,803.5,1426.7,796.5,1422.2,796.5z"/>
		<path class="st22" d="M1294.7,829.1c-4.5,0-4.5,7,0,7C1299.2,836.1,1299.2,829.1,1294.7,829.1z"/>
		<path class="st22" d="M670.4,448.8c-7.7,0-7.7,12,0,12C678.2,460.8,678.2,448.8,670.4,448.8z"/>
		<path class="st22" d="M464.7,134.1c-5.1,0-5.2,8,0,8C469.9,142.1,469.9,134.1,464.7,134.1z"/>
		<path class="st22" d="M1228.3,64.7c-1.6-1.5-4.1-1.6-5.7,0c-0.8,0.8-1.7,1.7-2.5,2.5c-1.5,1.5-1.6,4.2,0,5.7
			c1.6,1.5,4.1,1.6,5.7,0c0.8-0.8,1.7-1.7,2.5-2.5C1229.8,68.8,1229.9,66.1,1228.3,64.7z"/>
		<path class="st22" d="M813.3,305c-1.6-1.5-4.1-1.6-5.7,0c-0.8,0.8-1.7,1.7-2.5,2.5c-1.5,1.5-1.6,4.2,0,5.7c1.6,1.5,4.1,1.6,5.7,0
			c0.8-0.8,1.7-1.7,2.5-2.5C814.7,309.2,814.8,306.5,813.3,305z"/>
		<path class="st22" d="M558.8,758.2c-9,0-9,14,0,14C567.8,772.2,567.8,758.2,558.8,758.2z"/>
		<path class="st22" d="M1084.8,917c-9,0-9,14,0,14C1093.8,931,1093.8,917,1084.8,917z"/>
		<path class="st22" d="M2378.3,353.4c-9,0-9,14,0,14C2387.3,367.4,2387.3,353.4,2378.3,353.4z"/>
		<path class="st22" d="M1381.6,737.3c-9,0-9,14,0,14C1390.6,751.3,1390.6,737.3,1381.6,737.3z"/>
		<path class="st22" d="M1699,482c-9,0-9,14,0,14C1708,496,1708,482,1699,482z"/>
		<path class="st22" d="M242.1,246.3c-9,0-9,14,0,14C251.1,260.3,251.1,246.3,242.1,246.3z"/>
		<path class="st22" d="M589.6,338.8h-2.9c-1.3,0-2.6,0.6-3.5,1.5c-0.9,0.9-1.5,2.3-1.5,3.5c0.1,2.7,2.2,5,5,5h2.9
			c1.3,0,2.6-0.6,3.5-1.5c0.9-0.9,1.5-2.3,1.5-3.5C594.5,341.1,592.4,338.8,589.6,338.8z"/>
		<path class="st22" d="M140.9,138.1h-2.9c-1.3,0-2.6,0.6-3.5,1.5c-0.9,0.9-1.5,2.3-1.5,3.5c0.1,2.7,2.2,5,5,5h2.9
			c1.3,0,2.6-0.6,3.5-1.5c0.9-0.9,1.5-2.3,1.5-3.5C145.7,140.3,143.7,138.1,140.9,138.1z"/>
		<path class="st22" d="M253.1,642.4h-2.9c-1.3,0-2.6,0.6-3.5,1.5c-0.9,0.9-1.5,2.3-1.5,3.5c0.1,2.7,2.2,5,5,5h2.9
			c1.3,0,2.6-0.6,3.5-1.5c0.9-0.9,1.5-2.3,1.5-3.5C258,644.7,255.9,642.4,253.1,642.4z"/>
		<path class="st22" d="M2396.4,506.4h-2.9c-1.3,0-2.6,0.6-3.5,1.5c-0.9,0.9-1.5,2.3-1.5,3.5c0.1,2.7,2.2,5,5,5h2.9
			c1.3,0,2.6-0.6,3.5-1.5c0.9-0.9,1.5-2.3,1.5-3.5C2401.2,508.7,2399.2,506.4,2396.4,506.4z"/>
		<path class="st22" d="M2207.3,53.9h-2.9c-1.3,0-2.6,0.6-3.5,1.5c-0.9,0.9-1.5,2.3-1.5,3.5c0.1,2.7,2.2,5,5,5h2.9
			c1.3,0,2.6-0.6,3.5-1.5c0.9-0.9,1.5-2.3,1.5-3.5C2212.2,56.2,2210.1,53.9,2207.3,53.9z"/>
		<path class="st22" d="M2207.3,309.3h-2.9c-1.3,0-2.6,0.6-3.5,1.5c-0.9,0.9-1.5,2.3-1.5,3.5c0.1,2.7,2.2,5,5,5h2.9
			c1.3,0,2.6-0.6,3.5-1.5c0.9-0.9,1.5-2.3,1.5-3.5C2212.2,311.6,2210.1,309.3,2207.3,309.3z"/>
		<path class="st22" d="M2081,907h-2.9c-1.3,0-2.6,0.6-3.5,1.5c-0.9,0.9-1.5,2.3-1.5,3.5c0.1,2.7,2.2,5,5,5h2.9
			c1.3,0,2.6-0.6,3.5-1.5c0.9-0.9,1.5-2.3,1.5-3.5C2085.9,909.3,2083.8,907,2081,907z"/>
		<path class="st22" d="M1001.2,530.6c-1.2-1.1-2.6-1.8-4.2-1.8h-2.2c-1.5,0-3.2,0.7-4.2,1.8c-1,1-1.8,2.7-1.8,4.2
			c0.1,1.6,0.6,3.2,1.8,4.2c1.2,1.1,2.6,1.8,4.2,1.8h2.2c1.5,0,3.2-0.7,4.2-1.8c1-1,1.8-2.7,1.8-4.2
			C1002.8,533.3,1002.3,531.7,1001.2,530.6z"/>
		<path class="st22" d="M1229.6,586.3c-1.2-1.1-2.6-1.8-4.2-1.8h-2.2c-1.5,0-3.2,0.7-4.2,1.8c-1,1-1.8,2.7-1.8,4.2
			c0.1,1.6,0.6,3.2,1.8,4.2c1.2,1.1,2.6,1.8,4.2,1.8h2.2c1.5,0,3.2-0.7,4.2-1.8c1-1,1.8-2.7,1.8-4.2
			C1231.3,589,1230.8,587.4,1229.6,586.3z"/>
		<path class="st22" d="M1229.6,396c-1.2-1.1-2.6-1.8-4.2-1.8h-2.2c-1.5,0-3.2,0.7-4.2,1.8c-1,1-1.8,2.7-1.8,4.2
			c0.1,1.6,0.6,3.2,1.8,4.2c1.2,1.1,2.6,1.8,4.2,1.8h2.2c1.5,0,3.2-0.7,4.2-1.8c1-1,1.8-2.7,1.8-4.2
			C1231.3,398.7,1230.8,397.1,1229.6,396z"/>
		<path class="st22" d="M151.2,895.1c-1.2-1.1-2.6-1.8-4.2-1.8h-2.2c-1.5,0-3.2,0.7-4.2,1.8c-1,1-1.8,2.7-1.8,4.2
			c0.1,1.6,0.6,3.2,1.8,4.2c1.2,1.1,2.6,1.8,4.2,1.8h2.2c1.5,0,3.2-0.7,4.2-1.8c1-1,1.8-2.7,1.8-4.2
			C152.9,897.8,152.4,896.1,151.2,895.1z"/>
		<path class="st22" d="M953.1,125.1c-5.8,0-5.8,9,0,9C958.9,134.1,958.9,125.1,953.1,125.1z"/>
		<path class="st22" d="M499.2,537.9c-3.9,0-3.9,6,0,6C503,543.9,503,537.9,499.2,537.9z"/>
		<path class="st22" d="M746.1,602.8c-3.9,0-3.9,6,0,6C749.9,608.8,749.9,602.8,746.1,602.8z"/>
		<path class="st22" d="M702.8,1058.5c-3.9,0-3.9,6,0,6C706.6,1064.5,706.6,1058.5,702.8,1058.5z"/>
		<path class="st22" d="M295,409.9c-3.9,0-3.9,6,0,6C298.9,415.9,298.9,409.9,295,409.9z"/>
		<path class="st22" d="M338.3,95.9c-3.9,0-3.9,6,0,6C342.2,101.9,342.2,95.9,338.3,95.9z"/>
		<path class="st22" d="M1683.1,243.3c-3.9,0-3.9,6,0,6C1686.9,249.3,1686.9,243.3,1683.1,243.3z"/>
		<path class="st22" d="M1536,83.4c-3.9,0-3.9,6,0,6C1539.9,89.4,1539.9,83.4,1536,83.4z"/>
		<path class="st22" d="M1193.5,98.9c-3.9,0-3.9,6,0,6C1197.4,104.9,1197.4,98.9,1193.5,98.9z"/>
		<path class="st22" d="M1444.7,367.4c-3.9,0-3.9,6,0,6C1448.6,373.4,1448.6,367.4,1444.7,367.4z"/>
		<path class="st22" d="M1965.3,805.5c-3.9,0-3.9,6,0,6C1969.1,811.5,1969.1,805.5,1965.3,805.5z"/>
		<path class="st22" d="M2283.8,1469.3c-3.9,0-3.9,6,0,6C2287.7,1475.3,2287.7,1469.3,2283.8,1469.3z"/>
		<path class="st22" d="M2075.2,1169.5c-3.9,0-3.9,6,0,6C2079,1175.5,2079,1169.5,2075.2,1169.5z"/>
		<path class="st22" d="M1536,804.9c-3.9,0-3.9,6,0,6C1539.9,810.9,1539.9,804.9,1536,804.9z"/>
		<path class="st22" d="M1813.6,797c-3.9,0-3.9,6,0,6C1817.5,803,1817.5,797,1813.6,797z"/>
		<g>
			<path class="st22" d="M2404.3,785.8c4.5,0,4.5-7,0-7C2399.8,778.8,2399.8,785.8,2404.3,785.8L2404.3,785.8z"/>
		</g>
		<g>
			<path class="st22" d="M2273.2,519.9c4.5,0,4.5-7,0-7C2268.7,512.9,2268.7,519.9,2273.2,519.9L2273.2,519.9z"/>
		</g>
		<g>
			<path class="st22" d="M2319.5,561.6c4.5,0,4.5-7,0-7C2315,554.6,2315,561.6,2319.5,561.6L2319.5,561.6z"/>
		</g>
		<g>
			<path class="st22" d="M2439.6,128.6c4.5,0,4.5-7,0-7C2435.1,121.6,2435.1,128.6,2439.6,128.6L2439.6,128.6z"/>
		</g>
		<g>
			<path class="st22" d="M2316.1,141.6c4.5,0,4.5-7,0-7C2311.6,134.6,2311.6,141.6,2316.1,141.6L2316.1,141.6z"/>
		</g>
		<path class="st22" d="M411.7,997.1c-6.4,0-6.4,10,0,10C418.2,1007.1,418.2,997.1,411.7,997.1z"/>
	</g>
	<g class="st1">
		<path class="st22" d="M1550,1270.3c7.1,0,7.1-11,0-11C1542.9,1259.3,1542.9,1270.3,1550,1270.3z"/>
		<path class="st22" d="M2434.3,1418.6c11.6,0,11.6-18,0-18C2422.7,1400.6,2422.7,1418.6,2434.3,1418.6z"/>
		<path class="st22" d="M1814.1,1110.9c9,0,9-14,0-14C1805.1,1096.9,1805.1,1110.9,1814.1,1110.9z"/>
		<path class="st22" d="M230.2,1268.9c9.7,0,9.7-15,0-15C220.5,1253.9,220.5,1268.9,230.2,1268.9z"/>
		<path class="st22" d="M390.1,1374.9c4.5,0,4.5-7,0-7C385.6,1367.9,385.5,1374.9,390.1,1374.9z"/>
		<path class="st22" d="M935.2,1454.5c4.5,0,4.5-7,0-7C930.7,1447.5,930.7,1454.5,935.2,1454.5z"/>
		<path class="st22" d="M1616.6,1106.2c4.5,0,4.5-7,0-7C1612.1,1099.2,1612.1,1106.2,1616.6,1106.2z"/>
		<path class="st22" d="M497.6,1602.9c6.4,0,6.4-10,0-10C491.2,1592.9,491.2,1602.9,497.6,1602.9z"/>
		<path class="st22" d="M635.5,1389.8c6.4,0,6.4-10,0-10C629,1379.8,629,1389.8,635.5,1389.8z"/>
		<path class="st22" d="M776.1,1595.6c6.4,0,6.4-10,0-10C769.7,1585.6,769.7,1595.6,776.1,1595.6z"/>
		<path class="st22" d="M1224.1,1570.4c6.4,0,6.4-10,0-10C1217.7,1560.4,1217.6,1570.4,1224.1,1570.4z"/>
		<path class="st22" d="M1571.4,954.7c4.5,0,4.5-7,0-7C1566.9,947.7,1566.9,954.7,1571.4,954.7z"/>
		<path class="st22" d="M1091.8,1212.7c4.5,0,4.5-7,0-7C1087.3,1205.7,1087.3,1212.7,1091.8,1212.7z"/>
		<path class="st22" d="M2151.6,1475.3c4.5,0,4.5-7,0-7C2147.1,1468.3,2147.1,1475.3,2151.6,1475.3z"/>
		<path class="st22" d="M1219.3,1180c4.5,0,4.5-7,0-7C1214.8,1173,1214.7,1180,1219.3,1180z"/>
		<path class="st22" d="M1843.6,1560.4c7.7,0,7.7-12,0-12C1835.8,1548.4,1835.8,1560.4,1843.6,1560.4z"/>
		<path class="st22" d="M1955.2,1250.9c9,0,9-14,0-14C1946.2,1236.9,1946.2,1250.9,1955.2,1250.9z"/>
		<path class="st22" d="M1429.2,1092.2c9,0,9-14,0-14C1420.2,1078.2,1420.2,1092.2,1429.2,1092.2z"/>
		<path class="st22" d="M1132.4,1271.8c9,0,9-14,0-14C1123.4,1257.8,1123.4,1271.8,1132.4,1271.8z"/>
		<path class="st22" d="M1793.8,775.1c9,0,9-14,0-14C1784.8,761.1,1784.8,775.1,1793.8,775.1z"/>
		<path class="st22" d="M2260.9,1366.7h2.9c1.3,0,2.6-0.6,3.5-1.5c0.9-0.9,1.5-2.3,1.5-3.5c-0.1-2.7-2.2-5-5-5h-2.9
			c-1.3,0-2.6,0.6-3.5,1.5c-0.9,0.9-1.5,2.3-1.5,3.5C2256,1364.5,2258.1,1366.7,2260.9,1366.7z"/>
		<path class="st22" d="M117.6,1502.8h2.9c1.3,0,2.6-0.6,3.5-1.5c0.9-0.9,1.5-2.3,1.5-3.5c-0.1-2.7-2.2-5-5-5h-2.9
			c-1.3,0-2.6,0.6-3.5,1.5c-0.9,0.9-1.5,2.3-1.5,3.5C112.7,1500.5,114.8,1502.8,117.6,1502.8z"/>
		<path class="st22" d="M433,1102.2h2.9c1.3,0,2.6-0.6,3.5-1.5c0.9-0.9,1.5-2.3,1.5-3.5c-0.1-2.7-2.2-5-5-5H433
			c-1.3,0-2.6,0.6-3.5,1.5c-0.9,0.9-1.5,2.3-1.5,3.5C428.1,1099.9,430.1,1102.2,433,1102.2z"/>
		<path class="st22" d="M1512.8,1478.5c1.2,1.1,2.6,1.8,4.2,1.8h2.2c1.5,0,3.2-0.7,4.2-1.8c1-1,1.8-2.7,1.8-4.2
			c-0.1-1.6-0.6-3.2-1.8-4.2c-1.2-1.1-2.6-1.8-4.2-1.8h-2.2c-1.5,0-3.2,0.7-4.2,1.8c-1,1-1.8,2.7-1.8,4.2
			C1511.1,1475.8,1511.7,1477.5,1512.8,1478.5z"/>
		<path class="st22" d="M1284.4,1422.8c1.2,1.1,2.6,1.8,4.2,1.8h2.2c1.5,0,3.2-0.7,4.2-1.8c1-1,1.8-2.7,1.8-4.2
			c-0.1-1.6-0.6-3.2-1.8-4.2c-1.2-1.1-2.6-1.8-4.2-1.8h-2.2c-1.5,0-3.2,0.7-4.2,1.8c-1,1-1.8,2.7-1.8,4.2
			C1282.7,1420.1,1283.2,1421.7,1284.4,1422.8z"/>
		<path class="st22" d="M2362.8,1114.1c1.2,1.1,2.6,1.8,4.2,1.8h2.2c1.5,0,3.2-0.7,4.2-1.8c1-1,1.8-2.7,1.8-4.2
			c-0.1-1.6-0.6-3.2-1.8-4.2c-1.2-1.1-2.6-1.8-4.2-1.8h-2.2c-1.5,0-3.2,0.7-4.2,1.8c-1,1-1.8,2.7-1.8,4.2
			C2361.1,1111.4,2361.6,1113,2362.8,1114.1z"/>
		<path class="st22" d="M2014.8,1471.3c3.9,0,3.9-6,0-6C2011,1465.3,2010.9,1471.3,2014.8,1471.3z"/>
		<path class="st22" d="M1767.9,1406.3c3.9,0,3.9-6,0-6C1764.1,1400.3,1764,1406.3,1767.9,1406.3z"/>
		<path class="st22" d="M1344.1,947.7c3.9,0,3.9-6,0-6C1340.3,941.7,1340.3,947.7,1344.1,947.7z"/>
		<path class="st22" d="M1811.2,950.7c3.9,0,3.9-6,0-6C1807.4,944.7,1807.4,950.7,1811.2,950.7z"/>
		<path class="st22" d="M2219,1599.3c3.9,0,3.9-6,0-6C2215.1,1593.3,2215.1,1599.3,2219,1599.3z"/>
		<path class="st22" d="M548.7,1203.7c3.9,0,3.9-6,0-6C544.9,1197.7,544.9,1203.7,548.7,1203.7z"/>
		<path class="st22" d="M978,1204.2c3.9,0,3.9-6,0-6C974.1,1198.2,974.1,1204.2,978,1204.2z"/>
		<g>
			<path class="st22" d="M109.7,1223.4c-4.5,0-4.5,7,0,7C114.2,1230.4,114.2,1223.4,109.7,1223.4L109.7,1223.4z"/>
		</g>
		<g>
			<path class="st22" d="M240.8,1489.3c-4.5,0-4.5,7,0,7C245.3,1496.3,245.3,1489.3,240.8,1489.3L240.8,1489.3z"/>
		</g>
		<g>
			<path class="st22" d="M194.5,1447.5c-4.5,0-4.5,7,0,7C199,1454.5,199,1447.5,194.5,1447.5L194.5,1447.5z"/>
		</g>
		<path class="st22" d="M2102.2,1012.1c6.4,0,6.4-10,0-10C2095.8,1002.1,2095.8,1012.1,2102.2,1012.1z"/>
	</g>
	<g class="st1">
		<defs>
			<filter id="Adobe_OpacityMaskFilter_10_" filterUnits="userSpaceOnUse" x="1065.9" y="1021.6" width="524.2" height="277.6">
				<feFlood  style="flood-color:white;flood-opacity:1" result="back"/>
				<feBlend  in="SourceGraphic" in2="back" mode="normal"/>
			</filter>
		</defs>
		<mask maskUnits="userSpaceOnUse" x="1065.9" y="1021.6" width="524.2" height="277.6" id="SVGID_19_">
			<g class="st23">
				<defs>
					<filter id="Adobe_OpacityMaskFilter_11_" filterUnits="userSpaceOnUse" x="1065.9" y="1021.6" width="524.2" height="277.6">
						<feFlood  style="flood-color:white;flood-opacity:1" result="back"/>
						<feBlend  in="SourceGraphic" in2="back" mode="normal"/>
					</filter>
				</defs>
				<mask maskUnits="userSpaceOnUse" x="1065.9" y="1021.6" width="524.2" height="277.6" id="SVGID_19_">
					<g class="st24">
					</g>
				</mask>
				
					<linearGradient id="SVGID_20_" gradientUnits="userSpaceOnUse" x1="1016.0477" y1="1203.2936" x2="1491.443" y2="1203.2936" gradientTransform="matrix(0.9867 -0.1625 0.1625 0.9867 -103.0239 176.2033)">
					<stop  offset="1.675980e-02" style="stop-color:#000000"/>
					<stop  offset="0.7904" style="stop-color:#FFFFFF"/>
				</linearGradient>
				<polygon class="st25" points="1590.1,1278.9 1065.9,1021.6 1585.1,1299.2 				"/>
			</g>
		</mask>
		
			<linearGradient id="SVGID_21_" gradientUnits="userSpaceOnUse" x1="1016.0477" y1="1203.2936" x2="1491.443" y2="1203.2936" gradientTransform="matrix(0.9867 -0.1625 0.1625 0.9867 -103.0239 176.2033)">
			<stop  offset="1.675980e-02" style="stop-color:#0056FF"/>
			<stop  offset="0.7904" style="stop-color:#36A3FF"/>
		</linearGradient>
		<polygon class="st26" points="1590.1,1278.9 1065.9,1021.6 1585.1,1299.2 		"/>
		
			<ellipse transform="matrix(0.3981 -0.9173 0.9173 0.3981 -226.9226 2232.3159)" class="st27" cx="1587.7" cy="1289.1" rx="10.5" ry="10.5"/>
	</g>
	<g class="st1">
		<defs>
			<filter id="Adobe_OpacityMaskFilter_12_" filterUnits="userSpaceOnUse" x="1786.9" y="805.7" width="524.2" height="277.6">
				<feFlood  style="flood-color:white;flood-opacity:1" result="back"/>
				<feBlend  in="SourceGraphic" in2="back" mode="normal"/>
			</filter>
		</defs>
		<mask maskUnits="userSpaceOnUse" x="1786.9" y="805.7" width="524.2" height="277.6" id="SVGID_22_">
			<g class="st28">
				<defs>
					<filter id="Adobe_OpacityMaskFilter_13_" filterUnits="userSpaceOnUse" x="1786.9" y="805.7" width="524.2" height="277.6">
						<feFlood  style="flood-color:white;flood-opacity:1" result="back"/>
						<feBlend  in="SourceGraphic" in2="back" mode="normal"/>
					</filter>
				</defs>
				<mask maskUnits="userSpaceOnUse" x="1786.9" y="805.7" width="524.2" height="277.6" id="SVGID_22_">
					<g class="st29">
					</g>
				</mask>
				
					<linearGradient id="SVGID_23_" gradientUnits="userSpaceOnUse" x1="1762.4773" y1="1107.406" x2="2237.8726" y2="1107.406" gradientTransform="matrix(0.9867 -0.1625 0.1625 0.9867 -103.0239 176.2033)">
					<stop  offset="1.675980e-02" style="stop-color:#000000"/>
					<stop  offset="0.7904" style="stop-color:#FFFFFF"/>
				</linearGradient>
				<polygon class="st30" points="2311,1063 1786.9,805.7 2306,1083.3 				"/>
			</g>
		</mask>
		
			<linearGradient id="SVGID_24_" gradientUnits="userSpaceOnUse" x1="1762.4773" y1="1107.406" x2="2237.8726" y2="1107.406" gradientTransform="matrix(0.9867 -0.1625 0.1625 0.9867 -103.0239 176.2033)">
			<stop  offset="1.675980e-02" style="stop-color:#0056FF"/>
			<stop  offset="0.7904" style="stop-color:#36A3FF"/>
		</linearGradient>
		<polygon class="st31" points="2311,1063 1786.9,805.7 2306,1083.3 		"/>
		
			<ellipse transform="matrix(0.9448 -0.3276 0.3276 0.9448 -224.1879 815.6501)" class="st32" cx="2308.6" cy="1073.2" rx="10.5" ry="10.5"/>
	</g>
	<g class="st1">
		<defs>
			<filter id="Adobe_OpacityMaskFilter_14_" filterUnits="userSpaceOnUse" x="1212.9" y="644.5" width="302" height="145.6">
				<feFlood  style="flood-color:white;flood-opacity:1" result="back"/>
				<feBlend  in="SourceGraphic" in2="back" mode="normal"/>
			</filter>
		</defs>
		<mask maskUnits="userSpaceOnUse" x="1212.9" y="644.5" width="302" height="145.6" id="SVGID_25_">
			<g class="st33">
				<defs>
					<filter id="Adobe_OpacityMaskFilter_15_" filterUnits="userSpaceOnUse" x="1212.9" y="644.5" width="302" height="145.6">
						<feFlood  style="flood-color:white;flood-opacity:1" result="back"/>
						<feBlend  in="SourceGraphic" in2="back" mode="normal"/>
					</filter>
				</defs>
				<mask maskUnits="userSpaceOnUse" x="1212.9" y="644.5" width="302" height="145.6" id="SVGID_25_">
					<g class="st34">
					</g>
				</mask>
				
					<linearGradient id="SVGID_26_" gradientUnits="userSpaceOnUse" x1="1222.3208" y1="772.0062" x2="1499.0134" y2="772.0062" gradientTransform="matrix(0.9867 -0.1625 0.1625 0.9867 -103.0239 176.2033)">
					<stop  offset="1.675980e-02" style="stop-color:#000000"/>
					<stop  offset="0.7904" style="stop-color:#FFFFFF"/>
				</linearGradient>
				<polygon class="st35" points="1514.9,775.5 1212.9,644.5 1511.3,790.1 				"/>
			</g>
		</mask>
		
			<linearGradient id="SVGID_27_" gradientUnits="userSpaceOnUse" x1="1222.3208" y1="772.0062" x2="1499.0134" y2="772.0062" gradientTransform="matrix(0.9867 -0.1625 0.1625 0.9867 -103.0239 176.2033)">
			<stop  offset="1.675980e-02" style="stop-color:#0056FF"/>
			<stop  offset="0.7904" style="stop-color:#36A3FF"/>
		</linearGradient>
		<polygon class="st36" points="1514.9,775.5 1212.9,644.5 1511.3,790.1 		"/>
		<path class="st27" d="M1520.6,781.6c0.7,4.1-2.1,8-6.2,8.6s-8-2.1-8.6-6.2c-0.7-4.1,2.1-8,6.2-8.6
			C1516,774.8,1519.9,777.5,1520.6,781.6z"/>
	</g>
	<g class="st1">
		<defs>
			<filter id="Adobe_OpacityMaskFilter_16_" filterUnits="userSpaceOnUse" x="861" y="647.6" width="378.3" height="195.2">
				<feFlood  style="flood-color:white;flood-opacity:1" result="back"/>
				<feBlend  in="SourceGraphic" in2="back" mode="normal"/>
			</filter>
		</defs>
		<mask maskUnits="userSpaceOnUse" x="861" y="647.6" width="378.3" height="195.2" id="SVGID_28_">
			<g class="st37">
				<defs>
					<filter id="Adobe_OpacityMaskFilter_17_" filterUnits="userSpaceOnUse" x="861" y="647.6" width="378.3" height="195.2">
						<feFlood  style="flood-color:white;flood-opacity:1" result="back"/>
						<feBlend  in="SourceGraphic" in2="back" mode="normal"/>
					</filter>
				</defs>
				<mask maskUnits="userSpaceOnUse" x="861" y="647.6" width="378.3" height="195.2" id="SVGID_28_">
					<g class="st38">
					</g>
				</mask>
				
					<linearGradient id="SVGID_29_" gradientUnits="userSpaceOnUse" x1="874.601" y1="748.59" x2="1218.0692" y2="748.59" gradientTransform="matrix(0.9867 -0.1625 0.1625 0.9867 -103.0239 176.2033)">
					<stop  offset="1.675980e-02" style="stop-color:#000000"/>
					<stop  offset="0.7904" style="stop-color:#FFFFFF"/>
				</linearGradient>
				<polygon class="st39" points="1239.3,830.9 861,647.6 1236.3,842.8 				"/>
			</g>
		</mask>
		
			<linearGradient id="SVGID_30_" gradientUnits="userSpaceOnUse" x1="874.601" y1="748.59" x2="1218.0692" y2="748.59" gradientTransform="matrix(0.9867 -0.1625 0.1625 0.9867 -103.0239 176.2033)">
			<stop  offset="1.675980e-02" style="stop-color:#0056FF"/>
			<stop  offset="0.7904" style="stop-color:#36A3FF"/>
		</linearGradient>
		<polygon class="st40" points="1239.3,830.9 861,647.6 1236.3,842.8 		"/>
		<path class="st27" d="M1243.9,835.9c0.5,3.3-1.7,6.5-5,7c-3.3,0.5-6.5-1.7-7-5c-0.5-3.3,1.7-6.5,5-7S1243.4,832.6,1243.9,835.9z"
			/>
	</g>
	<g class="st1">
		<defs>
			<filter id="Adobe_OpacityMaskFilter_18_" filterUnits="userSpaceOnUse" x="352.8" y="1110.3" width="276.8" height="168.8">
				<feFlood  style="flood-color:white;flood-opacity:1" result="back"/>
				<feBlend  in="SourceGraphic" in2="back" mode="normal"/>
			</filter>
		</defs>
		<mask maskUnits="userSpaceOnUse" x="352.8" y="1110.3" width="276.8" height="168.8" id="SVGID_31_">
			<g class="st41">
				<defs>
					<filter id="Adobe_OpacityMaskFilter_19_" filterUnits="userSpaceOnUse" x="352.8" y="1110.3" width="276.8" height="168.8">
						<feFlood  style="flood-color:white;flood-opacity:1" result="back"/>
						<feBlend  in="SourceGraphic" in2="back" mode="normal"/>
					</filter>
				</defs>
				<mask maskUnits="userSpaceOnUse" x="352.8" y="1110.3" width="276.8" height="168.8" id="SVGID_31_">
					<g class="st42">
					</g>
				</mask>
				
					<linearGradient id="SVGID_32_" gradientUnits="userSpaceOnUse" x1="298.0023" y1="1101.2034" x2="546.1028" y2="1101.2034" gradientTransform="matrix(0.9867 -0.1625 0.1625 0.9867 -103.0239 176.2033)">
					<stop  offset="1.675980e-02" style="stop-color:#000000"/>
					<stop  offset="0.7904" style="stop-color:#FFFFFF"/>
				</linearGradient>
				<polygon class="st43" points="629.7,1264.4 352.8,1110.3 626.1,1279 				"/>
			</g>
		</mask>
		
			<linearGradient id="SVGID_33_" gradientUnits="userSpaceOnUse" x1="298.0023" y1="1101.2034" x2="546.1028" y2="1101.2034" gradientTransform="matrix(0.9867 -0.1625 0.1625 0.9867 -103.0239 176.2033)">
			<stop  offset="1.675980e-02" style="stop-color:#0056FF"/>
			<stop  offset="0.7904" style="stop-color:#36A3FF"/>
		</linearGradient>
		<polygon class="st44" points="629.7,1264.4 352.8,1110.3 626.1,1279 		"/>
		<path class="st27" d="M635.4,1270.5c0.7,4.1-2.1,8-6.2,8.6c-4.1,0.7-8-2.1-8.6-6.2c-0.7-4.1,2.1-8,6.2-8.6
			C630.8,1263.7,634.7,1266.4,635.4,1270.5z"/>
	</g>
	<g class="st1">
		<radialGradient id="SVGID_34_" cx="335.4548" cy="593.6554" r="776.6714" gradientUnits="userSpaceOnUse">
			<stop  offset="0" style="stop-color:#EFFFFF"/>
			<stop  offset="0.4617" style="stop-color:#36E2FF"/>
			<stop  offset="0.5794" style="stop-color:#32DDFF"/>
			<stop  offset="0.7223" style="stop-color:#27CEFF"/>
			<stop  offset="0.8775" style="stop-color:#15B6FF"/>
			<stop  offset="1" style="stop-color:#039DFF"/>
		</radialGradient>
		<path class="st45" d="M1180.2,800c0,80.5-16.6,157.1-46.5,226.7c-10.9,25.4-23.6,49.9-38,73.2c-32.8,53.5-74.2,101.1-122.2,141.1
			c-12.6,10.5-25.6,20.4-39,29.8c-74,51.7-160.9,86.4-254.7,98.4c-23.8,3-48.1,4.6-72.8,4.6h-0.5c-201.8,0-379.2-104.2-481.5-261.6
			c-7.6-11.6-14.7-23.5-21.4-35.7c-45.2-82-70.9-176.2-70.9-276.4c0-6.3,0.1-12.5,0.3-18.7c0.8-23.9,3-47.5,6.6-70.7
			c26.5-169.4,127.1-314.2,267.6-400.3c17.7-10.8,36-20.7,54.8-29.6c74.1-35,157-54.5,244.4-54.5c9.3,0,18.5,0.2,27.6,0.7
			c17.8,0.9,35.4,2.5,52.7,4.9c157.1,22,293.7,107.6,383.2,229.9c13.4,18.3,25.7,37.4,36.8,57.2C1153.6,602,1180.2,697.9,1180.2,800
			z"/>
		<path class="st46" d="M1133.7,1026.7c-10.9,25.4-23.6,49.9-38,73.2c-39-51-88.9-138.4-155.1-197
			C772.7,754.2,554.1,756.3,391.8,600.3c-113.7-109.3-106.9-207-84.6-289.9c17.7-10.8,36-20.7,54.8-29.6c-37,169.3-10.1,232,67,321
			C515.6,701.6,810,705.6,940.5,800C1002.4,844.8,1077,938.6,1133.7,1026.7z"/>
		<path class="st46" d="M1106.8,518.9c-100.3,26-263.3,24.7-392.9-32c-139.7-61.2-118.5-161.4-79.7-260c17.8,0.9,35.4,2.5,52.7,4.9
			c-20.4,47.1-35,109.7,28.9,192.1c73.9,95.1,256.7,63.4,354.2,37.8C1083.3,480,1095.6,499.1,1106.8,518.9z"/>
		
			<ellipse transform="matrix(0.6372 -0.7707 0.7707 0.6372 -212.6416 459.0682)" class="st22" cx="381.3" cy="455.4" rx="85.6" ry="56.5"/>
		
			<ellipse transform="matrix(0.6372 -0.7707 0.7707 0.6372 -362.1169 457.7697)" class="st22" cx="305.2" cy="613.5" rx="42.7" ry="28.2"/>
		<path class="st46" d="M973.5,1241c-12.6,10.5-25.6,20.4-39,29.8c-13.9-43.8-42.8-93.7-119.2-119c-152-50.3-359.5-17.5-475.6-155.9
			s-84.2-159.7-196.2-205c-42.4-17.2-80.1-16.8-110.5-9.6c0.8-23.9,3-47.5,6.6-70.7c41.7-6.9,123.2,1.4,239.9,112.1
			c175.9,166.8,351.4,213.9,477.6,242.4C827.1,1080.9,910.3,1164.3,973.5,1241z"/>
		<path class="st46" d="M679.8,1369.1c-23.8,3-48.1,4.6-72.8,4.6c-45-49.9-111.3-116.5-171.6-150.2
			c-104-58.1-201.1-136.8-310.5-111.4c-7.6-11.6-14.7-23.5-21.4-35.7c91.4,3.6,282.2,36.3,399.7,137.2
			C574.7,1274.9,635.6,1327.5,679.8,1369.1z"/>
		<path class="st47" d="M1151.2,781.9c0,316.9-227.9,571.7-544.7,571.7c-174.3,0-330.4-57.5-435.6-180.1
			c88.6,56.1,193.7,88.6,306.3,88.6c316.9,0,573.8-256.9,573.8-573.8c0-142.6-52-273.1-138.2-373.4
			C1073.5,416.4,1151.2,577.6,1151.2,781.9z"/>
	</g>
	<rect class="st48" width="2500" height="1600"/>
	<rect class="st48" width="2500" height="1600"/>
</g>
<linearGradient id="SVGID_35_" gradientUnits="userSpaceOnUse" x1="-110.8928" y1="1295.3245" x2="2610.8928" y2="304.6755">
	<stop  offset="0" style="stop-color:#061727;stop-opacity:0.2"/>
	<stop  offset="1" style="stop-color:#061727"/>
</linearGradient>
<rect class="st49" width="2500" height="1600"/>
</svg>
